<svg width="637" height="600" viewBox="0 0 637 600" fill="none" xmlns="http://www.w3.org/2000/svg">
<g clip-path="url(#clip0_1197_7314)">
<path d="M341.746 24.0792C310.14 23.7799 118.69 20.8168 113.063 74.1678C107.661 125.259 181.843 106.552 182.576 129.225C183.34 153.049 169.197 159.933 129.704 158.422C112.599 157.763 58.5896 163.824 57.7216 197.915C56.8686 231.826 117.178 227.546 114.185 255.666C112.449 287.632 66.6559 294.59 48.6078 303.046C29.0034 313.297 -7.07771 330.207 1.21302 366.498C12.1227 408.58 81.4115 401.008 107.511 406.201C124.945 409.029 180.361 413.923 172.475 451.216C168.329 473.634 122.835 474.936 131.53 503.684C140.33 530.562 219.66 535.874 235.733 536.757C302.448 540.364 448.927 546.26 514.175 518.739C538.165 508.727 559.34 496.665 556.886 460.689C555.689 428.559 538.359 423.86 567.556 399.033C586.008 383.05 621.326 384.337 619.231 337.705C618.109 312.549 553.743 302.103 555.18 275.764C557.425 234.385 636.426 269.524 636.711 196.344C636.89 150.67 493.164 176.216 494.631 131.036C492.7 112.703 524.322 104.921 522.975 84.6135C523.708 52.124 486.475 28.075 341.746 24.0792Z" fill="#3FADFC"/>
<path d="M216.339 355.424C216.189 355.513 215.995 355.573 215.77 355.573C179.09 355.573 142.411 355.573 105.731 355.573C105.237 355.573 104.758 355.229 104.638 354.75C103.441 349.512 109.487 345.412 113.573 347.417C114.141 344.753 116.79 342.928 119.529 343.257C118.017 338.483 120.112 333.649 125.126 331.315C129.735 329.175 134.045 330.94 136.784 334.427C138.355 326.331 145.344 319.327 153.859 318.729C158.483 318.415 163.377 319.717 166.983 322.754C170.575 325.762 171.742 329.07 172.64 333.125C175.334 329.264 179.674 327.439 184.687 328.995C189.626 330.521 190.254 335.565 190.03 340.099C194.011 336.792 198.8 335.191 203.992 338.318C208.302 340.907 209.245 345.083 209.41 349.617C212.957 347.507 216.623 349.602 216.907 354.451C216.922 354.945 216.683 355.274 216.339 355.424Z" fill="#F0FBFF"/>
<path d="M523.289 127.384C523.289 148.47 580.516 152.361 583.479 127.384C586.457 102.392 523.289 95.7176 523.289 127.384Z" fill="#3FADFC"/>
<path d="M61.2676 451.815C61.2676 472.916 132.083 476.986 134.657 451.815C137.815 420.777 61.2676 414.88 61.2676 451.815Z" fill="#3FADFC"/>
<path d="M474.008 570.803C474.008 595.825 557.993 600.658 561.045 570.803C564.787 534.003 474.008 527 474.008 570.803Z" fill="#3FADFC"/>
<path d="M55.2832 128.865C55.2832 142.633 94.3125 145.297 95.7342 128.865C97.4701 108.603 55.2832 104.756 55.2832 128.865Z" fill="#3FADFC"/>
<path d="M278.966 374.145C280.134 368.294 271.469 362.906 264.794 365.061C265.887 361.051 264.645 357.399 258.718 355.603C256.249 354.855 253.286 354.87 250.682 355.573C255.351 346.265 251.011 335.67 236.585 333.485C220.901 331.105 203.497 338.797 200.384 351.188C187.634 338.648 160.607 353.673 168.583 368.099C163.659 367.321 158.571 370.105 158.272 374.25C153.289 372.559 149.353 377.647 152.436 382.017C152.66 382.331 153.124 382.541 153.573 382.541C197.945 382.541 242.332 382.541 286.703 382.541C287.048 382.541 287.317 382.451 287.511 382.331C287.721 382.211 287.886 382.032 287.975 381.777C289.487 377.437 283.905 373.352 278.966 374.145Z" fill="white"/>
<path d="M280.343 473.439C280.867 470.85 277.021 468.471 274.073 469.428C274.552 467.648 274.013 466.046 271.394 465.253C270.302 464.924 269 464.924 267.847 465.238C269.913 461.123 267.982 456.439 261.607 455.466C254.678 454.403 246.971 457.815 245.594 463.293C239.952 457.741 228.01 464.385 231.527 470.775C229.342 470.431 227.097 471.658 226.963 473.499C224.763 472.751 223.012 474.996 224.389 476.941C224.493 477.076 224.688 477.165 224.897 477.165C244.517 477.165 264.136 477.165 283.77 477.165C283.92 477.165 284.04 477.136 284.13 477.076C284.219 477.016 284.294 476.941 284.339 476.821C284.998 474.906 282.528 473.095 280.343 473.439Z" fill="white"/>
<path d="M517.991 233.412C518.111 233.487 518.246 233.532 518.425 233.532C545.707 233.532 572.988 233.532 600.285 233.532C600.644 233.532 601.018 233.278 601.093 232.919C601.991 229.028 597.487 225.975 594.449 227.456C594.015 225.481 592.054 224.119 590.019 224.373C591.141 220.827 589.585 217.22 585.859 215.499C582.432 213.898 579.229 215.215 577.194 217.819C576.026 211.788 570.819 206.58 564.488 206.146C561.046 205.906 557.41 206.879 554.731 209.139C552.052 211.384 551.184 213.838 550.526 216.846C548.52 213.973 545.288 212.626 541.562 213.778C537.88 214.915 537.416 218.672 537.596 222.039C534.633 219.585 531.071 218.387 527.21 220.707C524.007 222.637 523.304 225.735 523.169 229.102C520.535 227.531 517.812 229.087 517.587 232.694C517.557 233.053 517.737 233.293 517.991 233.412Z" fill="white"/>
<path d="M304.633 86.4242C304.708 86.4691 304.813 86.499 304.918 86.499C323.355 86.499 341.792 86.499 360.229 86.499C360.469 86.499 360.723 86.3344 360.783 86.08C361.396 83.4461 358.343 81.3809 356.293 82.3985C356.009 81.0666 354.677 80.1388 353.3 80.3034C354.063 77.909 353.016 75.4697 350.487 74.3024C348.167 73.2249 346.012 74.1078 344.635 75.8737C343.842 71.8032 340.325 68.2864 336.045 67.9871C333.726 67.8224 331.256 68.4809 329.446 70.0074C327.635 71.5188 327.051 73.18 326.602 75.2152C325.255 73.2698 323.07 72.3569 320.556 73.1351C318.072 73.8983 317.758 76.4424 317.878 78.7171C315.872 77.056 313.478 76.2478 310.859 77.8192C308.689 79.1212 308.225 81.2163 308.135 83.491C306.354 82.4285 304.514 83.491 304.364 85.9154C304.334 86.1847 304.454 86.3494 304.633 86.4242Z" fill="white"/>
<path d="M435.967 515.072C435.683 531.998 435.084 548.923 434.86 565.834C434.845 566.657 436.132 566.657 436.147 565.834C436.371 548.923 436.985 531.983 437.254 515.072C437.269 514.249 435.982 514.249 435.967 515.072Z" fill="#FFAA00"/>
<path d="M388.452 514.788C388.975 531.923 389.2 548.998 390.996 566.059C391.086 566.867 392.373 566.882 392.283 566.059C390.487 548.998 390.262 531.923 389.739 514.788C389.709 513.965 388.422 513.965 388.452 514.788Z" fill="#FFAA00"/>
<path d="M411.633 517.661C413.07 534.931 411.274 552.261 412.77 569.53C412.845 570.354 414.132 570.354 414.057 569.53C412.546 552.261 414.357 534.931 412.92 517.661C412.86 516.838 411.573 516.823 411.633 517.661Z" fill="#FFAA00"/>
<path d="M435.667 566.373C435.667 566.163 435.592 565.984 435.502 565.849C435.352 565.535 435.053 565.295 434.589 565.31C420.657 565.535 406.739 565.759 392.806 565.984C392.238 565.999 391.714 566.463 391.729 567.061C392.058 575.112 391.385 583.418 392.717 591.395C393.959 598.832 402.115 599.401 408.415 599.76C416.496 600.224 428.019 600.508 432.659 596.243C438.046 591.275 435.951 574.259 435.667 566.373Z" fill="#FFAA00"/>
<path d="M399.002 582.101C392.687 582.101 391.235 576.145 391.22 576.085C391.145 575.741 391.355 575.397 391.699 575.322C392.058 575.247 392.387 575.457 392.477 575.801C392.537 576.041 394.004 581.892 400.858 580.65C405.422 579.827 405.766 570.264 405.766 570.174C405.781 569.86 406.021 569.591 406.335 569.561C406.634 569.516 406.949 569.71 407.038 570.025C407.158 570.444 407.278 570.982 407.428 571.596C407.951 573.916 408.759 577.402 410.421 578.869C412.516 580.695 417.32 580.919 419.789 579.812C422.363 578.809 423.605 575.202 423.515 571.94C423.455 571.476 423.41 570.982 423.38 570.503C423.365 570.159 423.62 569.875 423.964 569.845C424.293 569.815 424.608 570.054 424.667 570.384C424.742 570.863 424.787 571.341 424.802 571.82C425.341 575.322 427.391 578.24 430.01 579.034C432.09 579.647 434.096 578.764 435.682 576.549C435.891 576.265 436.295 576.19 436.58 576.4C436.864 576.609 436.939 577.013 436.729 577.298C434.829 579.961 432.24 581.054 429.651 580.261C427.436 579.602 425.595 577.747 424.488 575.292C423.889 577.881 422.497 580.156 420.313 581.009C417.454 582.281 412.127 582.057 409.597 579.842C408.086 578.525 407.233 576.056 406.664 573.856C406.066 577.058 404.599 581.293 401.127 581.922C400.334 582.042 399.646 582.101 399.002 582.101Z" fill="#FFC655"/>
<path d="M412.741 562.482C408.311 562.482 393.286 562.677 391.64 566.074C389.44 570.833 413.893 570.459 418.622 570.309C440.995 569.561 443.674 561.36 412.741 562.482Z" fill="#BF7F00"/>
<path d="M412.74 561.629C410.181 561.629 388.721 561.255 390.681 567.061C391.639 569.89 396.173 570.144 398.583 570.488C403.895 571.222 409.313 571.252 414.67 571.237C419.414 571.207 424.143 570.967 428.827 570.129C430.922 569.755 435.457 569.037 436.385 566.597C438.779 560.312 414.446 561.569 412.74 561.629C411.632 561.659 411.632 563.38 412.74 563.35C417.633 563.2 422.497 563.2 427.376 563.664C428.229 563.754 436.744 564.891 433.96 566.702C428.812 570.069 420.582 569.471 414.685 569.516C408.101 569.575 401.067 569.695 394.677 567.989C391.579 567.166 393.674 565.37 395.724 564.772C397.879 564.143 400.184 563.949 402.399 563.739C405.826 563.41 409.298 563.35 412.755 563.335C413.847 563.335 413.847 561.614 412.74 561.629Z" fill="#FFC655"/>
<path d="M502.247 367.65C496.845 353.957 486.893 340.323 471.314 337.51C471.194 337.495 471.09 337.495 470.985 337.48C470.895 337.465 470.82 337.435 470.731 337.435C459.103 336.253 452.338 347.851 448.238 356.725C440.86 372.768 437.628 390.741 434.724 407.981C429.037 441.907 423.171 479.081 433.123 512.708C433.662 514.563 436.146 514.803 437.179 513.231C447.819 496.875 469.773 491.278 483.81 478.228C498.476 464.595 505.929 444.661 508.308 425.371C510.748 405.706 509.58 386.252 502.247 367.65Z" fill="#F0FBFF"/>
<path d="M386.446 422.528C381.283 394.617 369.087 366.707 355.019 341.97C354.526 341.117 353.732 340.832 352.969 340.937C352.655 340.952 352.326 341.027 351.982 341.192C337.839 348.465 330.237 362.397 325.478 376.794C320.36 392.238 317.681 411.064 320.061 427.227C323.129 448.148 334.951 466.63 350.53 480.922C363.28 492.654 379.158 500.242 390.562 513.651C391.834 515.147 394.363 513.89 394.348 512.109C394.034 482.239 391.894 451.949 386.446 422.528Z" fill="#FFAA00"/>
<path d="M453.716 321.333C441.22 314.509 426.614 313.356 412.801 316.095C411.948 316.26 411.469 316.768 411.289 317.382C402.939 329.294 401.712 345.95 400.499 359.883C398.569 381.792 399.093 403.926 400.065 425.865C401.382 455.436 403.867 485.082 407.638 514.459C407.787 515.626 408.536 516.629 409.853 516.629C418.323 516.629 426.793 516.629 435.278 516.629C436.027 516.629 436.835 516.225 437.194 515.551C460.659 472.451 467.229 420.612 471.165 372.559C472.063 361.604 472.781 350.605 472.961 339.62C473.066 332.347 459.013 324.221 453.716 321.333Z" fill="#FFAA00"/>
<path d="M418.516 324.595C414.535 301.653 374.04 319.956 363.325 327.798C353.418 335.041 350.739 341.895 350.095 352.969C349.033 371.421 350.035 389.978 352.37 408.296C355.588 433.452 361.963 458.489 372.199 481.82C375.312 488.928 378.724 495.872 382.465 502.681C384.156 505.764 387.897 515.551 391.534 516.539C396.906 517.99 404.284 516.614 409.851 516.614C410.959 516.614 411.632 515.955 411.887 515.162C411.976 514.953 412.051 514.713 412.066 514.444C415.568 472.616 418.337 430.683 419.773 388.736C420.492 367.695 422.138 345.472 418.516 324.595Z" fill="#F0FBFF"/>
<path d="M387.868 517.587C404.27 520.64 421.584 520.445 437.971 517.587C442.655 516.778 440.665 510.493 435.996 511.316C420.986 513.92 404.868 514.115 389.843 511.316C385.174 510.433 383.198 516.719 387.868 517.587Z" fill="#FFAA00"/>
<path d="M236.661 87.3519C236.541 94.6848 236.271 102.018 236.182 109.351C236.182 109.71 236.735 109.71 236.735 109.351C236.84 102.018 237.095 94.6848 237.229 87.3519C237.214 86.9927 236.661 86.9927 236.661 87.3519Z" fill="#FFAA00"/>
<path d="M216.069 87.2323C216.293 94.655 216.398 102.048 217.176 109.441C217.206 109.8 217.775 109.8 217.73 109.441C216.952 102.048 216.862 94.655 216.622 87.2323C216.607 86.8731 216.054 86.8731 216.069 87.2323Z" fill="#FFAA00"/>
<path d="M226.111 88.4745C226.739 95.9571 225.946 103.47 226.604 110.952C226.634 111.311 227.188 111.311 227.158 110.952C226.5 103.47 227.293 95.9571 226.664 88.4745C226.634 88.1153 226.081 88.1153 226.111 88.4745Z" fill="#FFAA00"/>
<path d="M236.527 109.575C236.527 109.485 236.497 109.411 236.452 109.351C236.377 109.216 236.257 109.111 236.063 109.111C230.032 109.216 224.001 109.306 217.955 109.411C217.715 109.411 217.476 109.62 217.491 109.875C217.641 113.361 217.341 116.953 217.925 120.41C218.464 123.628 221.995 123.882 224.719 124.032C228.221 124.241 233.219 124.361 235.225 122.505C237.544 120.365 236.646 113.002 236.527 109.575Z" fill="#FFAA00"/>
<path d="M220.648 116.4C217.91 116.4 217.281 113.826 217.281 113.796C217.251 113.646 217.341 113.496 217.491 113.466C217.64 113.436 217.79 113.526 217.82 113.676C217.85 113.781 218.478 116.31 221.456 115.771C223.432 115.412 223.581 111.281 223.581 111.237C223.581 111.102 223.686 110.982 223.821 110.967C223.956 110.952 224.09 111.027 224.12 111.162C224.165 111.341 224.225 111.581 224.285 111.85C224.509 112.853 224.854 114.364 225.587 115.008C226.5 115.801 228.58 115.891 229.642 115.412C230.75 114.978 231.304 113.422 231.259 112C231.229 111.79 231.214 111.581 231.199 111.371C231.199 111.222 231.304 111.102 231.453 111.087C231.588 111.072 231.738 111.177 231.752 111.326C231.782 111.536 231.797 111.73 231.812 111.955C232.052 113.466 232.935 114.738 234.072 115.083C234.97 115.352 235.838 114.963 236.526 114.005C236.616 113.885 236.796 113.856 236.915 113.945C237.035 114.035 237.065 114.215 236.975 114.334C236.152 115.487 235.03 115.966 233.907 115.621C232.95 115.337 232.142 114.529 231.663 113.466C231.408 114.589 230.795 115.577 229.852 115.936C228.61 116.489 226.305 116.385 225.213 115.427C224.554 114.858 224.195 113.781 223.941 112.838C223.671 114.23 223.043 116.055 221.531 116.34C221.217 116.37 220.918 116.4 220.648 116.4Z" fill="#FFC655"/>
<path d="M226.59 107.899C224.674 107.899 218.164 107.989 217.446 109.455C216.488 111.521 227.083 111.356 229.134 111.296C238.831 110.967 239.983 107.405 226.59 107.899Z" fill="#6B7D7E"/>
<path d="M226.591 107.525C225.483 107.525 216.19 107.36 217.028 109.874C217.447 111.102 219.407 111.206 220.455 111.356C222.76 111.67 225.109 111.685 227.429 111.685C229.479 111.67 231.529 111.566 233.565 111.206C234.477 111.042 236.438 110.727 236.842 109.68C237.874 106.956 227.324 107.495 226.591 107.525C226.112 107.54 226.112 108.288 226.591 108.273C228.701 108.213 230.826 108.198 232.936 108.408C233.31 108.453 236.992 108.932 235.794 109.725C233.565 111.176 230.003 110.922 227.444 110.952C224.585 110.982 221.547 111.027 218.779 110.293C217.447 109.934 218.345 109.156 219.228 108.902C220.156 108.632 221.158 108.543 222.116 108.453C223.598 108.303 225.109 108.288 226.606 108.273C227.07 108.258 227.07 107.525 226.591 107.525Z" fill="#FFC655"/>
<path d="M265.364 23.4955C263.03 17.5692 258.72 11.658 251.955 10.4308C251.911 10.4159 251.866 10.4159 251.806 10.4159C251.761 10.4159 251.731 10.4009 251.701 10.3859C246.658 9.87712 243.725 14.8905 241.959 18.7515C238.771 25.6953 237.364 33.4773 236.107 40.9599C233.653 55.6557 231.109 71.7582 235.419 86.3344C235.658 87.1275 236.736 87.2472 237.17 86.5588C241.779 79.4803 251.297 77.041 257.373 71.3991C263.733 65.4878 266.951 56.8529 267.983 48.5023C269.046 39.9722 268.552 31.5467 265.364 23.4955Z" fill="#F0FBFF"/>
<path d="M215.201 47.2601C212.956 35.1682 207.689 23.0763 201.583 12.3612C201.373 11.9871 201.029 11.8674 200.7 11.9123C200.565 11.9123 200.416 11.9422 200.266 12.032C194.145 15.1897 190.838 21.2206 188.788 27.4611C186.573 34.1506 185.42 42.3066 186.438 49.3103C187.77 58.3793 192.888 66.3707 199.637 72.5663C205.16 77.6544 212.044 80.9468 216.967 86.7533C217.521 87.3968 218.613 86.858 218.613 86.0948C218.494 73.1349 217.551 60.0105 215.201 47.2601Z" fill="#FFAA00"/>
<path d="M244.338 3.4269C238.921 0.478759 232.605 -0.0300585 226.619 1.15219C226.245 1.22702 226.036 1.4515 225.961 1.70591C222.339 6.8689 221.815 14.0821 221.292 20.1131C220.454 29.601 220.678 39.1938 221.112 48.6967C221.681 61.5069 222.758 74.347 224.389 87.0824C224.449 87.5912 224.778 88.0252 225.347 88.0252C229.014 88.0252 232.695 88.0252 236.362 88.0252C236.691 88.0252 237.035 87.8456 237.185 87.5613C247.346 68.8847 250.204 46.4219 251.895 25.6053C252.285 20.8614 252.599 16.0875 252.674 11.3285C252.718 8.18584 246.628 4.66902 244.338 3.4269Z" fill="#FFAA00"/>
<path d="M229.089 4.83378C227.368 -5.10312 209.814 2.82844 205.175 6.22554C200.88 9.36823 199.713 12.3313 199.443 17.1352C198.979 25.1266 199.413 33.1629 200.431 41.0945C201.823 51.9891 204.591 62.8389 209.021 72.9404C210.368 76.0233 211.85 79.0313 213.466 81.9794C214.199 83.3113 215.815 87.5614 217.387 87.9805C219.721 88.609 222.909 88.0104 225.333 88.0104C225.812 88.0104 226.111 87.7261 226.216 87.3819C226.261 87.2921 226.291 87.1873 226.291 87.0676C227.802 68.9447 229 50.777 229.628 32.6092C229.942 23.5104 230.661 13.8728 229.089 4.83378Z" fill="#F0FBFF"/>
<path d="M215.815 88.4444C222.923 89.7763 230.421 89.6865 237.514 88.4444C239.549 88.1002 238.681 85.3765 236.661 85.7207C230.166 86.8581 223.177 86.9329 216.668 85.7207C214.647 85.3466 213.794 88.0703 215.815 88.4444Z" fill="#FFAA00"/>
<path d="M203.109 289.173V271.484H210.308C211.265 271.484 212.133 271.723 212.927 272.202C213.72 272.681 214.333 273.34 214.812 274.163C215.276 274.986 215.516 275.914 215.516 276.916C215.516 277.934 215.276 278.847 214.812 279.67C214.333 280.493 213.72 281.151 212.927 281.66C212.148 282.154 211.265 282.408 210.308 282.408H205.833V289.173H203.109ZM205.848 279.775H210.278C210.727 279.775 211.146 279.64 211.52 279.386C211.894 279.131 212.193 278.772 212.418 278.353C212.642 277.919 212.762 277.455 212.762 276.931C212.762 276.407 212.642 275.944 212.418 275.51C212.193 275.091 211.894 274.746 211.52 274.492C211.146 274.237 210.742 274.118 210.278 274.118H205.848V279.775Z" fill="white"/>
<path d="M219.436 289.173L226.29 271.484H229.073L235.867 289.173H232.964L228.923 278.503C228.879 278.383 228.774 278.099 228.639 277.65C228.489 277.201 228.325 276.692 228.145 276.138C227.966 275.584 227.786 275.076 227.636 274.612C227.487 274.148 227.382 273.848 227.337 273.714L227.921 273.684C227.816 273.968 227.696 274.327 227.562 274.776C227.412 275.21 227.262 275.674 227.113 276.168C226.948 276.662 226.798 277.111 226.649 277.545C226.499 277.979 226.364 278.338 226.275 278.622L222.264 289.188H219.436V289.173ZM222.473 284.773L223.491 282.139H231.527L232.695 284.773H222.473Z" fill="white"/>
<path d="M250.16 289.427C248.873 289.427 247.691 289.203 246.568 288.739C245.446 288.275 244.473 287.631 243.635 286.808C242.797 285.985 242.139 285.012 241.675 283.92C241.211 282.827 240.986 281.63 240.986 280.343C240.986 279.086 241.211 277.904 241.675 276.811C242.139 275.719 242.782 274.761 243.62 273.938C244.458 273.115 245.431 272.486 246.538 272.038C247.646 271.589 248.843 271.349 250.13 271.349C251.028 271.349 251.896 271.469 252.749 271.723C253.602 271.978 254.365 272.337 255.054 272.786C255.742 273.235 256.311 273.759 256.745 274.357L254.979 276.198C254.47 275.704 253.961 275.3 253.422 274.986C252.884 274.671 252.345 274.417 251.791 274.252C251.237 274.088 250.684 273.998 250.13 273.998C249.217 273.998 248.379 274.163 247.616 274.477C246.853 274.791 246.179 275.24 245.596 275.824C245.012 276.392 244.563 277.066 244.249 277.829C243.934 278.592 243.77 279.43 243.77 280.343C243.77 281.226 243.934 282.049 244.279 282.827C244.608 283.606 245.087 284.294 245.685 284.893C246.284 285.476 246.972 285.94 247.751 286.284C248.529 286.629 249.367 286.793 250.235 286.793C250.893 286.793 251.522 286.703 252.105 286.509C252.689 286.314 253.213 286.045 253.677 285.686C254.126 285.327 254.485 284.923 254.739 284.459C254.994 283.995 255.113 283.501 255.113 282.977V282.468L255.488 282.827H250.085V280.119H257.912C257.942 280.298 257.972 280.478 257.987 280.657C258.002 280.837 258.017 281.002 258.032 281.166C258.047 281.331 258.047 281.481 258.047 281.63C258.047 282.797 257.837 283.845 257.433 284.803C257.029 285.761 256.475 286.584 255.757 287.272C255.039 287.96 254.201 288.499 253.258 288.873C252.315 289.233 251.282 289.427 250.16 289.427Z" fill="white"/>
<path d="M265.41 289.173V271.484H276.559V274.118H268.149V286.554H276.559V289.188H265.41V289.173ZM266.637 281.421V278.787H275.152V281.421H266.637Z" fill="white"/>
<path d="M295.58 289.173V271.484H298.034L308.854 285.955L308.45 286.18C308.39 285.761 308.33 285.297 308.271 284.803C308.211 284.309 308.181 283.77 308.136 283.216C308.091 282.648 308.061 282.049 308.031 281.421C308.001 280.792 307.986 280.134 307.971 279.43C307.956 278.742 307.941 278.024 307.941 277.275V271.469H310.665V289.158H308.166L297.526 275.21L297.81 274.851C297.9 275.884 297.96 276.751 298.019 277.47C298.079 278.188 298.124 278.787 298.169 279.296C298.214 279.789 298.244 280.193 298.259 280.508C298.274 280.822 298.289 281.076 298.304 281.286C298.319 281.495 298.319 281.66 298.319 281.81V289.158H295.58V289.173Z" fill="white"/>
<path d="M326.798 289.427C325.556 289.427 324.403 289.203 323.356 288.739C322.308 288.29 321.38 287.646 320.602 286.838C319.824 286.015 319.21 285.057 318.776 283.965C318.342 282.857 318.133 281.66 318.133 280.343C318.133 279.026 318.342 277.814 318.776 276.722C319.21 275.629 319.809 274.656 320.602 273.848C321.38 273.025 322.308 272.397 323.356 271.948C324.418 271.499 325.556 271.259 326.798 271.259C328.04 271.259 329.192 271.484 330.255 271.948C331.302 272.397 332.23 273.04 333.008 273.863C333.786 274.686 334.4 275.659 334.819 276.752C335.253 277.859 335.463 279.056 335.463 280.358C335.463 281.66 335.253 282.857 334.819 283.965C334.385 285.072 333.786 286.03 333.008 286.853C332.23 287.676 331.302 288.32 330.255 288.769C329.207 289.203 328.055 289.427 326.798 289.427ZM326.798 286.778C327.651 286.778 328.444 286.614 329.162 286.299C329.88 285.985 330.494 285.521 331.018 284.952C331.542 284.369 331.946 283.695 332.245 282.902C332.544 282.124 332.694 281.271 332.694 280.343C332.694 279.415 332.544 278.562 332.245 277.784C331.946 277.006 331.542 276.318 331.018 275.734C330.494 275.15 329.88 274.701 329.162 274.387C328.444 274.073 327.651 273.908 326.798 273.908C325.945 273.908 325.151 274.073 324.433 274.387C323.715 274.701 323.101 275.15 322.563 275.734C322.039 276.303 321.62 276.991 321.335 277.769C321.051 278.547 320.901 279.415 320.901 280.358C320.901 281.286 321.051 282.139 321.335 282.932C321.62 283.725 322.024 284.414 322.563 284.982C323.101 285.551 323.715 286 324.433 286.329C325.151 286.658 325.945 286.778 326.798 286.778Z" fill="white"/>
<path d="M345.547 289.173V274.118H340.594V271.484H353.374V274.118H348.271V289.173H345.547Z" fill="white"/>
<path d="M371.408 289.173V271.484H374.132V289.173H371.408ZM372.62 274.118V271.484H382.887V274.118H372.62ZM372.62 281.645V279.011H381.749V281.645H372.62Z" fill="white"/>
<path d="M397.583 289.427C396.341 289.427 395.188 289.203 394.141 288.739C393.093 288.29 392.165 287.646 391.387 286.838C390.609 286.015 389.995 285.057 389.561 283.965C389.127 282.857 388.918 281.66 388.918 280.343C388.918 279.026 389.127 277.814 389.561 276.722C389.995 275.629 390.594 274.656 391.387 273.848C392.18 273.04 393.093 272.397 394.141 271.948C395.188 271.499 396.341 271.259 397.583 271.259C398.825 271.259 399.977 271.484 401.025 271.948C402.072 272.397 403 273.04 403.778 273.863C404.557 274.686 405.17 275.659 405.604 276.752C406.038 277.859 406.248 279.056 406.248 280.358C406.248 281.66 406.038 282.857 405.604 283.965C405.17 285.072 404.572 286.03 403.778 286.853C403 287.676 402.072 288.32 401.025 288.769C399.977 289.203 398.825 289.427 397.583 289.427ZM397.583 286.778C398.436 286.778 399.229 286.614 399.947 286.299C400.666 285.985 401.279 285.521 401.803 284.952C402.327 284.369 402.731 283.695 403.03 282.902C403.329 282.109 403.464 281.271 403.464 280.343C403.464 279.415 403.314 278.562 403.03 277.784C402.746 277.006 402.327 276.318 401.803 275.734C401.279 275.15 400.666 274.701 399.947 274.387C399.229 274.073 398.451 273.908 397.583 273.908C396.715 273.908 395.937 274.073 395.218 274.387C394.5 274.701 393.871 275.15 393.348 275.734C392.809 276.303 392.405 276.991 392.12 277.769C391.836 278.547 391.687 279.415 391.687 280.358C391.687 281.286 391.836 282.139 392.12 282.932C392.405 283.725 392.809 284.414 393.348 284.982C393.871 285.551 394.5 286 395.218 286.329C395.937 286.658 396.73 286.778 397.583 286.778Z" fill="white"/>
<path d="M420.599 289.322C419.237 289.322 418.01 289.023 416.933 288.424C415.855 287.826 415.002 287.003 414.389 285.955C413.775 284.908 413.461 283.71 413.461 282.378V271.469H416.185V282.154C416.185 283.007 416.379 283.785 416.783 284.459C417.187 285.147 417.726 285.686 418.385 286.09C419.058 286.494 419.776 286.703 420.569 286.703C421.407 286.703 422.171 286.509 422.859 286.09C423.547 285.686 424.086 285.147 424.49 284.459C424.894 283.77 425.089 283.007 425.089 282.154V271.469H427.693V282.378C427.693 283.71 427.379 284.908 426.765 285.955C426.151 287.003 425.298 287.841 424.221 288.424C423.188 289.023 421.961 289.322 420.599 289.322Z" fill="white"/>
<path d="M436.223 289.173V271.484H438.677L449.497 285.955L449.093 286.18C449.033 285.761 448.973 285.297 448.913 284.803C448.853 284.309 448.823 283.77 448.778 283.216C448.734 282.648 448.704 282.049 448.674 281.421C448.644 280.792 448.629 280.134 448.614 279.43C448.599 278.727 448.584 278.024 448.584 277.275V271.469H451.308V289.158H448.808L438.168 275.21L438.453 274.851C438.527 275.884 438.602 276.751 438.662 277.47C438.722 278.188 438.767 278.787 438.812 279.296C438.857 279.789 438.886 280.193 438.901 280.508C438.916 280.822 438.931 281.076 438.946 281.286C438.961 281.495 438.961 281.66 438.961 281.81V289.158H436.223V289.173Z" fill="white"/>
<path d="M460.047 289.173V271.484H466.976C468.233 271.484 469.385 271.693 470.403 272.112C471.42 272.531 472.288 273.145 473.022 273.938C473.74 274.731 474.309 275.659 474.698 276.737C475.087 277.814 475.281 279.011 475.281 280.328C475.281 281.645 475.087 282.842 474.698 283.935C474.309 285.027 473.755 285.955 473.037 286.733C472.318 287.512 471.45 288.125 470.418 288.544C469.385 288.963 468.248 289.173 466.976 289.173H460.047ZM462.771 286.823L462.696 286.539H466.841C467.739 286.539 468.532 286.389 469.235 286.105C469.939 285.821 470.523 285.416 471.001 284.878C471.48 284.354 471.854 283.695 472.094 282.917C472.348 282.139 472.468 281.271 472.468 280.313C472.468 279.356 472.348 278.488 472.094 277.724C471.839 276.961 471.465 276.303 470.986 275.764C470.508 275.225 469.909 274.806 469.221 274.522C468.532 274.237 467.739 274.088 466.841 274.088H462.621L462.771 273.863V286.823Z" fill="white"/>
<path d="M253.871 250.952V177.263L265.724 177.518L232.785 217.879L229.658 213.973H290.072V232.2H219.766L210.906 215.14L257.388 159.021H275.227V250.937H253.871V250.952Z" fill="white"/>
<path d="M338.485 252.254C330.329 252.254 323.355 250.383 317.594 246.657C311.817 242.93 307.417 237.558 304.379 230.584C301.342 223.595 299.83 215.2 299.83 205.398C299.83 195.595 301.342 187.185 304.379 180.211C307.417 173.222 311.817 167.865 317.594 164.138C323.37 160.412 330.329 158.542 338.485 158.542C346.641 158.542 353.63 160.412 359.451 164.138C365.258 167.865 369.688 173.237 372.726 180.211C375.764 187.2 377.275 195.595 377.275 205.398C377.275 215.215 375.749 223.61 372.726 230.584C369.688 237.573 365.258 242.93 359.451 246.657C353.63 250.383 346.641 252.254 338.485 252.254ZM338.485 233.502C344.127 233.502 348.482 231.078 351.565 226.214C354.648 221.35 356.189 214.407 356.189 205.383C356.189 196.089 354.648 188.951 351.565 183.967C348.482 178.984 344.127 176.485 338.485 176.485C332.843 176.485 328.473 178.984 325.406 183.967C322.323 188.966 320.781 196.104 320.781 205.383C320.781 214.407 322.323 221.35 325.406 226.214C328.488 231.078 332.843 233.502 338.485 233.502Z" fill="white"/>
<path d="M427.932 250.952V177.263L439.784 177.518L406.846 217.879L403.718 213.973H464.133V232.2H393.826L384.967 215.14L431.449 159.021H449.287V250.937H427.932V250.952Z" fill="white"/>
<path d="M292.362 138.323C290.222 138.323 288.276 137.964 286.496 137.246C284.73 136.528 283.188 135.51 281.886 134.193C280.569 132.876 279.567 131.35 278.833 129.584C278.115 127.818 277.756 125.872 277.756 123.762C277.756 121.652 278.115 119.707 278.833 117.941C279.552 116.175 280.569 114.634 281.886 113.332C283.203 112.015 284.73 110.997 286.496 110.279C288.261 109.56 290.207 109.201 292.317 109.201C294.427 109.201 296.373 109.56 298.138 110.279C299.904 110.997 301.446 112.015 302.748 113.332C304.065 114.649 305.067 116.175 305.771 117.941C306.474 119.707 306.833 121.652 306.833 123.762C306.833 125.842 306.474 127.788 305.771 129.569C305.067 131.35 304.05 132.891 302.748 134.208C301.431 135.525 299.904 136.543 298.138 137.261C296.373 137.964 294.457 138.323 292.362 138.323ZM292.332 131.903C293.424 131.903 294.442 131.709 295.355 131.305C296.283 130.901 297.076 130.332 297.764 129.599C298.453 128.865 298.977 127.997 299.351 127.01C299.725 126.022 299.919 124.93 299.919 123.762C299.919 122.595 299.74 121.503 299.351 120.515C298.977 119.527 298.453 118.659 297.764 117.926C297.076 117.193 296.283 116.624 295.355 116.22C294.427 115.816 293.424 115.621 292.332 115.621C291.239 115.621 290.222 115.816 289.309 116.22C288.381 116.624 287.573 117.193 286.885 117.926C286.196 118.659 285.657 119.527 285.298 120.515C284.939 121.503 284.76 122.595 284.76 123.762C284.76 124.93 284.939 126.037 285.298 127.04C285.657 128.042 286.181 128.91 286.885 129.629C287.573 130.347 288.396 130.916 289.309 131.32C290.222 131.709 291.225 131.903 292.332 131.903Z" fill="#FFAA00"/>
<path d="M323.504 138.323C321.289 138.323 319.313 137.845 317.577 136.872C315.856 135.914 314.495 134.597 313.477 132.936C312.474 131.275 311.98 129.374 311.98 127.234C311.98 125.094 312.474 123.194 313.477 121.532C314.48 119.871 315.842 118.569 317.577 117.597C319.298 116.639 321.274 116.145 323.504 116.145C325.733 116.145 327.694 116.624 329.43 117.597C331.151 118.554 332.513 119.871 333.5 121.532C334.488 123.194 334.982 125.094 334.982 127.234C334.982 129.374 334.488 131.275 333.5 132.936C332.513 134.597 331.151 135.899 329.43 136.872C327.694 137.845 325.733 138.323 323.504 138.323ZM323.504 132.786C324.461 132.786 325.329 132.547 326.078 132.068C326.826 131.589 327.41 130.931 327.844 130.108C328.278 129.284 328.472 128.327 328.442 127.264C328.472 126.202 328.263 125.244 327.844 124.391C327.425 123.538 326.826 122.879 326.078 122.4C325.329 121.922 324.476 121.682 323.504 121.682C322.546 121.682 321.678 121.922 320.915 122.4C320.151 122.879 319.553 123.538 319.134 124.391C318.7 125.229 318.505 126.187 318.535 127.264C318.505 128.342 318.715 129.284 319.134 130.108C319.568 130.931 320.151 131.589 320.915 132.068C321.678 132.547 322.546 132.786 323.504 132.786Z" fill="#FFAA00"/>
<path d="M341.209 146.749V116.609H347.315L347.554 121.383L346.357 121.024C346.537 120.141 347.001 119.333 347.719 118.614C348.437 117.896 349.365 117.312 350.472 116.864C351.58 116.415 352.747 116.205 353.989 116.205C355.815 116.205 357.431 116.684 358.853 117.627C360.275 118.57 361.382 119.872 362.205 121.518C363.013 123.164 363.432 125.064 363.432 127.234C363.432 129.374 363.028 131.275 362.205 132.936C361.382 134.597 360.26 135.899 358.838 136.842C357.401 137.785 355.77 138.264 353.914 138.264C352.717 138.264 351.565 138.039 350.457 137.575C349.365 137.126 348.437 136.513 347.689 135.735C346.941 134.956 346.447 134.118 346.207 133.206L347.689 132.637V146.719H341.209V146.749ZM352.328 132.876C353.286 132.876 354.139 132.637 354.857 132.173C355.576 131.709 356.144 131.051 356.548 130.227C356.952 129.404 357.147 128.402 357.147 127.264C357.147 126.142 356.952 125.154 356.548 124.316C356.144 123.478 355.591 122.82 354.887 122.356C354.184 121.892 353.331 121.652 352.343 121.652C351.355 121.652 350.502 121.877 349.784 122.341C349.066 122.805 348.497 123.448 348.093 124.301C347.689 125.154 347.494 126.142 347.494 127.264C347.494 128.417 347.689 129.404 348.093 130.227C348.497 131.051 349.051 131.709 349.784 132.173C350.472 132.637 351.34 132.876 352.328 132.876Z" fill="#FFAA00"/>
<path d="M376.84 138.323C374.759 138.323 372.919 137.994 371.317 137.321C369.731 136.647 368.459 135.749 367.531 134.627L371.422 131.26C372.245 132.083 373.188 132.696 374.236 133.085C375.283 133.475 376.271 133.669 377.199 133.669C377.573 133.669 377.902 133.624 378.201 133.549C378.501 133.475 378.74 133.355 378.95 133.205C379.144 133.056 379.309 132.891 379.414 132.681C379.518 132.487 379.578 132.247 379.578 131.978C379.578 131.439 379.339 131.035 378.86 130.736C378.62 130.601 378.216 130.437 377.663 130.257C377.094 130.077 376.376 129.853 375.493 129.614C374.236 129.299 373.143 128.91 372.215 128.476C371.288 128.042 370.539 127.518 369.956 126.935C369.417 126.366 369.013 125.753 368.714 125.064C368.414 124.376 368.28 123.613 368.28 122.759C368.28 121.772 368.519 120.874 368.983 120.066C369.447 119.258 370.075 118.569 370.869 117.986C371.662 117.402 372.56 116.953 373.592 116.639C374.625 116.324 375.687 116.175 376.78 116.175C377.962 116.175 379.084 116.309 380.147 116.579C381.209 116.848 382.212 117.222 383.14 117.701C384.068 118.18 384.891 118.764 385.609 119.422L382.242 123.193C381.763 122.745 381.224 122.326 380.611 121.966C380.012 121.607 379.384 121.323 378.74 121.098C378.097 120.889 377.513 120.784 376.974 120.784C376.57 120.784 376.211 120.814 375.912 120.889C375.598 120.949 375.343 121.068 375.134 121.203C374.924 121.353 374.759 121.517 374.655 121.727C374.55 121.921 374.49 122.161 374.49 122.43C374.49 122.7 374.565 122.954 374.715 123.193C374.864 123.433 375.074 123.627 375.343 123.792C375.612 123.957 376.031 124.136 376.63 124.331C377.214 124.525 378.022 124.78 379.039 125.079C380.297 125.423 381.374 125.812 382.287 126.246C383.2 126.68 383.918 127.189 384.457 127.773C384.891 128.222 385.205 128.761 385.415 129.359C385.624 129.958 385.729 130.616 385.729 131.305C385.729 132.666 385.34 133.879 384.577 134.941C383.813 136.004 382.766 136.827 381.434 137.425C380.072 138.024 378.561 138.323 376.84 138.323Z" fill="#FFAA00"/>
<path d="M394.859 138.368C393.767 138.368 392.914 138.054 392.285 137.44C391.672 136.827 391.357 135.944 391.357 134.791C391.357 133.729 391.672 132.846 392.315 132.188C392.959 131.514 393.797 131.185 394.844 131.185C395.937 131.185 396.79 131.499 397.388 132.128C397.987 132.756 398.286 133.639 398.286 134.791C398.286 135.839 397.972 136.692 397.329 137.365C396.715 138.039 395.877 138.368 394.859 138.368ZM392.854 127.698C392.644 126.067 392.42 124.376 392.21 122.64C392.001 120.904 391.821 119.183 391.687 117.462C391.552 115.756 391.492 114.11 391.492 112.523V109.396H398.271V112.523C398.271 114.125 398.211 115.801 398.077 117.537C397.942 119.273 397.763 121.009 397.553 122.73C397.343 124.451 397.119 126.112 396.865 127.683H392.854V127.698Z" fill="#FFAA00"/>
</g>
<defs>
<clipPath id="clip0_1197_7314">
<rect width="636.695" height="600" fill="white"/>
</clipPath>
</defs>
</svg>
