<svg width="637" height="600" viewBox="0 0 637 600" fill="none" xmlns="http://www.w3.org/2000/svg">
<g clip-path="url(#clip0_1777_6902)">
<path d="M341.75 24.0792C310.144 23.7799 118.694 20.8168 113.067 74.1678C107.664 125.259 181.847 106.552 182.58 129.225C183.343 153.049 169.201 159.933 129.708 158.422C112.603 157.763 58.5935 163.824 57.7255 197.915C56.8725 231.826 117.182 227.546 114.189 255.666C112.453 287.632 66.6598 294.59 48.6117 303.046C29.0073 313.297 -7.0738 330.207 1.21692 366.498C12.1266 408.58 81.4155 401.008 107.515 406.201C124.949 409.029 180.365 413.923 172.479 451.216C168.333 473.634 122.839 474.936 131.534 503.684C140.333 530.562 219.664 535.874 235.737 536.757C302.452 540.364 448.931 546.26 514.179 518.739C538.169 508.727 559.344 496.665 556.89 460.689C555.693 428.559 538.363 423.86 567.56 399.033C586.012 383.05 621.33 384.337 619.235 337.705C618.113 312.549 553.747 302.103 555.184 275.764C557.429 234.385 636.43 269.524 636.714 196.344C636.894 150.67 493.168 176.216 494.635 131.036C492.704 112.703 524.326 104.921 522.979 84.6135C523.712 52.124 486.479 28.075 341.75 24.0792Z" fill="#3FADFC"/>
<path d="M216.343 355.424C216.193 355.513 215.998 355.573 215.774 355.573C179.094 355.573 142.415 355.573 105.735 355.573C105.241 355.573 104.762 355.229 104.642 354.75C103.445 349.512 109.491 345.412 113.577 347.417C114.145 344.753 116.794 342.928 119.533 343.257C118.021 338.483 120.116 333.649 125.13 331.315C129.739 329.175 134.049 330.94 136.788 334.427C138.359 326.331 145.348 319.327 153.863 318.729C158.487 318.415 163.381 319.717 166.987 322.754C170.579 325.762 171.746 329.07 172.644 333.125C175.338 329.264 179.678 327.439 184.691 328.995C189.63 330.521 190.258 335.565 190.034 340.099C194.015 336.792 198.803 335.191 203.996 338.318C208.306 340.907 209.249 345.083 209.414 349.617C212.961 347.507 216.627 349.602 216.911 354.451C216.926 354.945 216.687 355.274 216.343 355.424Z" fill="#F0FBFF"/>
<path d="M523.293 127.384C523.293 148.47 580.52 152.361 583.483 127.384C586.461 102.392 523.293 95.7176 523.293 127.384Z" fill="#3FADFC"/>
<path d="M61.2715 451.815C61.2715 472.916 132.087 476.986 134.661 451.815C137.819 420.777 61.2715 414.88 61.2715 451.815Z" fill="#3FADFC"/>
<path d="M474.012 570.803C474.012 595.825 557.996 600.658 561.049 570.803C564.791 534.003 474.012 527 474.012 570.803Z" fill="#3FADFC"/>
<path d="M55.2871 128.865C55.2871 142.633 94.3164 145.297 95.7381 128.865C97.474 108.603 55.2871 104.756 55.2871 128.865Z" fill="#3FADFC"/>
<path d="M278.97 374.145C280.138 368.294 271.473 362.906 264.798 365.061C265.891 361.051 264.649 357.399 258.722 355.603C256.253 354.855 253.29 354.87 250.686 355.573C255.355 346.265 251.015 335.67 236.589 333.485C220.905 331.105 203.501 338.797 200.388 351.188C187.638 338.648 160.61 353.673 168.587 368.099C163.663 367.321 158.575 370.105 158.276 374.25C153.292 372.559 149.357 377.647 152.439 382.017C152.664 382.331 153.128 382.541 153.577 382.541C197.949 382.541 242.335 382.541 286.707 382.541C287.051 382.541 287.321 382.451 287.515 382.331C287.725 382.211 287.889 382.032 287.979 381.777C289.491 377.437 283.909 373.352 278.97 374.145Z" fill="white"/>
<path d="M280.347 473.439C280.871 470.85 277.025 468.471 274.077 469.428C274.556 467.648 274.017 466.046 271.398 465.253C270.306 464.924 269.004 464.924 267.851 465.238C269.917 461.123 267.986 456.439 261.611 455.466C254.682 454.403 246.975 457.815 245.598 463.293C239.956 457.741 228.014 464.385 231.531 470.775C229.346 470.431 227.101 471.658 226.966 473.499C224.767 472.751 223.016 474.996 224.392 476.941C224.497 477.076 224.692 477.165 224.901 477.165C244.521 477.165 264.14 477.165 283.774 477.165C283.924 477.165 284.044 477.136 284.134 477.076C284.223 477.016 284.298 476.941 284.343 476.821C285.002 474.906 282.532 473.095 280.347 473.439Z" fill="white"/>
<path d="M517.995 233.412C518.115 233.487 518.25 233.532 518.429 233.532C545.711 233.532 572.992 233.532 600.289 233.532C600.648 233.532 601.022 233.278 601.097 232.919C601.995 229.028 597.49 225.975 594.452 227.456C594.018 225.481 592.058 224.119 590.023 224.373C591.145 220.827 589.589 217.22 585.862 215.499C582.435 213.898 579.233 215.215 577.198 217.819C576.03 211.788 570.822 206.58 564.492 206.146C561.05 205.906 557.414 206.879 554.735 209.139C552.056 211.384 551.188 213.838 550.53 216.846C548.524 213.973 545.292 212.626 541.565 213.778C537.884 214.915 537.42 218.672 537.6 222.039C534.637 219.585 531.075 218.387 527.214 220.707C524.011 222.637 523.308 225.735 523.173 229.102C520.539 227.531 517.816 229.087 517.591 232.694C517.561 233.053 517.741 233.293 517.995 233.412Z" fill="white"/>
<path d="M304.637 86.4242C304.712 86.4691 304.817 86.499 304.922 86.499C323.359 86.499 341.796 86.499 360.233 86.499C360.472 86.499 360.727 86.3344 360.787 86.08C361.4 83.4461 358.347 81.3809 356.297 82.3985C356.013 81.0666 354.681 80.1388 353.304 80.3034C354.067 77.909 353.02 75.4697 350.491 74.3024C348.171 73.2249 346.016 74.1078 344.639 75.8737C343.846 71.8032 340.329 68.2864 336.049 67.9871C333.73 67.8224 331.26 68.4809 329.45 70.0074C327.639 71.5188 327.055 73.18 326.606 75.2152C325.259 73.2698 323.074 72.3569 320.56 73.1351C318.076 73.8983 317.762 76.4424 317.881 78.7171C315.876 77.056 313.482 76.2478 310.863 77.8192C308.693 79.1212 308.229 81.2163 308.139 83.491C306.358 82.4285 304.518 83.491 304.368 85.9154C304.338 86.1847 304.458 86.3494 304.637 86.4242Z" fill="white"/>
<path d="M435.971 515.072C435.687 531.998 435.088 548.923 434.863 565.834C434.848 566.657 436.135 566.657 436.15 565.834C436.375 548.923 436.988 531.983 437.258 515.072C437.273 514.249 435.986 514.249 435.971 515.072Z" fill="#FFAA00"/>
<path d="M388.456 514.788C388.979 531.923 389.204 548.998 391 566.059C391.089 566.867 392.376 566.882 392.287 566.059C390.491 548.998 390.266 531.923 389.743 514.788C389.713 513.965 388.426 513.965 388.456 514.788Z" fill="#FFAA00"/>
<path d="M411.637 517.661C413.073 534.931 411.278 552.261 412.774 569.53C412.849 570.354 414.136 570.354 414.061 569.53C412.55 552.261 414.36 534.931 412.924 517.661C412.864 516.838 411.577 516.823 411.637 517.661Z" fill="#FFAA00"/>
<path d="M435.671 566.373C435.671 566.163 435.596 565.984 435.506 565.849C435.356 565.535 435.057 565.295 434.593 565.31C420.66 565.535 406.743 565.759 392.81 565.984C392.242 565.999 391.718 566.463 391.733 567.061C392.062 575.112 391.389 583.418 392.72 591.395C393.963 598.832 402.119 599.401 408.419 599.76C416.5 600.224 428.023 600.508 432.663 596.243C438.05 591.275 435.955 574.259 435.671 566.373Z" fill="#FFAA00"/>
<path d="M399.006 582.101C392.691 582.101 391.239 576.145 391.224 576.085C391.149 575.741 391.359 575.397 391.703 575.322C392.062 575.247 392.391 575.457 392.481 575.801C392.541 576.041 394.008 581.892 400.862 580.65C405.426 579.827 405.77 570.264 405.77 570.174C405.785 569.86 406.025 569.591 406.339 569.561C406.638 569.516 406.953 569.71 407.042 570.025C407.162 570.444 407.282 570.982 407.431 571.596C407.955 573.916 408.763 577.402 410.424 578.869C412.52 580.695 417.323 580.919 419.793 579.812C422.367 578.809 423.609 575.202 423.519 571.94C423.459 571.476 423.414 570.982 423.384 570.503C423.369 570.159 423.624 569.875 423.968 569.845C424.297 569.815 424.611 570.054 424.671 570.384C424.746 570.863 424.791 571.341 424.806 571.82C425.345 575.322 427.395 578.24 430.014 579.034C432.094 579.647 434.099 578.764 435.686 576.549C435.895 576.265 436.299 576.19 436.584 576.4C436.868 576.609 436.943 577.013 436.733 577.298C434.833 579.961 432.244 581.054 429.655 580.261C427.44 579.602 425.599 577.747 424.492 575.292C423.893 577.881 422.501 580.156 420.316 581.009C417.458 582.281 412.131 582.057 409.601 579.842C408.09 578.525 407.237 576.056 406.668 573.856C406.07 577.058 404.603 581.293 401.131 581.922C400.338 582.042 399.649 582.101 399.006 582.101Z" fill="#FFC655"/>
<path d="M412.744 562.482C408.315 562.482 393.29 562.677 391.644 566.074C389.444 570.833 413.897 570.459 418.626 570.309C440.999 569.561 443.678 561.36 412.744 562.482Z" fill="#BF7F00"/>
<path d="M412.744 561.629C410.185 561.629 388.725 561.255 390.685 567.061C391.643 569.89 396.177 570.144 398.587 570.488C403.899 571.222 409.317 571.252 414.674 571.237C419.418 571.207 424.147 570.967 428.831 570.129C430.926 569.755 435.461 569.037 436.389 566.597C438.783 560.312 414.45 561.569 412.744 561.629C411.636 561.659 411.636 563.38 412.744 563.35C417.637 563.2 422.501 563.2 427.38 563.664C428.233 563.754 436.748 564.891 433.964 566.702C428.816 570.069 420.585 569.471 414.689 569.516C408.104 569.575 401.071 569.695 394.681 567.989C391.583 567.166 393.678 565.37 395.728 564.772C397.883 564.143 400.188 563.949 402.403 563.739C405.83 563.41 409.302 563.35 412.759 563.335C413.851 563.335 413.851 561.614 412.744 561.629Z" fill="#FFC655"/>
<path d="M502.251 367.65C496.849 353.957 486.897 340.323 471.318 337.51C471.198 337.495 471.094 337.495 470.989 337.48C470.899 337.465 470.824 337.435 470.734 337.435C459.106 336.253 452.342 347.851 448.242 356.725C440.864 372.768 437.631 390.741 434.728 407.981C429.041 441.907 423.175 479.081 433.127 512.708C433.666 514.563 436.15 514.803 437.182 513.231C447.823 496.875 469.777 491.278 483.814 478.228C498.48 464.595 505.933 444.661 508.312 425.371C510.751 405.706 509.584 386.252 502.251 367.65Z" fill="#F0FBFF"/>
<path d="M386.45 422.528C381.287 394.617 369.091 366.707 355.023 341.97C354.53 341.117 353.736 340.832 352.973 340.937C352.659 340.952 352.33 341.027 351.985 341.192C337.843 348.465 330.241 362.397 325.482 376.794C320.364 392.238 317.685 411.064 320.065 427.227C323.132 448.148 334.955 466.63 350.534 480.922C363.284 492.654 379.162 500.242 390.566 513.651C391.838 515.147 394.367 513.89 394.352 512.109C394.038 482.239 391.898 451.949 386.45 422.528Z" fill="#FFAA00"/>
<path d="M453.72 321.333C441.224 314.509 426.618 313.356 412.805 316.095C411.952 316.26 411.473 316.768 411.293 317.382C402.943 329.294 401.715 345.95 400.503 359.883C398.573 381.792 399.097 403.926 400.069 425.865C401.386 455.436 403.87 485.082 407.642 514.459C407.791 515.626 408.54 516.629 409.856 516.629C418.327 516.629 426.797 516.629 435.282 516.629C436.031 516.629 436.839 516.225 437.198 515.551C460.663 472.451 467.233 420.612 471.169 372.559C472.067 361.604 472.785 350.605 472.965 339.62C473.07 332.347 459.017 324.221 453.72 321.333Z" fill="#FFAA00"/>
<path d="M418.52 324.595C414.539 301.653 374.044 319.956 363.328 327.798C353.421 335.041 350.743 341.895 350.099 352.969C349.037 371.421 350.039 389.978 352.374 408.296C355.591 433.452 361.967 458.489 372.203 481.82C375.316 488.928 378.728 495.872 382.469 502.681C384.16 505.764 387.901 515.551 391.538 516.539C396.91 517.99 404.288 516.614 409.855 516.614C410.963 516.614 411.636 515.955 411.891 515.162C411.98 514.953 412.055 514.713 412.07 514.444C415.572 472.616 418.341 430.683 419.777 388.736C420.496 367.695 422.142 345.472 418.52 324.595Z" fill="#F0FBFF"/>
<path d="M387.872 517.587C404.273 520.64 421.588 520.445 437.975 517.587C442.659 516.778 440.669 510.493 436 511.316C420.99 513.92 404.872 514.115 389.847 511.316C385.178 510.433 383.202 516.719 387.872 517.587Z" fill="#FFAA00"/>
<path d="M236.664 87.3519C236.545 94.6848 236.275 102.018 236.186 109.351C236.186 109.71 236.739 109.71 236.739 109.351C236.844 102.018 237.098 94.6848 237.233 87.3519C237.218 86.9927 236.664 86.9927 236.664 87.3519Z" fill="#FFAA00"/>
<path d="M216.073 87.2323C216.297 94.655 216.402 102.048 217.18 109.441C217.21 109.8 217.779 109.8 217.734 109.441C216.956 102.048 216.866 94.655 216.626 87.2323C216.611 86.8731 216.058 86.8731 216.073 87.2323Z" fill="#FFAA00"/>
<path d="M226.114 88.4745C226.743 95.9571 225.95 103.47 226.608 110.952C226.638 111.311 227.192 111.311 227.162 110.952C226.504 103.47 227.297 95.9571 226.668 88.4745C226.638 88.1153 226.085 88.1153 226.114 88.4745Z" fill="#FFAA00"/>
<path d="M236.531 109.575C236.531 109.485 236.501 109.411 236.456 109.351C236.381 109.216 236.261 109.111 236.067 109.111C230.036 109.216 224.005 109.306 217.959 109.411C217.719 109.411 217.48 109.62 217.495 109.875C217.644 113.361 217.345 116.953 217.929 120.41C218.468 123.628 221.999 123.882 224.723 124.032C228.225 124.241 233.223 124.361 235.229 122.505C237.548 120.365 236.65 113.002 236.531 109.575Z" fill="#FFAA00"/>
<path d="M220.652 116.4C217.914 116.4 217.285 113.826 217.285 113.796C217.255 113.646 217.345 113.496 217.495 113.466C217.644 113.436 217.794 113.526 217.824 113.676C217.854 113.781 218.482 116.31 221.46 115.771C223.436 115.412 223.585 111.281 223.585 111.237C223.585 111.102 223.69 110.982 223.825 110.967C223.96 110.952 224.094 111.027 224.124 111.162C224.169 111.341 224.229 111.581 224.289 111.85C224.513 112.853 224.857 114.364 225.591 115.008C226.504 115.801 228.584 115.891 229.646 115.412C230.754 114.978 231.307 113.422 231.263 112C231.233 111.79 231.218 111.581 231.203 111.371C231.203 111.222 231.307 111.102 231.457 111.087C231.592 111.072 231.741 111.177 231.756 111.326C231.786 111.536 231.801 111.73 231.816 111.955C232.056 113.466 232.939 114.738 234.076 115.083C234.974 115.352 235.842 114.963 236.53 114.005C236.62 113.885 236.8 113.856 236.919 113.945C237.039 114.035 237.069 114.215 236.979 114.334C236.156 115.487 235.034 115.966 233.911 115.621C232.954 115.337 232.145 114.529 231.667 113.466C231.412 114.589 230.799 115.577 229.856 115.936C228.614 116.489 226.309 116.385 225.217 115.427C224.558 114.858 224.199 113.781 223.945 112.838C223.675 114.23 223.047 116.055 221.535 116.34C221.221 116.37 220.922 116.4 220.652 116.4Z" fill="#FFC655"/>
<path d="M226.593 107.899C224.678 107.899 218.168 107.989 217.45 109.455C216.492 111.521 227.087 111.356 229.138 111.296C238.835 110.967 239.987 107.405 226.593 107.899Z" fill="#6B7D7E"/>
<path d="M226.595 107.525C225.487 107.525 216.194 107.36 217.032 109.874C217.451 111.102 219.411 111.206 220.459 111.356C222.764 111.67 225.113 111.685 227.433 111.685C229.483 111.67 231.533 111.566 233.568 111.206C234.481 111.042 236.442 110.727 236.846 109.68C237.878 106.956 227.328 107.495 226.595 107.525C226.116 107.54 226.116 108.288 226.595 108.273C228.705 108.213 230.83 108.198 232.94 108.408C233.314 108.453 236.995 108.932 235.798 109.725C233.568 111.176 230.007 110.922 227.448 110.952C224.589 110.982 221.551 111.027 218.783 110.293C217.451 109.934 218.349 109.156 219.232 108.902C220.16 108.632 221.162 108.543 222.12 108.453C223.602 108.303 225.113 108.288 226.61 108.273C227.074 108.258 227.074 107.525 226.595 107.525Z" fill="#FFC655"/>
<path d="M265.368 23.4955C263.034 17.5692 258.724 11.658 251.959 10.4308C251.915 10.4159 251.87 10.4159 251.81 10.4159C251.765 10.4159 251.735 10.4009 251.705 10.3859C246.662 9.87712 243.729 14.8905 241.963 18.7515C238.775 25.6953 237.368 33.4773 236.111 40.9599C233.657 55.6557 231.113 71.7582 235.423 86.3344C235.662 87.1275 236.74 87.2472 237.174 86.5588C241.783 79.4803 251.301 77.041 257.377 71.3991C263.737 65.4878 266.955 56.8529 267.987 48.5023C269.05 39.9722 268.556 31.5467 265.368 23.4955Z" fill="#F0FBFF"/>
<path d="M215.205 47.2601C212.96 35.1682 207.693 23.0763 201.587 12.3612C201.377 11.9871 201.033 11.8674 200.704 11.9123C200.569 11.9123 200.42 11.9422 200.27 12.032C194.149 15.1897 190.842 21.2206 188.792 27.4611C186.577 34.1506 185.424 42.3066 186.442 49.3103C187.774 58.3793 192.892 66.3707 199.641 72.5663C205.163 77.6544 212.047 80.9468 216.971 86.7533C217.525 87.3968 218.617 86.858 218.617 86.0948C218.497 73.1349 217.555 60.0105 215.205 47.2601Z" fill="#FFAA00"/>
<path d="M244.342 3.4269C238.924 0.478759 232.609 -0.0300585 226.623 1.15219C226.249 1.22702 226.039 1.4515 225.965 1.70591C222.343 6.8689 221.819 14.0821 221.295 20.1131C220.457 29.601 220.682 39.1938 221.116 48.6967C221.685 61.5069 222.762 74.347 224.393 87.0824C224.453 87.5912 224.782 88.0252 225.351 88.0252C229.018 88.0252 232.699 88.0252 236.365 88.0252C236.695 88.0252 237.039 87.8456 237.189 87.5613C247.35 68.8847 250.208 46.4219 251.899 25.6053C252.288 20.8614 252.603 16.0875 252.678 11.3285C252.722 8.18584 246.632 4.66902 244.342 3.4269Z" fill="#FFAA00"/>
<path d="M229.093 4.83378C227.372 -5.10312 209.818 2.82844 205.179 6.22554C200.884 9.36823 199.717 12.3313 199.447 17.1352C198.983 25.1266 199.417 33.1629 200.435 41.0945C201.827 51.9891 204.595 62.8389 209.025 72.9404C210.372 76.0233 211.853 79.0313 213.47 81.9794C214.203 83.3113 215.819 87.5614 217.391 87.9805C219.725 88.609 222.913 88.0104 225.337 88.0104C225.816 88.0104 226.115 87.7261 226.22 87.3819C226.265 87.2921 226.295 87.1873 226.295 87.0676C227.806 68.9447 229.004 50.777 229.632 32.6092C229.946 23.5104 230.665 13.8728 229.093 4.83378Z" fill="#F0FBFF"/>
<path d="M215.818 88.4444C222.927 89.7763 230.424 89.6865 237.518 88.4444C239.553 88.1002 238.685 85.3765 236.665 85.7207C230.17 86.8581 223.181 86.9329 216.671 85.7207C214.651 85.3466 213.798 88.0703 215.818 88.4444Z" fill="#FFAA00"/>
<path d="M292.366 138.323C290.226 138.323 288.28 137.964 286.499 137.246C284.734 136.528 283.192 135.51 281.89 134.193C280.573 132.876 279.571 131.35 278.837 129.584C278.119 127.818 277.76 125.872 277.76 123.762C277.76 121.652 278.119 119.707 278.837 117.941C279.556 116.175 280.573 114.634 281.89 113.332C283.207 112.015 284.734 110.997 286.499 110.279C288.265 109.56 290.211 109.201 292.321 109.201C294.431 109.201 296.376 109.56 298.142 110.279C299.908 110.997 301.45 112.015 302.752 113.332C304.069 114.649 305.071 116.175 305.775 117.941C306.478 119.707 306.837 121.652 306.837 123.762C306.837 125.842 306.478 127.788 305.775 129.569C305.071 131.35 304.054 132.891 302.752 134.208C301.435 135.525 299.908 136.543 298.142 137.261C296.376 137.964 294.461 138.323 292.366 138.323ZM292.336 131.903C293.428 131.903 294.446 131.709 295.359 131.305C296.287 130.901 297.08 130.332 297.768 129.599C298.457 128.865 298.98 127.997 299.355 127.01C299.729 126.022 299.923 124.93 299.923 123.762C299.923 122.595 299.744 121.503 299.355 120.515C298.98 119.527 298.457 118.659 297.768 117.926C297.08 117.193 296.287 116.624 295.359 116.22C294.431 115.816 293.428 115.621 292.336 115.621C291.243 115.621 290.226 115.816 289.313 116.22C288.385 116.624 287.577 117.193 286.889 117.926C286.2 118.659 285.661 119.527 285.302 120.515C284.943 121.503 284.763 122.595 284.763 123.762C284.763 124.93 284.943 126.037 285.302 127.04C285.661 128.042 286.185 128.91 286.889 129.629C287.577 130.347 288.4 130.916 289.313 131.32C290.226 131.709 291.228 131.903 292.336 131.903Z" fill="#FFAA00"/>
<path d="M323.508 138.323C321.293 138.323 319.317 137.845 317.581 136.872C315.86 135.914 314.499 134.597 313.481 132.936C312.478 131.275 311.984 129.374 311.984 127.234C311.984 125.094 312.478 123.194 313.481 121.532C314.484 119.871 315.845 118.569 317.581 117.597C319.302 116.639 321.278 116.145 323.508 116.145C325.737 116.145 327.698 116.624 329.434 117.597C331.155 118.554 332.517 119.871 333.504 121.532C334.492 123.194 334.986 125.094 334.986 127.234C334.986 129.374 334.492 131.275 333.504 132.936C332.517 134.597 331.155 135.899 329.434 136.872C327.698 137.845 325.737 138.323 323.508 138.323ZM323.508 132.786C324.465 132.786 325.333 132.547 326.082 132.068C326.83 131.589 327.414 130.931 327.848 130.108C328.281 129.284 328.476 128.327 328.446 127.264C328.476 126.202 328.267 125.244 327.848 124.391C327.428 123.538 326.83 122.879 326.082 122.4C325.333 121.922 324.48 121.682 323.508 121.682C322.55 121.682 321.682 121.922 320.919 122.4C320.155 122.879 319.557 123.538 319.138 124.391C318.704 125.229 318.509 126.187 318.539 127.264C318.509 128.342 318.719 129.284 319.138 130.108C319.572 130.931 320.155 131.589 320.919 132.068C321.682 132.547 322.55 132.786 323.508 132.786Z" fill="#FFAA00"/>
<path d="M341.213 146.749V116.609H347.319L347.558 121.383L346.361 121.024C346.541 120.141 347.004 119.333 347.723 118.614C348.441 117.896 349.369 117.312 350.476 116.864C351.584 116.415 352.751 116.205 353.993 116.205C355.819 116.205 357.435 116.684 358.857 117.627C360.279 118.57 361.386 119.872 362.209 121.518C363.017 123.164 363.436 125.064 363.436 127.234C363.436 129.374 363.032 131.275 362.209 132.936C361.386 134.597 360.264 135.899 358.842 136.842C357.405 137.785 355.774 138.264 353.918 138.264C352.721 138.264 351.569 138.039 350.461 137.575C349.369 137.126 348.441 136.513 347.693 135.735C346.945 134.956 346.451 134.118 346.211 133.206L347.693 132.637V146.719H341.213V146.749ZM352.332 132.876C353.29 132.876 354.143 132.637 354.861 132.173C355.579 131.709 356.148 131.051 356.552 130.227C356.956 129.404 357.151 128.402 357.151 127.264C357.151 126.142 356.956 125.154 356.552 124.316C356.148 123.478 355.594 122.82 354.891 122.356C354.188 121.892 353.335 121.652 352.347 121.652C351.359 121.652 350.506 121.877 349.788 122.341C349.07 122.805 348.501 123.448 348.097 124.301C347.693 125.154 347.498 126.142 347.498 127.264C347.498 128.417 347.693 129.404 348.097 130.227C348.501 131.051 349.055 131.709 349.788 132.173C350.476 132.637 351.344 132.876 352.332 132.876Z" fill="#FFAA00"/>
<path d="M376.844 138.323C374.763 138.323 372.923 137.994 371.321 137.321C369.735 136.647 368.463 135.749 367.535 134.627L371.426 131.26C372.249 132.083 373.192 132.696 374.24 133.085C375.287 133.475 376.275 133.669 377.203 133.669C377.577 133.669 377.906 133.624 378.205 133.549C378.505 133.475 378.744 133.355 378.954 133.205C379.148 133.056 379.313 132.891 379.418 132.681C379.522 132.487 379.582 132.247 379.582 131.978C379.582 131.439 379.343 131.035 378.864 130.736C378.624 130.601 378.22 130.437 377.667 130.257C377.098 130.077 376.38 129.853 375.497 129.614C374.24 129.299 373.147 128.91 372.219 128.476C371.291 128.042 370.543 127.518 369.96 126.935C369.421 126.366 369.017 125.753 368.717 125.064C368.418 124.376 368.283 123.613 368.283 122.759C368.283 121.772 368.523 120.874 368.987 120.066C369.451 119.258 370.079 118.569 370.872 117.986C371.666 117.402 372.563 116.953 373.596 116.639C374.629 116.324 375.691 116.175 376.784 116.175C377.966 116.175 379.088 116.309 380.151 116.579C381.213 116.848 382.216 117.222 383.144 117.701C384.072 118.18 384.895 118.764 385.613 119.422L382.246 123.193C381.767 122.745 381.228 122.326 380.615 121.966C380.016 121.607 379.388 121.323 378.744 121.098C378.101 120.889 377.517 120.784 376.978 120.784C376.574 120.784 376.215 120.814 375.916 120.889C375.601 120.949 375.347 121.068 375.137 121.203C374.928 121.353 374.763 121.517 374.659 121.727C374.554 121.921 374.494 122.161 374.494 122.43C374.494 122.7 374.569 122.954 374.718 123.193C374.868 123.433 375.078 123.627 375.347 123.792C375.616 123.957 376.035 124.136 376.634 124.331C377.218 124.525 378.026 124.78 379.043 125.079C380.3 125.423 381.378 125.812 382.291 126.246C383.204 126.68 383.922 127.189 384.461 127.773C384.895 128.222 385.209 128.761 385.419 129.359C385.628 129.958 385.733 130.616 385.733 131.305C385.733 132.666 385.344 133.879 384.581 134.941C383.817 136.004 382.77 136.827 381.438 137.425C380.076 138.024 378.565 138.323 376.844 138.323Z" fill="#FFAA00"/>
<path d="M394.863 138.368C393.771 138.368 392.918 138.054 392.289 137.44C391.676 136.827 391.361 135.944 391.361 134.791C391.361 133.729 391.676 132.846 392.319 132.188C392.963 131.514 393.801 131.185 394.848 131.185C395.941 131.185 396.794 131.499 397.392 132.128C397.991 132.756 398.29 133.639 398.29 134.791C398.29 135.839 397.976 136.692 397.332 137.365C396.719 138.039 395.881 138.368 394.863 138.368ZM392.858 127.698C392.648 126.067 392.424 124.376 392.214 122.64C392.005 120.904 391.825 119.183 391.691 117.462C391.556 115.756 391.496 114.11 391.496 112.523V109.396H398.275V112.523C398.275 114.125 398.215 115.801 398.081 117.537C397.946 119.273 397.766 121.009 397.557 122.73C397.347 124.451 397.123 126.112 396.869 127.683H392.858V127.698Z" fill="#FFAA00"/>
<path d="M241.581 251.272C234.507 251.272 228.059 249.84 222.238 246.975C216.507 244.111 211.761 239.993 208 234.622L220.223 221.195C223.895 225.224 227.298 227.998 230.432 229.52C233.566 230.952 237.059 231.668 240.909 231.668C243.775 231.668 246.327 231.087 248.566 229.923C250.805 228.759 252.551 227.148 253.804 225.089C255.148 222.941 255.819 220.569 255.819 217.973C255.819 215.287 255.148 212.915 253.804 210.857C252.551 208.708 250.805 207.007 248.566 205.754C246.417 204.501 243.909 203.874 241.044 203.874C238.984 203.874 237.059 204.054 235.268 204.412C233.477 204.77 231.551 205.396 229.492 206.291C227.522 207.097 225.149 208.305 222.373 209.917L212.701 197.027L218.477 155.537H272.475V174.738H229.357L235.268 167.219L230.835 197.027L222.776 194.341C224.477 192.82 226.537 191.477 228.955 190.313C231.462 189.149 234.148 188.21 237.014 187.493C239.88 186.688 242.745 186.285 245.611 186.285C251.521 186.285 256.804 187.673 261.461 190.447C266.207 193.133 269.968 196.892 272.744 201.726C275.52 206.56 276.908 212.11 276.908 218.376C276.908 224.552 275.341 230.147 272.207 235.16C269.073 240.083 264.864 244.021 259.58 246.975C254.297 249.84 248.297 251.272 241.581 251.272Z" fill="white"/>
<path d="M329.658 251.675C321.24 251.675 314.031 249.75 308.031 245.901C302.121 242.052 297.599 236.547 294.465 229.386C291.33 222.135 289.763 213.452 289.763 203.337C289.763 193.222 291.33 184.584 294.465 177.423C297.599 170.173 302.121 164.623 308.031 160.774C314.031 156.925 321.24 155 329.658 155C338.075 155 345.284 156.925 351.284 160.774C357.283 164.623 361.85 170.173 364.985 177.423C368.119 184.584 369.686 193.222 369.686 203.337C369.686 213.452 368.119 222.135 364.985 229.386C361.85 236.547 357.283 242.052 351.284 245.901C345.284 249.75 338.075 251.675 329.658 251.675ZM329.658 232.34C335.478 232.34 339.956 229.833 343.09 224.821C346.314 219.808 347.926 212.647 347.926 203.337C347.926 193.759 346.314 186.419 343.09 181.317C339.956 176.125 335.478 173.529 329.658 173.529C323.837 173.529 319.315 176.125 316.091 181.317C312.957 186.419 311.389 193.759 311.389 203.337C311.389 212.647 312.957 219.808 316.091 224.821C319.315 229.833 323.837 232.34 329.658 232.34Z" fill="white"/>
<path d="M420.971 251.675C412.554 251.675 405.345 249.75 399.345 245.901C393.435 242.052 388.913 236.547 385.779 229.386C382.644 222.135 381.077 213.452 381.077 203.337C381.077 193.222 382.644 184.584 385.779 177.423C388.913 170.173 393.435 164.623 399.345 160.774C405.345 156.925 412.554 155 420.971 155C429.389 155 436.598 156.925 442.598 160.774C448.597 164.623 453.164 170.173 456.299 177.423C459.433 184.584 461 193.222 461 203.337C461 213.452 459.433 222.135 456.299 229.386C453.164 236.547 448.597 242.052 442.598 245.901C436.598 249.75 429.389 251.675 420.971 251.675ZM420.971 232.34C426.792 232.34 431.27 229.833 434.404 224.821C437.628 219.808 439.24 212.647 439.24 203.337C439.24 193.759 437.628 186.419 434.404 181.317C431.27 176.125 426.792 173.529 420.971 173.529C415.151 173.529 410.629 176.125 407.405 181.317C404.271 186.419 402.703 193.759 402.703 203.337C402.703 212.647 404.271 219.808 407.405 224.821C410.629 229.833 415.151 232.34 420.971 232.34Z" fill="white"/>
<path d="M226.336 289.24C225.424 289.24 224.576 289.12 223.792 288.88C223.024 288.64 222.32 288.28 221.68 287.8C221.056 287.304 220.496 286.696 220 285.976L221.776 283.936C222.56 285.056 223.312 285.832 224.032 286.264C224.752 286.696 225.608 286.912 226.6 286.912C227.208 286.912 227.76 286.816 228.256 286.624C228.752 286.432 229.144 286.168 229.432 285.832C229.72 285.496 229.864 285.112 229.864 284.68C229.864 284.392 229.816 284.12 229.72 283.864C229.624 283.608 229.472 283.376 229.264 283.168C229.072 282.96 228.816 282.768 228.496 282.592C228.192 282.416 227.832 282.264 227.416 282.136C227 281.992 226.52 281.872 225.976 281.776C225.112 281.6 224.36 281.368 223.72 281.08C223.08 280.792 222.544 280.432 222.112 280C221.68 279.568 221.36 279.08 221.152 278.536C220.944 277.976 220.84 277.352 220.84 276.664C220.84 275.992 220.984 275.368 221.272 274.792C221.576 274.216 221.984 273.72 222.496 273.304C223.024 272.872 223.64 272.544 224.344 272.32C225.048 272.08 225.808 271.96 226.624 271.96C227.488 271.96 228.28 272.072 229 272.296C229.72 272.52 230.36 272.856 230.92 273.304C231.48 273.736 231.944 274.272 232.312 274.912L230.488 276.712C230.168 276.184 229.808 275.744 229.408 275.392C229.008 275.024 228.568 274.752 228.088 274.576C227.608 274.384 227.096 274.288 226.552 274.288C225.928 274.288 225.384 274.384 224.92 274.576C224.456 274.768 224.088 275.04 223.816 275.392C223.56 275.728 223.432 276.128 223.432 276.592C223.432 276.928 223.496 277.24 223.624 277.528C223.752 277.8 223.944 278.048 224.2 278.272C224.472 278.48 224.832 278.672 225.28 278.848C225.728 279.008 226.264 279.152 226.888 279.28C227.768 279.472 228.552 279.72 229.24 280.024C229.928 280.312 230.512 280.656 230.992 281.056C231.472 281.456 231.832 281.904 232.072 282.4C232.328 282.896 232.456 283.432 232.456 284.008C232.456 285.08 232.208 286.008 231.712 286.792C231.216 287.576 230.512 288.184 229.6 288.616C228.688 289.032 227.6 289.24 226.336 289.24Z" fill="white"/>
<path d="M240.329 289V272.2H250.913V274.696H242.921V286.504H250.913V289H240.329ZM241.505 281.632V279.136H249.593V281.632H241.505Z" fill="white"/>
<path d="M259.271 289V272.2H266.423C267.383 272.2 268.263 272.44 269.063 272.92C269.879 273.384 270.527 274.024 271.007 274.84C271.487 275.64 271.727 276.544 271.727 277.552C271.727 278.464 271.487 279.312 271.007 280.096C270.527 280.88 269.887 281.512 269.087 281.992C268.287 282.456 267.399 282.688 266.423 282.688H261.863V289H259.271ZM269.255 289L264.983 281.416L267.647 280.816L272.399 289.024L269.255 289ZM261.863 280.192H266.663C267.127 280.192 267.543 280.08 267.911 279.856C268.279 279.616 268.567 279.296 268.775 278.896C268.983 278.48 269.087 278.024 269.087 277.528C269.087 276.968 268.951 276.48 268.679 276.064C268.423 275.632 268.055 275.296 267.575 275.056C267.111 274.816 266.583 274.696 265.991 274.696H261.863V280.192Z" fill="white"/>
<path d="M284.376 289L277.656 272.2H280.608L284.616 282.4C284.808 282.896 284.976 283.344 285.12 283.744C285.28 284.144 285.416 284.512 285.528 284.848C285.64 285.168 285.744 285.472 285.84 285.76C285.936 286.048 286.032 286.336 286.128 286.624L285.504 286.648C285.616 286.264 285.736 285.864 285.864 285.448C285.992 285.032 286.136 284.576 286.296 284.08C286.472 283.584 286.68 283.024 286.92 282.4L290.64 272.2H293.664L286.896 289H284.376Z" fill="white"/>
<path d="M300.788 289V272.2H311.372V274.696H303.38V286.504H311.372V289H300.788ZM301.964 281.632V279.136H310.052V281.632H301.964Z" fill="white"/>
<path d="M319.73 289V272.2H326.882C327.842 272.2 328.722 272.44 329.522 272.92C330.338 273.384 330.986 274.024 331.466 274.84C331.946 275.64 332.186 276.544 332.186 277.552C332.186 278.464 331.946 279.312 331.466 280.096C330.986 280.88 330.346 281.512 329.546 281.992C328.746 282.456 327.858 282.688 326.882 282.688H322.322V289H319.73ZM329.714 289L325.442 281.416L328.106 280.816L332.858 289.024L329.714 289ZM322.322 280.192H327.122C327.586 280.192 328.002 280.08 328.37 279.856C328.738 279.616 329.026 279.296 329.234 278.896C329.442 278.48 329.546 278.024 329.546 277.528C329.546 276.968 329.41 276.48 329.138 276.064C328.882 275.632 328.514 275.296 328.034 275.056C327.57 274.816 327.042 274.696 326.45 274.696H322.322V280.192Z" fill="white"/>
<path d="M351.544 289V272.2H362.128V274.696H354.136V286.504H362.128V289H351.544ZM352.72 281.632V279.136H360.808V281.632H352.72Z" fill="white"/>
<path d="M370.486 289V272.2H377.638C378.598 272.2 379.478 272.44 380.278 272.92C381.094 273.384 381.742 274.024 382.222 274.84C382.702 275.64 382.942 276.544 382.942 277.552C382.942 278.464 382.702 279.312 382.222 280.096C381.742 280.88 381.102 281.512 380.302 281.992C379.502 282.456 378.614 282.688 377.638 282.688H373.078V289H370.486ZM380.47 289L376.198 281.416L378.862 280.816L383.614 289.024L380.47 289ZM373.078 280.192H377.878C378.342 280.192 378.758 280.08 379.126 279.856C379.494 279.616 379.782 279.296 379.99 278.896C380.198 278.48 380.302 278.024 380.302 277.528C380.302 276.968 380.166 276.48 379.894 276.064C379.638 275.632 379.27 275.296 378.79 275.056C378.326 274.816 377.798 274.696 377.206 274.696H373.078V280.192Z" fill="white"/>
<path d="M391.374 289V272.2H398.526C399.486 272.2 400.366 272.44 401.166 272.92C401.982 273.384 402.63 274.024 403.11 274.84C403.59 275.64 403.83 276.544 403.83 277.552C403.83 278.464 403.59 279.312 403.11 280.096C402.63 280.88 401.99 281.512 401.19 281.992C400.39 282.456 399.502 282.688 398.526 282.688H393.966V289H391.374ZM401.358 289L397.086 281.416L399.75 280.816L404.502 289.024L401.358 289ZM393.966 280.192H398.766C399.23 280.192 399.646 280.08 400.014 279.856C400.382 279.616 400.67 279.296 400.878 278.896C401.086 278.48 401.19 278.024 401.19 277.528C401.19 276.968 401.054 276.48 400.782 276.064C400.526 275.632 400.158 275.296 399.678 275.056C399.214 274.816 398.686 274.696 398.094 274.696H393.966V280.192Z" fill="white"/>
<path d="M419.059 289.24C417.875 289.24 416.779 289.024 415.771 288.592C414.779 288.16 413.907 287.56 413.155 286.792C412.419 286.008 411.843 285.096 411.427 284.056C411.027 283 410.827 281.848 410.827 280.6C410.827 279.352 411.027 278.208 411.427 277.168C411.843 276.112 412.419 275.2 413.155 274.432C413.907 273.648 414.779 273.04 415.771 272.608C416.779 272.176 417.875 271.96 419.059 271.96C420.243 271.96 421.331 272.176 422.323 272.608C423.331 273.04 424.203 273.648 424.939 274.432C425.691 275.216 426.267 276.136 426.667 277.192C427.083 278.232 427.291 279.368 427.291 280.6C427.291 281.832 427.083 282.976 426.667 284.032C426.267 285.072 425.691 285.984 424.939 286.768C424.203 287.552 423.331 288.16 422.323 288.592C421.331 289.024 420.243 289.24 419.059 289.24ZM419.059 286.72C419.875 286.72 420.619 286.568 421.291 286.264C421.979 285.96 422.571 285.536 423.067 284.992C423.563 284.432 423.947 283.784 424.219 283.048C424.507 282.296 424.651 281.48 424.651 280.6C424.651 279.72 424.507 278.912 424.219 278.176C423.947 277.424 423.563 276.776 423.067 276.232C422.571 275.672 421.979 275.24 421.291 274.936C420.619 274.632 419.875 274.48 419.059 274.48C418.243 274.48 417.491 274.632 416.803 274.936C416.131 275.24 415.539 275.664 415.027 276.208C414.531 276.752 414.147 277.4 413.875 278.152C413.603 278.888 413.467 279.704 413.467 280.6C413.467 281.48 413.603 282.296 413.875 283.048C414.147 283.8 414.531 284.448 415.027 284.992C415.539 285.536 416.131 285.96 416.803 286.264C417.491 286.568 418.243 286.72 419.059 286.72Z" fill="white"/>
<path d="M435 289V272.2H442.152C443.112 272.2 443.992 272.44 444.792 272.92C445.608 273.384 446.256 274.024 446.736 274.84C447.216 275.64 447.456 276.544 447.456 277.552C447.456 278.464 447.216 279.312 446.736 280.096C446.256 280.88 445.616 281.512 444.816 281.992C444.016 282.456 443.128 282.688 442.152 282.688H437.592V289H435ZM444.984 289L440.712 281.416L443.376 280.816L448.128 289.024L444.984 289ZM437.592 280.192H442.392C442.856 280.192 443.272 280.08 443.64 279.856C444.008 279.616 444.296 279.296 444.504 278.896C444.712 278.48 444.816 278.024 444.816 277.528C444.816 276.968 444.68 276.48 444.408 276.064C444.152 275.632 443.784 275.296 443.304 275.056C442.84 274.816 442.312 274.696 441.72 274.696H437.592V280.192Z" fill="white"/>
</g>
<defs>
<clipPath id="clip0_1777_6902">
<rect width="636.695" height="600" fill="white"/>
</clipPath>
</defs>
</svg>
