<svg width="102" height="39" viewBox="0 0 102 39" fill="none" xmlns="http://www.w3.org/2000/svg">
<rect x="0.5" y="0.5" width="101" height="37.3932" rx="4.5" fill="white" stroke="#333333"/>
<path d="M23.9219 19.7483C23.9416 18.2107 24.7642 16.7558 26.069 15.9504C25.2459 14.7702 23.867 14.0218 22.4325 13.9768C20.9025 13.8156 19.4192 14.8959 18.6395 14.8959C17.8448 14.8959 16.6444 13.9928 15.3517 14.0195C13.6668 14.0741 12.096 15.0358 11.2762 16.5147C9.51409 19.5775 10.8285 24.0787 12.5165 26.5544C13.361 27.7667 14.348 29.1209 15.6395 29.0729C16.9033 29.0203 17.3753 28.2639 18.9009 28.2639C20.4122 28.2639 20.8551 29.0729 22.1728 29.0424C23.5289 29.0203 24.3833 27.8247 25.1982 26.6009C25.805 25.7371 26.272 24.7824 26.5817 23.7722C24.988 23.0955 23.9237 21.4854 23.9219 19.7483Z" fill="#333333"/>
<path d="M21.433 12.3486C22.1724 11.4575 22.5367 10.3122 22.4484 9.15576C21.3188 9.27487 20.2753 9.81689 19.5259 10.6738C18.7931 11.5111 18.4117 12.6363 18.4838 13.7485C19.6139 13.7601 20.7248 13.2328 21.433 12.3486Z" fill="#333333"/>
<path d="M68.9985 14.8641V16.7274H67.8351V17.9493H68.9985V22.101C68.9985 23.5187 69.6373 24.0858 71.2445 24.0858C71.5269 24.0858 71.7959 24.052 72.0313 24.0115V22.8031C71.8295 22.8234 71.7018 22.8369 71.4798 22.8369C70.7603 22.8369 70.4442 22.4993 70.4442 21.7297V17.9493H72.0313V16.7274H70.4442V14.8641H68.9985Z" fill="#333333"/>
<path d="M76.1255 24.1871C78.2639 24.1871 79.5752 22.7491 79.5752 20.3661C79.5752 17.9965 78.2572 16.5518 76.1255 16.5518C73.987 16.5518 72.669 17.9965 72.669 20.3661C72.669 22.7491 73.9803 24.1871 76.1255 24.1871ZM76.1255 22.8976C74.868 22.8976 74.1619 21.9728 74.1619 20.3661C74.1619 18.7729 74.868 17.8412 76.1255 17.8412C77.3763 17.8412 78.0891 18.7729 78.0891 20.3661C78.0891 21.966 77.3763 22.8976 76.1255 22.8976Z" fill="#333333"/>
<path d="M80.6971 24.0453H82.1429V19.7045C82.1429 18.6716 82.9163 17.9763 84.0124 17.9763C84.2679 17.9763 84.6983 18.0235 84.8193 18.064V16.6328C84.6647 16.5923 84.389 16.5721 84.1738 16.5721C83.2189 16.5721 82.4052 17.0986 82.1967 17.821H82.0891V16.6936H80.6971V24.0453Z" fill="#333333"/>
<path d="M88.4092 17.7872C89.4784 17.7872 90.1778 18.5366 90.2114 19.691H86.5129C86.5936 18.5433 87.34 17.7872 88.4092 17.7872ZM90.2047 22.0605C89.9357 22.6344 89.3372 22.9517 88.463 22.9517C87.3064 22.9517 86.5599 22.1348 86.5129 20.8454V20.7644H91.6841V20.2581C91.6841 17.9493 90.4535 16.5518 88.4159 16.5518C86.3515 16.5518 85.0402 18.0438 85.0402 20.3931C85.0402 22.7424 86.3246 24.1871 88.4227 24.1871C90.0971 24.1871 91.2672 23.377 91.5967 22.0605H90.2047Z" fill="#333333"/>
<path d="M59.5172 21.3304C59.6287 23.1357 61.1272 24.2902 63.3576 24.2902C65.7413 24.2902 67.2328 23.0797 67.2328 21.1485C67.2328 19.6301 66.3825 18.7905 64.3194 18.3077L63.2112 18.0348C61.9009 17.7269 61.3711 17.3141 61.3711 16.5934C61.3711 15.6838 62.1936 15.089 63.4273 15.089C64.5982 15.089 65.4067 15.6698 65.5531 16.6004H67.0725C66.9819 14.9001 65.4903 13.7036 63.4482 13.7036C61.2527 13.7036 59.789 14.9001 59.789 16.6984C59.789 18.1817 60.6184 19.0634 62.4375 19.4902L63.7339 19.8051C65.0652 20.1199 65.6506 20.5817 65.6506 21.3514C65.6506 22.247 64.7306 22.8978 63.476 22.8978C62.1309 22.8978 61.1969 22.289 61.0645 21.3304H59.5172Z" fill="#333333"/>
<path d="M44.5402 16.5721C43.545 16.5721 42.6842 17.0716 42.2404 17.9088H42.1328V16.6936H40.7408V26.4891H42.1866V22.9314H42.3009C42.6842 23.7077 43.5113 24.1668 44.5537 24.1668C46.4029 24.1668 47.5797 22.7019 47.5797 20.3661C47.5797 18.0303 46.4029 16.5721 44.5402 16.5721ZM44.13 22.8639C42.9196 22.8639 42.1597 21.9053 42.1597 20.3728C42.1597 18.8336 42.9196 17.875 44.1367 17.875C45.3606 17.875 46.0936 18.8134 46.0936 20.3661C46.0936 21.9255 45.3606 22.8639 44.13 22.8639Z" fill="#333333"/>
<path d="M52.6388 16.5721C51.6436 16.5721 50.7828 17.0716 50.339 17.9088H50.2314V16.6936H48.8394V26.4891H50.2852V22.9314H50.3995C50.7828 23.7077 51.6099 24.1668 52.6523 24.1668C54.5015 24.1668 55.6783 22.7019 55.6783 20.3661C55.6783 18.0303 54.5015 16.5721 52.6388 16.5721ZM52.2286 22.8639C51.0182 22.8639 50.2583 21.9053 50.2583 20.3728C50.2583 18.8336 51.0182 17.875 52.2353 17.875C53.4592 17.875 54.1922 18.8134 54.1922 20.3661C54.1922 21.9255 53.4592 22.8639 52.2286 22.8639Z" fill="#333333"/>
<path d="M38.1468 24.0453H39.8056L36.1743 13.9485H34.4946L30.8633 24.0453H32.4664L33.3933 21.3654H37.2268L38.1468 24.0453ZM35.2543 15.7817H35.3728L36.8295 20.05H33.7906L35.2543 15.7817Z" fill="#333333"/>
</svg>
