<svg width="20" height="20" viewBox="0 0 20 20" fill="none" xmlns="http://www.w3.org/2000/svg">
<path d="M17.3077 16.2748C17.3077 16.5748 17.241 16.8832 17.0993 17.1832C16.9577 17.4832 16.7744 17.7665 16.5327 18.0332C16.1244 18.4832 15.6743 18.8082 15.166 19.0165C14.666 19.2248 14.1244 19.3332 13.541 19.3332C12.691 19.3332 11.7827 19.1332 10.8243 18.7248C9.86602 18.3165 8.90768 17.7665 7.95768 17.0748C6.99935 16.3748 6.09102 15.5998 5.22435 14.7415C4.36602 13.8748 3.59102 12.9665 2.89935 12.0165C2.21602 11.0665 1.66602 10.1165 1.26602 9.17484C0.866016 8.22484 0.666016 7.3165 0.666016 6.44984C0.666016 5.88317 0.766016 5.3415 0.966016 4.8415C1.16602 4.33317 1.48268 3.8665 1.92435 3.44984C2.45768 2.92484 3.04102 2.6665 3.65768 2.6665C3.89102 2.6665 4.12435 2.7165 4.33268 2.8165C4.54935 2.9165 4.74102 3.0665 4.89102 3.28317L6.82435 6.00817C6.97435 6.2165 7.08268 6.40817 7.15768 6.5915C7.23268 6.7665 7.27435 6.9415 7.27435 7.09984C7.27435 7.29984 7.21602 7.49984 7.09935 7.6915C6.99102 7.88317 6.83268 8.08317 6.63268 8.28317L5.99935 8.9415C5.90768 9.03317 5.86602 9.1415 5.86602 9.27484C5.86602 9.3415 5.87435 9.39984 5.89102 9.4665C5.91602 9.53317 5.94102 9.58317 5.95768 9.63317C6.10768 9.90817 6.36602 10.2665 6.73268 10.6998C7.10768 11.1332 7.50768 11.5748 7.94102 12.0165C8.39102 12.4582 8.82435 12.8665 9.26602 13.2415C9.69935 13.6082 10.0577 13.8582 10.341 14.0082C10.3827 14.0248 10.4327 14.0498 10.491 14.0748C10.5577 14.0998 10.6243 14.1082 10.6993 14.1082C10.841 14.1082 10.9493 14.0582 11.041 13.9665L11.6743 13.3415C11.8827 13.1332 12.0827 12.9748 12.2743 12.8748C12.466 12.7582 12.6577 12.6998 12.866 12.6998C13.0243 12.6998 13.191 12.7332 13.3743 12.8082C13.5577 12.8832 13.7494 12.9915 13.9577 13.1332L16.716 15.0915C16.9327 15.2415 17.0827 15.4165 17.1743 15.6248C17.2577 15.8332 17.3077 16.0415 17.3077 16.2748Z" stroke="#9C9C9C" stroke-width="1.2" stroke-miterlimit="10"/>
<path d="M14.4167 8.49967C14.4167 7.99967 14.025 7.23301 13.4417 6.60801C12.9083 6.03301 12.2 5.58301 11.5 5.58301" stroke="#9C9C9C" stroke-width="1.2" stroke-linecap="round" stroke-linejoin="round"/>
<path d="M17.3333 8.49984C17.3333 5.27484 14.725 2.6665 11.5 2.6665" stroke="#9C9C9C" stroke-width="1.2" stroke-linecap="round" stroke-linejoin="round"/>
</svg>
