<svg width="24" height="24" viewBox="0 0 24 24" fill="none" xmlns="http://www.w3.org/2000/svg">
<rect width="24" height="24" rx="12" fill="#FFAA00"/>
<g clip-path="url(#clip0_402_2902)">
<path d="M6 12C6 12.7879 6.15519 13.5681 6.45672 14.2961C6.75825 15.0241 7.20021 15.6855 7.75736 16.2426C8.31451 16.7998 8.97595 17.2417 9.7039 17.5433C10.4319 17.8448 11.2121 18 12 18C12.7879 18 13.5681 17.8448 14.2961 17.5433C15.0241 17.2417 15.6855 16.7998 16.2426 16.2426C16.7998 15.6855 17.2417 15.0241 17.5433 14.2961C17.8448 13.5681 18 12.7879 18 12C18 11.2121 17.8448 10.4319 17.5433 9.7039C17.2417 8.97595 16.7998 8.31451 16.2426 7.75736C15.6855 7.20021 15.0241 6.75825 14.2961 6.45672C13.5681 6.15519 12.7879 6 12 6C11.2121 6 10.4319 6.15519 9.7039 6.45672C8.97595 6.75825 8.31451 7.20021 7.75736 7.75736C7.20021 8.31451 6.75825 8.97595 6.45672 9.7039C6.15519 10.4319 6 11.2121 6 12Z" stroke="white" stroke-width="1.2" stroke-linecap="round" stroke-linejoin="round"/>
<path d="M13.8667 10.0004C13.7459 9.79094 13.5704 9.61823 13.3591 9.5008C13.1477 9.38337 12.9083 9.32563 12.6667 9.33376H11.3333C10.9797 9.33376 10.6406 9.47424 10.3905 9.72429C10.1405 9.97434 10 10.3135 10 10.6671C10 11.0207 10.1405 11.3599 10.3905 11.6099C10.6406 11.86 10.9797 12.0004 11.3333 12.0004H12.6667C13.0203 12.0004 13.3594 12.1409 13.6095 12.391C13.8595 12.641 14 12.9801 14 13.3338C14 13.6874 13.8595 14.0265 13.6095 14.2766C13.3594 14.5266 13.0203 14.6671 12.6667 14.6671H11.3333C11.0917 14.6752 10.8523 14.6175 10.6409 14.5001C10.4296 14.3826 10.2541 14.2099 10.1333 14.0004" stroke="white" stroke-width="1.2" stroke-linecap="round" stroke-linejoin="round"/>
<path d="M12 8.66699V15.3337" stroke="white" stroke-width="1.2" stroke-linecap="round" stroke-linejoin="round"/>
</g>
<defs>
<clipPath id="clip0_402_2902">
<rect width="16" height="16" fill="white" transform="translate(4 4)"/>
</clipPath>
</defs>
</svg>
