<svg width="24" height="24" viewBox="0 0 24 24" fill="none" xmlns="http://www.w3.org/2000/svg">
<rect width="24" height="24" rx="12" fill="#D2D2D2"/>
<g clip-path="url(#clip0_295_2952)">
<path d="M10.8833 6.878C11.1673 5.70733 12.8327 5.70733 13.1167 6.878C13.1593 7.05387 13.2428 7.21719 13.3605 7.35467C13.4781 7.49215 13.6266 7.5999 13.7938 7.66916C13.9609 7.73843 14.1421 7.76723 14.3225 7.75325C14.5029 7.73926 14.6775 7.68287 14.832 7.58867C15.8607 6.962 17.0387 8.13933 16.412 9.16867C16.3179 9.3231 16.2616 9.49756 16.2477 9.67785C16.2337 9.85814 16.2625 10.0392 16.3317 10.2063C16.4009 10.3733 16.5085 10.5217 16.6458 10.6394C16.7831 10.757 16.9463 10.8406 17.122 10.8833C18.2927 11.1673 18.2927 12.8327 17.122 13.1167C16.9461 13.1593 16.7828 13.2428 16.6453 13.3605C16.5079 13.4781 16.4001 13.6266 16.3308 13.7938C16.2616 13.9609 16.2328 14.1421 16.2468 14.3225C16.2607 14.5029 16.3171 14.6775 16.4113 14.832C17.038 15.8607 15.8607 17.0387 14.8313 16.412C14.6769 16.3179 14.5024 16.2616 14.3222 16.2477C14.1419 16.2337 13.9608 16.2625 13.7937 16.3317C13.6267 16.4009 13.4783 16.5085 13.3606 16.6458C13.243 16.7831 13.1594 16.9463 13.1167 17.122C12.8327 18.2927 11.1673 18.2927 10.8833 17.122C10.8407 16.9461 10.7572 16.7828 10.6395 16.6453C10.5219 16.5079 10.3734 16.4001 10.2062 16.3308C10.0391 16.2616 9.85789 16.2328 9.67748 16.2468C9.49706 16.2607 9.3225 16.3171 9.168 16.4113C8.13933 17.038 6.96133 15.8607 7.588 14.8313C7.68207 14.6769 7.73837 14.5024 7.75232 14.3222C7.76628 14.1419 7.7375 13.9608 7.66831 13.7937C7.59913 13.6267 7.49151 13.4783 7.35418 13.3606C7.21686 13.243 7.05371 13.1594 6.878 13.1167C5.70733 12.8327 5.70733 11.1673 6.878 10.8833C7.05387 10.8407 7.21719 10.7572 7.35467 10.6395C7.49215 10.5219 7.5999 10.3734 7.66916 10.2062C7.73843 10.0391 7.76723 9.85789 7.75325 9.67748C7.73926 9.49706 7.68287 9.3225 7.58867 9.168C6.962 8.13933 8.13933 6.96133 9.16867 7.588C9.83533 7.99333 10.6993 7.63467 10.8833 6.878Z" stroke="white" stroke-width="1.2" stroke-linecap="round" stroke-linejoin="round"/>
<path d="M10 12C10 12.5304 10.2107 13.0391 10.5858 13.4142C10.9609 13.7893 11.4696 14 12 14C12.5304 14 13.0391 13.7893 13.4142 13.4142C13.7893 13.0391 14 12.5304 14 12C14 11.4696 13.7893 10.9609 13.4142 10.5858C13.0391 10.2107 12.5304 10 12 10C11.4696 10 10.9609 10.2107 10.5858 10.5858C10.2107 10.9609 10 11.4696 10 12Z" stroke="white" stroke-width="1.2" stroke-linecap="round" stroke-linejoin="round"/>
</g>
<defs>
<clipPath id="clip0_295_2952">
<rect width="16" height="16" fill="white" transform="translate(4 4)"/>
</clipPath>
</defs>
</svg>
