<svg width="102" height="38" viewBox="0 0 102 38" fill="none" xmlns="http://www.w3.org/2000/svg">
<path d="M5 1.10059C2.51472 1.10059 0.5 3.11531 0.5 5.60059V32.4675C0.5 34.9528 2.51472 36.9675 5 36.9675H97C99.4853 36.9675 101.5 34.9527 101.5 32.4675V5.60059C101.5 3.1153 99.4853 1.10059 97 1.10059H5Z" fill="white" stroke="#333333"/>
<rect x="10.0332" y="10.0215" width="18.0359" height="18.1063" rx="2" fill="url(#paint0_angular_99_2708)"/>
<path fill-rule="evenodd" clip-rule="evenodd" d="M21.6807 16.6855L21.6436 16.5216C21.6436 15.0865 20.4803 13.9189 19.0504 13.9189C17.6206 13.9189 16.4574 15.0865 16.4574 16.5216L16.4203 16.6855H14.291L14.865 22.0569C14.9799 23.1495 15.8977 23.9786 16.9922 23.9786H21.1088C22.2032 23.9786 23.121 23.1495 23.236 22.0571L23.81 16.6855H21.6807ZM17.5475 16.6855L17.5893 16.5216C17.5893 15.7129 18.2448 15.055 19.0504 15.055C19.8563 15.055 20.5117 15.7129 20.5117 16.5216L20.5535 16.6855H17.5475Z" fill="white"/>
<path d="M45.9699 14.476H47.226V21.3366H45.9699V14.476Z" fill="#333333"/>
<path d="M32.1328 17.9539C32.1328 16.0257 33.5826 14.4773 35.5772 14.4773C36.9718 14.4773 38.0708 15.1912 38.6432 16.2109L37.5351 16.8785C37.1196 16.109 36.4732 15.701 35.5866 15.701C34.3306 15.701 33.3794 16.7208 33.3794 17.9539C33.3794 19.2054 34.3215 20.2068 35.6326 20.2068C36.6393 20.2068 37.3412 19.6319 37.5812 18.7419H35.4296V17.5367H38.9295V18.0374C38.9295 19.8636 37.6459 21.4307 35.6326 21.4307C33.5272 21.4307 32.1328 19.8265 32.1328 17.9539Z" fill="#333333"/>
<path d="M39.5033 18.6309C39.5033 16.8322 40.8146 15.8033 42.1813 15.8033C42.8924 15.8033 43.5296 16.0998 43.9176 16.5635V15.9146H45.1641V21.338H43.9176V20.6331C43.5203 21.1338 42.874 21.4492 42.1629 21.4492C40.8607 21.4492 39.5033 20.4014 39.5033 18.6309ZM43.9821 18.6123C43.9821 17.6945 43.2895 16.9435 42.3661 16.9435C41.4426 16.9435 40.7316 17.6761 40.7316 18.6123C40.7316 19.5577 41.4426 20.2995 42.3661 20.2995C43.2895 20.2995 43.9821 19.5485 43.9821 18.6123Z" fill="#333333"/>
<path d="M47.8617 18.6309C47.8617 16.8322 49.173 15.8033 50.5398 15.8033C51.2509 15.8033 51.8881 16.0998 52.276 16.5635V15.9146H53.5226V21.338H52.276V20.6331C51.8789 21.1338 51.2326 21.4492 50.5213 21.4492C49.2193 21.4492 47.8617 20.4014 47.8617 18.6309ZM52.3407 18.6123C52.3407 17.6945 51.6481 16.9435 50.7249 16.9435C49.8013 16.9435 49.0902 17.6761 49.0902 18.6123C49.0902 19.5577 49.8013 20.2995 50.7249 20.2995C51.6479 20.2995 52.3407 19.5485 52.3407 18.6123Z" fill="#333333"/>
<path d="M55.9525 18.5752L53.9948 15.9146H55.5187L56.7466 17.6388L57.9658 15.9146H59.4432L57.5038 18.5938L59.5725 21.338H58.0488L56.7284 19.5302L55.4446 21.338H53.9208L55.9525 18.5752Z" fill="#333333"/>
<path d="M61.9097 21.069L59.6934 15.9144H61.0231L62.5285 19.5671L63.9505 15.9144H65.2622L62.039 23.8409H60.774L61.9097 21.069Z" fill="#333333"/>
<path d="M67.8211 20.2161L68.9661 19.3076C69.308 19.8917 69.8343 20.2253 70.4436 20.2253C71.1087 20.2253 71.4689 19.79 71.4689 19.3168C71.4689 18.7421 70.7856 18.5661 70.0652 18.3435C69.1602 18.056 68.1538 17.7038 68.1538 16.4151C68.1538 15.3305 69.0956 14.4775 70.3881 14.4775C71.4782 14.4775 72.1061 14.8948 72.6509 15.4603L71.6166 16.2482C71.3302 15.8219 70.9332 15.5993 70.3977 15.5993C69.7883 15.5993 69.4558 15.9331 69.4558 16.3686C69.4558 16.9064 70.1023 17.0827 70.8318 17.3238C71.7461 17.6203 72.7802 18.0283 72.7802 19.3262C72.7802 20.3922 71.9307 21.4309 70.4531 21.4309C69.2339 21.4307 68.4305 20.9112 67.8211 20.2161Z" fill="#333333"/>
<path d="M72.8825 15.9144H73.8059V15.0893L75.062 14.2271V15.9144H76.161V17.0362H75.062V19.0664C75.062 20.0121 75.1913 20.1605 76.161 20.1605V21.3378H75.9854C74.3142 21.3378 73.8061 20.8002 73.8061 19.0759V17.0362H72.8827L72.8825 15.9144Z" fill="#333333"/>
<path d="M76.4939 18.6309C76.4939 17.0548 77.7312 15.8031 79.2918 15.8031C80.8431 15.8031 82.0898 17.0548 82.0898 18.6309C82.0898 20.1976 80.8431 21.4492 79.2918 21.4492C77.7312 21.4492 76.4939 20.1976 76.4939 18.6309ZM80.8617 18.6309C80.8617 17.7224 80.1689 16.9806 79.2918 16.9806C78.396 16.9806 77.7218 17.7224 77.7218 18.6309C77.7218 19.5302 78.396 20.2718 79.2918 20.2718C80.1689 20.2718 80.8617 19.5302 80.8617 18.6309Z" fill="#333333"/>
<path d="M83.9654 15.9144V16.721C84.2147 16.1832 84.6672 15.9144 85.3505 15.9144C85.7384 15.9144 86.0614 16.0071 86.3017 16.1461L85.8306 17.3328C85.6459 17.2123 85.4335 17.1196 85.0825 17.1196C84.3623 17.1196 83.9744 17.509 83.9744 18.4452V21.3378H82.7278V15.9144H83.9654Z" fill="#333333"/>
<path d="M86.4409 18.64C86.4409 17.0548 87.6689 15.8031 89.2481 15.8031C90.855 15.8031 92.0279 16.9898 92.0279 18.5938V19.0664H87.6323C87.7985 19.8269 88.4079 20.3459 89.2946 20.3459C89.9872 20.3459 90.5321 19.9659 90.7905 19.391L91.8156 19.9842C91.3446 20.856 90.4949 21.449 89.2946 21.449C87.5953 21.449 86.4409 20.2068 86.4409 18.64ZM87.6968 18.0189H90.7629C90.5781 17.2959 90.0242 16.9064 89.2483 16.9064C88.5001 16.9064 87.9185 17.3607 87.6968 18.0189Z" fill="#333333"/>
<defs>
<radialGradient id="paint0_angular_99_2708" cx="0" cy="0" r="1" gradientUnits="userSpaceOnUse" gradientTransform="translate(19.0512 19.0747) rotate(88.8354) scale(9.05504 9.01987)">
<stop offset="0.000415415" stop-color="#F4605E"/>
<stop offset="0.0642377" stop-color="#E94B80"/>
<stop offset="0.128396" stop-color="#DE33A4"/>
<stop offset="0.186654" stop-color="#D41AC8"/>
<stop offset="0.250949" stop-color="#CB06E5"/>
<stop offset="0.281719" stop-color="#C902EC"/>
<stop offset="0.316858" stop-color="#CB04E5"/>
<stop offset="0.371347" stop-color="#D108D3"/>
<stop offset="0.43351" stop-color="#D80DBA"/>
<stop offset="0.504024" stop-color="#E1139E"/>
<stop offset="0.59576" stop-color="#EC1E7B"/>
<stop offset="0.673288" stop-color="#F22A65"/>
<stop offset="0.713795" stop-color="#F5355B"/>
<stop offset="0.754495" stop-color="#F74452"/>
<stop offset="0.818581" stop-color="#F75651"/>
<stop offset="0.878478" stop-color="#F76051"/>
<stop offset="0.938046" stop-color="#F76551"/>
</radialGradient>
</defs>
</svg>
