<svg width="102" height="40" viewBox="0 0 102 40" fill="none" xmlns="http://www.w3.org/2000/svg">
<rect x="0.5" y="0.893555" width="101" height="38.2076" rx="4.5" fill="white" stroke="#333333"/>
<g filter="url(#filter0_ii_99_2721)">
<path d="M10.9799 10.8156C10.7642 11.0448 10.6367 11.4005 10.6367 11.8611V28.3187C10.6367 28.7801 10.7642 29.1351 10.9799 29.3643L11.0348 29.4179L20.2182 20.1986V20.0899V19.9813L11.0348 10.7612L10.9799 10.8156Z" fill="url(#paint0_linear_99_2721)"/>
<path d="M23.2794 23.2724L20.2187 20.1984V20.0897V19.9811L23.2801 16.9077L23.3491 16.9472L26.9761 19.0159C28.0116 19.6068 28.0116 20.5734 26.9761 21.165L23.3491 23.2338L23.2794 23.2724Z" fill="url(#paint1_linear_99_2721)"/>
<g filter="url(#filter1_i_99_2721)">
<path d="M23.3491 23.2327L20.218 20.0894L10.9805 29.3637C11.3214 29.7269 11.8855 29.7715 12.5208 29.4099L23.3491 23.2327Z" fill="url(#paint2_linear_99_2721)"/>
</g>
<path d="M23.3491 16.9466L12.5208 10.7701C11.8855 10.4077 11.3214 10.4531 10.9805 10.8162L20.2188 20.0906L23.3491 16.9466Z" fill="url(#paint3_linear_99_2721)"/>
</g>
<path d="M51.0426 17.462C49.396 17.462 48.0539 18.7138 48.0539 20.438C48.0539 22.1516 49.396 23.414 51.0426 23.414C52.6899 23.414 54.032 22.1516 54.032 20.438C54.0313 18.7138 52.6892 17.462 51.0426 17.462ZM51.0426 22.2426C50.1402 22.2426 49.3624 21.4988 49.3624 20.4387C49.3624 19.3674 50.1409 18.6348 51.0426 18.6348C51.945 18.6348 52.7228 19.3674 52.7228 20.4387C52.7228 21.4981 51.945 22.2426 51.0426 22.2426ZM44.5219 17.462C42.8753 17.462 41.5332 18.7138 41.5332 20.438C41.5332 22.1516 42.8753 23.414 44.5219 23.414C46.1692 23.414 47.5113 22.1516 47.5113 20.438C47.5113 18.7138 46.1692 17.462 44.5219 17.462ZM44.5219 22.2426C43.6195 22.2426 42.8417 21.4988 42.8417 20.4387C42.8417 19.3674 43.6202 18.6348 44.5219 18.6348C45.4243 18.6348 46.2021 19.3674 46.2021 20.4387C46.2028 21.4981 45.4243 22.2426 44.5219 22.2426ZM36.7663 18.3758V19.6382H39.7893C39.6989 20.3484 39.4623 20.8669 39.1011 21.2273C38.6614 21.6667 37.9732 22.1516 36.7663 22.1516C34.9054 22.1516 33.4506 20.6521 33.4506 18.7922C33.4506 16.9323 34.9054 15.4327 36.7663 15.4327C37.7702 15.4327 38.5032 15.8274 39.0444 16.3347L39.9356 15.4439C39.1795 14.7225 38.1762 14.1704 36.7663 14.1704C34.2172 14.1704 32.0742 16.2444 32.0742 18.7922C32.0742 21.3399 34.2172 23.414 36.7663 23.414C38.1419 23.414 39.1802 22.9626 39.9916 22.1174C40.8261 21.2833 41.0858 20.1105 41.0858 19.1638C41.0858 18.8713 41.0634 18.6005 41.0179 18.3751L36.7663 18.3758ZM68.4861 19.3562C68.2383 18.6914 67.4822 17.462 65.9371 17.462C64.4032 17.462 63.1283 18.6683 63.1283 20.438C63.1283 22.1062 64.392 23.414 66.0834 23.414C67.4479 23.414 68.2376 22.5799 68.5652 22.095L67.5501 21.4183C67.212 21.9144 66.7492 22.2412 66.0834 22.2412C65.4183 22.2412 64.9444 21.9368 64.6398 21.3392L68.6213 19.6935L68.4861 19.3562ZM64.4256 20.3484C64.392 19.198 65.3168 18.6124 65.9826 18.6124C66.5014 18.6124 66.941 18.872 67.088 19.2435L64.4256 20.3484ZM61.189 23.2341H62.4968V14.4867H61.189V23.2341ZM59.0454 18.1274H59.0006C58.7072 17.7776 58.1429 17.462 57.433 17.462C55.9439 17.462 54.5795 18.7698 54.5795 20.4499C54.5795 22.1181 55.9439 23.4147 57.433 23.4147C58.1436 23.4147 58.7072 23.0991 59.0006 22.7387H59.0454V23.167C59.0454 24.3054 58.4363 24.9142 57.4554 24.9142C56.6545 24.9142 56.1582 24.3397 55.9551 23.8548L54.8161 24.3285C55.143 25.1171 56.0111 26.087 57.4554 26.087C58.9893 26.087 60.2866 25.185 60.2866 22.9864V17.6432H59.0461L59.0454 18.1274ZM57.5458 22.2426C56.6433 22.2426 55.8879 21.4869 55.8879 20.4499C55.8879 19.401 56.6433 18.6348 57.5458 18.6348C58.4363 18.6348 59.1357 19.401 59.1357 20.4499C59.1357 21.4869 58.4363 22.2426 57.5458 22.2426ZM74.6148 14.4867H71.4846V23.2341H72.7903V19.9202H74.6141C76.0619 19.9202 77.4858 18.8727 77.4858 17.2038C77.4858 15.5349 76.0626 14.4867 74.6148 14.4867ZM74.6484 18.7026H72.7903V15.7042H74.6484C75.625 15.7042 76.1795 16.5124 76.1795 17.2038C76.1795 17.8811 75.625 18.7026 74.6484 18.7026ZM82.7219 17.4466C81.776 17.4466 80.7966 17.8629 80.3912 18.7859L81.5506 19.2694C81.7984 18.7859 82.2605 18.6278 82.7443 18.6278C83.4198 18.6278 84.1066 19.0329 84.1178 19.7529V19.8432C83.8812 19.7082 83.3743 19.5059 82.7555 19.5059C81.5058 19.5059 80.233 20.1924 80.233 21.475C80.233 22.6457 81.258 23.3993 82.4061 23.3993C83.284 23.3993 83.7685 23.0053 84.0723 22.5435H84.1171V23.2188H85.3787V19.8649C85.3794 18.3129 84.2187 17.4466 82.7219 17.4466ZM82.5636 22.2405C82.1366 22.2405 81.5394 22.0264 81.5394 21.4974C81.5394 20.8221 82.2829 20.5632 82.9249 20.5632C83.4983 20.5632 83.7692 20.6871 84.1178 20.8557C84.0163 21.6667 83.3183 22.2405 82.5636 22.2405ZM89.9727 17.6376L88.4752 21.4302H88.4304L86.8762 17.6376H85.469L87.7996 22.9382L86.4709 25.8869H87.8332L91.4254 17.6376H89.9727ZM78.2069 23.2341H79.5126V14.4867H78.2069V23.2341Z" fill="#333333"/>
<defs>
<filter id="filter0_ii_99_2721" x="10.6367" y="10.52" width="17.1152" height="19.1396" filterUnits="userSpaceOnUse" color-interpolation-filters="sRGB">
<feFlood flood-opacity="0" result="BackgroundImageFix"/>
<feBlend mode="normal" in="SourceGraphic" in2="BackgroundImageFix" result="shape"/>
<feColorMatrix in="SourceAlpha" type="matrix" values="0 0 0 0 0 0 0 0 0 0 0 0 0 0 0 0 0 0 127 0" result="hardAlpha"/>
<feOffset dy="-0.795"/>
<feComposite in2="hardAlpha" operator="arithmetic" k2="-1" k3="1"/>
<feColorMatrix type="matrix" values="0 0 0 0 0 0 0 0 0 0 0 0 0 0 0 0 0 0 0.12 0"/>
<feBlend mode="normal" in2="shape" result="effect1_innerShadow_99_2721"/>
<feColorMatrix in="SourceAlpha" type="matrix" values="0 0 0 0 0 0 0 0 0 0 0 0 0 0 0 0 0 0 127 0" result="hardAlpha"/>
<feOffset dy="0.795"/>
<feComposite in2="hardAlpha" operator="arithmetic" k2="-1" k3="1"/>
<feColorMatrix type="matrix" values="0 0 0 0 1 0 0 0 0 1 0 0 0 0 1 0 0 0 0.25 0"/>
<feBlend mode="normal" in2="effect1_innerShadow_99_2721" result="effect2_innerShadow_99_2721"/>
</filter>
<filter id="filter1_i_99_2721" x="10.9805" y="20.0894" width="12.3691" height="9.57031" filterUnits="userSpaceOnUse" color-interpolation-filters="sRGB">
<feFlood flood-opacity="0" result="BackgroundImageFix"/>
<feBlend mode="normal" in="SourceGraphic" in2="BackgroundImageFix" result="shape"/>
<feColorMatrix in="SourceAlpha" type="matrix" values="0 0 0 0 0 0 0 0 0 0 0 0 0 0 0 0 0 0 127 0" result="hardAlpha"/>
<feOffset dy="-0.795"/>
<feComposite in2="hardAlpha" operator="arithmetic" k2="-1" k3="1"/>
<feColorMatrix type="matrix" values="0 0 0 0 0 0 0 0 0 0 0 0 0 0 0 0 0 0 0.08 0"/>
<feBlend mode="normal" in2="shape" result="effect1_innerShadow_99_2721"/>
</filter>
<linearGradient id="paint0_linear_99_2721" x1="19.4042" y1="11.687" x2="6.91592" y2="24.1267" gradientUnits="userSpaceOnUse">
<stop stop-color="#00A0FF"/>
<stop offset="0.0066" stop-color="#00A1FF"/>
<stop offset="0.2601" stop-color="#00BEFF"/>
<stop offset="0.5122" stop-color="#00D2FF"/>
<stop offset="0.7604" stop-color="#00DFFF"/>
<stop offset="1" stop-color="#00E3FF"/>
</linearGradient>
<linearGradient id="paint1_linear_99_2721" x1="28.324" y1="20.0897" x2="10.3886" y2="20.0897" gradientUnits="userSpaceOnUse">
<stop stop-color="#FFE000"/>
<stop offset="0.4087" stop-color="#FFBD00"/>
<stop offset="0.7754" stop-color="#FFA500"/>
<stop offset="1" stop-color="#FF9C00"/>
</linearGradient>
<linearGradient id="paint2_linear_99_2721" x1="21.6487" y1="21.7964" x2="4.71309" y2="38.6662" gradientUnits="userSpaceOnUse">
<stop stop-color="#FF3A44"/>
<stop offset="1" stop-color="#C31162"/>
</linearGradient>
<linearGradient id="paint3_linear_99_2721" x1="8.65395" y1="5.33765" x2="16.2162" y2="12.8705" gradientUnits="userSpaceOnUse">
<stop stop-color="#32A071"/>
<stop offset="0.0685" stop-color="#2DA771"/>
<stop offset="0.4762" stop-color="#15CF74"/>
<stop offset="0.8009" stop-color="#06E775"/>
<stop offset="1" stop-color="#00F076"/>
</linearGradient>
</defs>
</svg>
