<svg width="24" height="24" viewBox="0 0 24 24" fill="none" xmlns="http://www.w3.org/2000/svg">
<rect width="24" height="24" rx="12" fill="#D2D2D2"/>
<g clip-path="url(#clip0_295_2960)">
<path d="M6 12C6 12.7879 6.15519 13.5681 6.45672 14.2961C6.75825 15.0241 7.20021 15.6855 7.75736 16.2426C8.31451 16.7998 8.97595 17.2417 9.7039 17.5433C10.4319 17.8448 11.2121 18 12 18C12.7879 18 13.5681 17.8448 14.2961 17.5433C15.0241 17.2417 15.6855 16.7998 16.2426 16.2426C16.7998 15.6855 17.2417 15.0241 17.5433 14.2961C17.8448 13.5681 18 12.7879 18 12C18 11.2121 17.8448 10.4319 17.5433 9.7039C17.2417 8.97595 16.7998 8.31451 16.2426 7.75736C15.6855 7.20021 15.0241 6.75825 14.2961 6.45672C13.5681 6.15519 12.7879 6 12 6C11.2121 6 10.4319 6.15519 9.7039 6.45672C8.97595 6.75825 8.31451 7.20021 7.75736 7.75736C7.20021 8.31451 6.75825 8.97595 6.45672 9.7039C6.15519 10.4319 6 11.2121 6 12Z" stroke="white" stroke-width="1.2" stroke-linecap="round" stroke-linejoin="round"/>
<path d="M12 15.333V15.3397" stroke="white" stroke-width="1.2" stroke-linecap="round" stroke-linejoin="round"/>
<path d="M11.9998 12.9998C11.9876 12.7834 12.0459 12.5688 12.1662 12.3885C12.2864 12.2081 12.462 12.0717 12.6665 11.9998C12.9171 11.904 13.142 11.7513 13.3236 11.5538C13.5051 11.3562 13.6383 11.1193 13.7127 10.8615C13.7871 10.6038 13.8007 10.3322 13.7523 10.0684C13.704 9.80448 13.595 9.55542 13.434 9.34079C13.2731 9.12617 13.0645 8.95184 12.8247 8.83153C12.5849 8.71122 12.3205 8.64821 12.0522 8.64747C11.7839 8.64672 11.5191 8.70826 11.2787 8.82724C11.0382 8.94622 10.8287 9.11939 10.6665 9.33312" stroke="white" stroke-width="1.2" stroke-linecap="round" stroke-linejoin="round"/>
</g>
<defs>
<clipPath id="clip0_295_2960">
<rect width="16" height="16" fill="white" transform="translate(4 4)"/>
</clipPath>
</defs>
</svg>
