<svg width="232" height="220" viewBox="0 0 232 220" fill="none" xmlns="http://www.w3.org/2000/svg">
<g opacity="0.41">
<path d="M231.389 138.751C231.605 135.045 231.51 131.319 231.092 127.634C229.131 110.312 220.239 93.9754 207.157 82.451C202.49 78.338 197.179 74.6574 194.141 69.227C189.026 60.0859 189.414 49.5822 183.067 40.5567C176.709 31.5212 167.45 24.4768 157.004 20.8566C125.857 10.0663 82.2524 27.6345 86.1804 65.1492C86.1955 65.285 86.2106 65.4811 86.2256 65.7275C86.7487 73.521 80.6279 80.0727 72.8424 80.2587C44.1045 80.9475 19.3699 103.096 14.079 131.153C10.6741 149.199 16.2467 168.975 29.4488 181.736C39.3014 191.264 52.5237 196.499 65.756 200.094C92.281 207.304 120.194 208.817 147.544 206.057C173.144 203.478 200.146 196.116 216.703 176.426C225.535 165.928 230.594 152.457 231.389 138.751Z" fill="#E1E2FE"/>
</g>
<g opacity="0.31">
<path d="M106.372 12.5602C106.961 8.91689 104.484 5.48606 100.84 4.89727C97.1953 4.30848 93.7639 6.78469 93.1752 10.428C92.5866 14.0714 95.0636 17.5022 98.7078 18.091C102.352 18.6798 105.783 16.2036 106.372 12.5602Z" fill="#E1E2FE"/>
</g>
<g opacity="0.31">
<path d="M190.113 10.8654C192.018 10.8654 193.563 9.32107 193.563 7.41608C193.563 5.51109 192.018 3.9668 190.113 3.9668C188.207 3.9668 186.663 5.51109 186.663 7.41608C186.663 9.32107 188.207 10.8654 190.113 10.8654Z" fill="#E1E2FE"/>
</g>
<g opacity="0.31">
<path d="M72.8313 27.5771C73.4489 25.1008 71.9417 22.5926 69.4648 21.9749C66.988 21.3572 64.4795 22.8638 63.8619 25.3401C63.2443 27.8163 64.7515 30.3245 67.2283 30.9422C69.7051 31.56 72.2137 30.0533 72.8313 27.5771Z" fill="#E1E2FE"/>
</g>
<g opacity="0.31">
<path d="M15.0397 204.584C20.8533 204.584 25.5662 199.872 25.5662 194.06C25.5662 188.248 20.8533 183.536 15.0397 183.536C9.22607 183.536 4.51318 188.248 4.51318 194.06C4.51318 199.872 9.22607 204.584 15.0397 204.584Z" fill="#E1E2FE"/>
</g>
<path opacity="0.47" d="M228.528 29.8767C231.53 24.034 229.222 16.864 223.378 13.8672C217.533 10.8654 206.303 11.0867 203.3 16.9293C200.298 22.772 209.295 27.785 212.962 33.2355C218.082 40.838 225.525 35.7194 228.528 29.8767Z" fill="#ECF1F7"/>
<path opacity="0.47" d="M202.973 209.456C207.203 212.186 212.841 210.969 215.572 206.741C218.303 202.512 218.982 193.939 214.757 191.209C210.528 188.479 206.026 194.955 201.59 197.338C195.409 200.667 198.744 206.731 202.973 209.456Z" fill="#E1E2FE"/>
<path opacity="0.47" d="M30.3796 3.07196C25.7324 -1.24719 18.4599 -0.980698 14.1396 3.67031C9.8194 8.32131 7.08843 18.82 11.7406 23.1392C16.3928 27.4583 23.4088 20.4039 29.4391 18.4178C37.8432 15.6523 35.0317 7.38608 30.3796 3.07196Z" fill="#E1E2FE"/>
<path opacity="0.47" d="M4.74463 53.2677C0.600413 62.2681 -0.536229 72.641 1.45541 82.3403C3.79408 93.744 10.8956 102.503 8.43118 114.666C6.93242 122.077 6.55521 128.941 5.79578 136.272C4.23163 151.326 14.0088 164.59 26.1397 171.755C35.9923 177.573 47.5397 179.755 58.8659 179.599C69.0605 179.458 79.235 177.578 89.1127 175.049C98.6333 172.61 107.938 169.397 117.916 170.413C126.215 171.257 133.688 174.842 141.418 177.517C159.871 183.903 182.217 184.803 199.09 175.084C209.919 168.844 217.498 158.717 220.858 147.821C223.543 139.118 223.885 130.977 221.874 122.087C219.807 112.961 216.316 103.765 217.397 94.2569C218.152 87.6299 221.185 81.2391 220.626 74.592C220.259 70.1773 218.313 66.0341 215.934 62.2982C207.253 48.6469 192.713 39.5058 177.338 34.4727C162.869 29.7311 147.941 26.302 132.878 27.4434C101.726 29.8015 95.3793 24.8539 63.5433 18.0458C42.9881 13.6462 19.9988 29.3138 7.9735 47.4603C6.74633 49.3106 5.67004 51.2565 4.74463 53.2677Z" fill="#E1E2FE"/>
<path opacity="0.81" d="M26.175 67.2913C25.5363 74.4765 27.9605 81.8829 25.9336 88.9977C23.5094 97.5203 16.4834 103.901 13.6217 112.268C9.39194 124.627 9.59311 138.479 14.7332 150.527C17.2076 156.334 20.8237 161.724 25.7626 165.455C33.3771 171.207 43.3504 172.469 52.7352 171.74C66.6968 170.654 81.433 164.61 95.47 166.26C103.215 167.17 105.584 175.552 109.582 181.083C114.109 187.337 120.27 192.25 127.085 195.518C139.633 201.542 154.696 202.11 167.521 196.65C181.216 190.817 193.151 176.582 192.366 160.477C192.004 153.026 189.022 145.629 190.4 138.308C192.135 129.122 199.055 120.75 204.075 113.268C209.617 105.002 212.972 95.147 213.626 85.0908C213.631 84.9752 213.641 84.8646 213.646 84.7489C214.677 67.4019 203.728 51.5785 187.216 46.1481L152.081 34.5935C116.433 22.873 80.8143 23.2601 48.0328 40.4613C40.9413 44.1821 29.3888 55.2741 27.0099 62.9219C26.5623 64.37 26.3058 65.8231 26.175 67.2913Z" fill="#E1E2FE"/>
<path opacity="0.58" d="M225.58 182.797C226.83 182.797 227.843 181.784 227.843 180.534C227.843 179.285 226.83 178.271 225.58 178.271C224.33 178.271 223.317 179.285 223.317 180.534C223.317 181.784 224.33 182.797 225.58 182.797Z" fill="#3E479B"/>
<path opacity="0.58" d="M39.2666 203.663C40.5166 203.663 41.5299 202.65 41.5299 201.401C41.5299 200.151 40.5166 199.138 39.2666 199.138C38.0167 199.138 37.0034 200.151 37.0034 201.401C37.0034 202.65 38.0167 203.663 39.2666 203.663Z" fill="#3E479B"/>
<path opacity="0.58" d="M182.116 212.674C183.088 212.674 183.876 211.886 183.876 210.914C183.876 209.942 183.088 209.154 182.116 209.154C181.144 209.154 180.356 209.942 180.356 210.914C180.356 211.886 181.144 212.674 182.116 212.674Z" fill="#EF929C"/>
<path opacity="0.58" d="M29.2777 43.4777C29.6942 43.4777 30.0319 43.14 30.0319 42.7235C30.0319 42.3069 29.6942 41.9692 29.2777 41.9692C28.8611 41.9692 28.5234 42.3069 28.5234 42.7235C28.5234 43.14 28.8611 43.4777 29.2777 43.4777Z" fill="#3E479B"/>
<path opacity="0.58" d="M189.977 20.2278C189.665 21.696 188.222 22.6312 186.753 22.3195C185.285 22.0077 184.349 20.5647 184.661 19.0964C184.973 17.6282 186.416 16.693 187.885 17.0048C189.353 17.3165 190.289 18.7596 189.977 20.2278Z" fill="#EF929C"/>
<path opacity="0.58" d="M22.9559 219.286C22.8503 219.774 22.3726 220.085 21.8799 219.985C21.3921 219.879 21.0804 219.401 21.181 218.909C21.2865 218.421 21.7642 218.109 22.257 218.21C22.7497 218.315 23.0615 218.793 22.9559 219.286Z" fill="#3E479B"/>
<g opacity="0.66">
<path d="M88.1571 84.0848L84.1537 83.778C83.8469 80.7662 82.8914 77.9253 81.4127 75.4113L84.4605 72.7967C86.0045 71.4743 86.1806 69.1513 84.8578 67.6076C83.5351 66.064 81.2115 65.888 79.6675 67.2104L76.6197 69.825C74.3615 67.9847 71.6959 66.607 68.7638 65.8478L69.0706 61.8454C69.2265 59.8191 67.7076 58.0492 65.6808 57.8933C63.6539 57.7375 61.8836 59.2559 61.7277 61.2823L61.4209 65.2847C58.4083 65.5914 55.5667 66.5467 53.052 68.025L50.4367 64.9779C49.114 63.4343 46.7904 63.2583 45.2463 64.5807C43.7023 65.9031 43.5263 68.2261 44.849 69.7697L47.4643 72.8168C45.6236 75.0744 44.2455 77.7393 43.4861 80.6707L39.4827 80.364C37.4558 80.2081 35.6855 81.7266 35.5296 83.7529C35.3736 85.7792 36.8925 87.5491 38.9194 87.705L42.9228 88.0117C43.2296 91.0236 44.1851 93.8644 45.6638 96.3785L42.616 98.9931C41.0719 100.316 40.8959 102.638 42.2187 104.182C43.5414 105.726 45.865 105.902 47.409 104.579L50.4568 101.965C52.715 103.805 55.3806 105.183 58.3127 105.942L58.0059 109.944C57.85 111.971 59.3689 113.741 61.3957 113.896C63.4226 114.052 65.1929 112.534 65.3488 110.507L65.6556 106.505C68.6682 106.198 71.5098 105.243 74.0245 103.765L76.6398 106.812C77.9625 108.355 80.2861 108.531 81.8302 107.209C83.3742 105.887 83.5502 103.564 82.2275 102.02L79.6122 98.973C81.4529 96.7154 82.831 94.0505 83.5904 91.1191L87.5938 91.4258C89.6207 91.5817 91.391 90.0632 91.5469 88.0369C91.7028 86.0055 90.184 84.2356 88.1571 84.0848ZM62.3966 100.848C54.1383 100.22 47.9522 93.0147 48.5859 84.7535C49.2145 76.4973 56.4217 70.3128 64.685 70.9463C72.9432 71.5748 79.1294 78.7801 78.4957 87.0413C77.862 95.3025 70.6599 101.477 62.3966 100.848Z" fill="white"/>
<path d="M173.672 196.921C173.189 196.921 172.706 196.805 172.264 196.574C171.535 196.197 171.002 195.558 170.755 194.779L170.036 192.511C168.175 192.702 166.329 192.541 164.534 192.038L163.437 194.15C162.658 195.649 160.802 196.237 159.303 195.457C158.574 195.08 158.041 194.442 157.794 193.662C157.548 192.883 157.618 192.053 157.995 191.324L159.092 189.213C157.643 188.036 156.451 186.613 155.536 184.989L153.268 185.708C151.653 186.221 149.928 185.321 149.415 183.712C149.169 182.932 149.239 182.103 149.617 181.374C149.994 180.645 150.632 180.112 151.412 179.865L153.68 179.146C153.489 177.291 153.65 175.441 154.153 173.646L152.041 172.549C151.311 172.172 150.778 171.534 150.532 170.754C150.285 169.975 150.356 169.145 150.733 168.416C151.11 167.687 151.749 167.154 152.529 166.908C153.308 166.661 154.138 166.732 154.867 167.109L156.98 168.205C158.156 166.757 159.58 165.565 161.204 164.65L160.485 162.383C159.977 160.769 160.872 159.044 162.482 158.531C163.261 158.285 164.091 158.355 164.82 158.732C165.55 159.109 166.083 159.748 166.329 160.527L167.048 162.795C168.909 162.604 170.755 162.765 172.551 163.268L173.647 161.156C174.427 159.657 176.282 159.069 177.781 159.848C179.28 160.628 179.868 162.483 179.089 163.982L177.992 166.093C179.441 167.27 180.633 168.693 181.548 170.317L183.816 169.598C184.596 169.352 185.426 169.422 186.155 169.799C186.884 170.176 187.417 170.815 187.664 171.594C188.172 173.208 187.277 174.933 185.667 175.446L183.399 176.165C183.59 178.02 183.429 179.87 182.926 181.665L185.039 182.762C186.537 183.541 187.126 185.396 186.346 186.895C185.969 187.624 185.33 188.157 184.551 188.403C183.771 188.649 182.941 188.579 182.212 188.202L180.1 187.106C178.918 188.554 177.499 189.746 175.875 190.661L176.594 192.928C176.841 193.708 176.77 194.542 176.393 195.266C176.016 195.995 175.377 196.528 174.598 196.775C174.296 196.87 173.984 196.921 173.672 196.921ZM170.74 191.41L171.711 194.477C171.877 195 172.239 195.432 172.727 195.684C173.214 195.935 173.773 195.985 174.301 195.82C174.824 195.654 175.256 195.292 175.508 194.804C175.759 194.316 175.81 193.758 175.644 193.23L174.673 190.163L175.045 189.967C176.826 189.032 178.349 187.749 179.577 186.155L179.833 185.824L182.69 187.307C183.178 187.558 183.736 187.609 184.264 187.443C184.787 187.277 185.22 186.915 185.471 186.427C185.994 185.421 185.602 184.174 184.591 183.646L181.734 182.163L181.86 181.761C182.458 179.84 182.629 177.859 182.368 175.863L182.313 175.446L185.381 174.475C186.462 174.133 187.065 172.972 186.723 171.886C186.557 171.363 186.195 170.93 185.707 170.679C185.22 170.428 184.661 170.377 184.138 170.543L181.07 171.514L180.874 171.142C179.939 169.362 178.656 167.838 177.062 166.611L176.73 166.355L178.214 163.499C178.737 162.488 178.344 161.241 177.334 160.718C176.323 160.195 175.075 160.588 174.552 161.598L173.069 164.454L172.666 164.328C170.745 163.73 168.763 163.564 166.767 163.821L166.349 163.876L165.379 160.809C165.213 160.286 164.851 159.853 164.363 159.602C163.875 159.351 163.317 159.3 162.789 159.466C161.707 159.808 161.104 160.97 161.446 162.056L162.416 165.123L162.044 165.319C160.264 166.254 158.74 167.536 157.513 169.13L157.256 169.462L154.399 167.979C153.912 167.727 153.353 167.677 152.83 167.843C152.307 168.009 151.875 168.371 151.623 168.859C151.372 169.346 151.321 169.905 151.487 170.428C151.653 170.95 152.016 171.383 152.503 171.634L155.36 173.118L155.234 173.52C154.636 175.441 154.465 177.422 154.726 179.418L154.782 179.835L151.714 180.806C151.191 180.971 150.758 181.334 150.507 181.821C150.255 182.309 150.205 182.867 150.371 183.395C150.713 184.476 151.875 185.079 152.961 184.738L156.029 183.767L156.225 184.139C157.161 185.919 158.443 187.443 160.037 188.67L160.369 188.926L158.886 191.782C158.634 192.27 158.584 192.828 158.75 193.351C158.916 193.874 159.278 194.306 159.766 194.557C160.777 195.08 162.024 194.683 162.547 193.678L164.031 190.822L164.433 190.947C166.354 191.546 168.336 191.712 170.328 191.455L170.74 191.41ZM168.532 188.599C166.802 188.599 165.082 188.182 163.498 187.362C160.902 186.015 158.986 183.737 158.101 180.951C157.216 178.166 157.472 175.199 158.82 172.605C160.168 170.01 162.447 168.094 165.233 167.21C168.024 166.325 170.986 166.581 173.582 167.929C176.177 169.276 178.093 171.554 178.978 174.339C179.863 177.125 179.607 180.092 178.259 182.686C176.911 185.281 174.633 187.196 171.846 188.081C170.76 188.428 169.644 188.599 168.532 188.599ZM168.557 167.702C167.546 167.702 166.535 167.858 165.545 168.17C163.01 168.969 160.943 170.709 159.721 173.067C158.498 175.425 158.262 178.116 159.067 180.65C159.866 183.184 161.607 185.25 163.965 186.472C166.324 187.694 169.02 187.925 171.55 187.126C174.085 186.326 176.152 184.587 177.374 182.229C178.596 179.87 178.832 177.18 178.028 174.646C177.228 172.112 175.488 170.045 173.129 168.824C171.691 168.079 170.126 167.702 168.557 167.702Z" fill="white"/>
<path d="M200.086 178.151C199.9 178.151 199.709 178.136 199.518 178.11C197.36 177.799 195.861 175.787 196.178 173.635L196.661 170.327C194.227 169.457 192.024 168.15 190.103 166.425L187.422 168.421C186.577 169.05 185.536 169.316 184.49 169.165C183.444 169.015 182.523 168.466 181.895 167.622C180.592 165.877 180.954 163.398 182.699 162.096L185.38 160.1C184.274 157.767 183.645 155.283 183.504 152.703L180.195 152.221C178.037 151.909 176.538 149.898 176.855 147.746C177.006 146.7 177.554 145.78 178.399 145.146C179.244 144.518 180.285 144.251 181.331 144.402L184.641 144.885C185.511 142.451 186.818 140.249 188.544 138.328L186.547 135.653C185.918 134.808 185.652 133.767 185.803 132.722C185.953 131.676 186.502 130.756 187.352 130.122C188.197 129.494 189.238 129.227 190.284 129.378C191.33 129.529 192.25 130.077 192.884 130.927L194.881 133.602C197.214 132.495 199.699 131.867 202.279 131.726L202.762 128.418C203.073 126.26 205.09 124.762 207.238 125.079C208.284 125.23 209.204 125.778 209.833 126.623C210.462 127.467 210.728 128.508 210.577 129.554L210.095 132.862C212.529 133.732 214.732 135.04 216.653 136.764L219.334 134.768C221.079 133.466 223.558 133.823 224.861 135.573C226.163 137.317 225.801 139.796 224.056 141.098L221.38 143.095C222.487 145.428 223.116 147.912 223.256 150.491L226.566 150.974C228.723 151.285 230.217 153.297 229.905 155.449C229.593 157.606 227.582 159.104 225.429 158.787L222.12 158.305C221.25 160.738 219.942 162.941 218.217 164.861L220.214 167.541C221.516 169.286 221.154 171.765 219.409 173.067C218.564 173.696 217.523 173.962 216.477 173.811C215.431 173.66 214.51 173.112 213.877 172.263L211.88 169.588C209.546 170.694 207.062 171.322 204.482 171.463L203.999 174.772C203.707 176.733 202.012 178.151 200.086 178.151ZM190.163 165.118L190.47 165.404C192.461 167.265 194.78 168.647 197.37 169.512L197.767 169.643L197.169 173.776C196.938 175.38 198.054 176.878 199.659 177.11C201.263 177.341 202.762 176.225 202.993 174.621L203.592 170.488L204.014 170.473C206.74 170.382 209.36 169.718 211.794 168.497L212.172 168.311L214.671 171.659C215.139 172.288 215.828 172.7 216.608 172.811C217.387 172.926 218.162 172.725 218.79 172.258C220.093 171.287 220.36 169.437 219.389 168.14L216.889 164.791L217.176 164.484C219.037 162.493 220.42 160.175 221.285 157.586L221.416 157.188L225.55 157.787C227.159 158.018 228.653 156.902 228.884 155.298C229.116 153.694 227.999 152.195 226.395 151.964L222.261 151.366L222.246 150.944C222.155 148.218 221.491 145.599 220.269 143.165L220.083 142.788L223.432 140.289C224.735 139.319 225.002 137.473 224.031 136.171C223.563 135.542 222.874 135.13 222.095 135.019C221.315 134.904 220.541 135.105 219.912 135.573L216.562 138.072L216.256 137.785C214.264 135.925 211.945 134.542 209.355 133.677L208.958 133.546L209.556 129.413C209.667 128.634 209.471 127.859 209.003 127.231C208.53 126.602 207.846 126.19 207.067 126.079C205.457 125.843 203.964 126.964 203.732 128.568L203.134 132.702L202.711 132.717C199.985 132.807 197.365 133.471 194.931 134.693L194.554 134.879L192.054 131.53C191.586 130.901 190.897 130.489 190.118 130.379C189.338 130.268 188.564 130.464 187.935 130.932C187.306 131.399 186.894 132.088 186.783 132.867C186.673 133.647 186.869 134.421 187.337 135.05L189.836 138.398L189.549 138.705C187.689 140.696 186.305 143.014 185.44 145.604L185.31 146.001L181.176 145.403C180.401 145.292 179.621 145.488 178.993 145.956C178.364 146.423 177.952 147.112 177.841 147.891C177.61 149.495 178.726 150.994 180.331 151.225L184.465 151.823L184.48 152.246C184.57 154.971 185.234 157.591 186.456 160.024L186.642 160.401L183.293 162.9C182.664 163.368 182.252 164.057 182.141 164.836C182.031 165.616 182.227 166.39 182.694 167.018C183.162 167.647 183.851 168.059 184.631 168.17C185.41 168.28 186.185 168.084 186.813 167.617L190.163 165.118ZM203.385 166.128C198.949 166.128 194.564 164.112 191.712 160.291C186.914 153.865 188.242 144.734 194.669 139.937C197.783 137.614 201.615 136.644 205.457 137.202C209.305 137.76 212.7 139.781 215.023 142.893C217.347 146.006 218.318 149.837 217.759 153.679C217.201 157.525 215.179 160.919 212.066 163.242C209.461 165.193 206.408 166.128 203.385 166.128ZM203.34 138.056C200.443 138.056 197.637 138.982 195.273 140.746C189.288 145.211 188.056 153.709 192.522 159.692C196.988 165.676 205.488 166.908 211.473 162.443C214.37 160.281 216.25 157.118 216.774 153.543C217.292 149.963 216.386 146.398 214.224 143.502C212.061 140.606 208.898 138.72 205.322 138.202C204.653 138.102 203.994 138.056 203.34 138.056Z" fill="white"/>
</g>
<g opacity="0.81">
<path d="M135.056 180.177H124.726C124.449 180.177 124.223 179.95 124.223 179.674C124.223 179.397 124.449 179.171 124.726 179.171H135.056C135.333 179.171 135.559 179.397 135.559 179.674C135.559 179.95 135.333 180.177 135.056 180.177Z" fill="white"/>
<path d="M135.056 190.912H124.726C124.449 190.912 124.223 190.686 124.223 190.409C124.223 190.133 124.449 189.906 124.726 189.906H135.056C135.333 189.906 135.559 190.133 135.559 190.409C135.559 190.686 135.333 190.912 135.056 190.912Z" fill="white"/>
<path d="M142.852 201.752H79.0436C78.2892 201.752 77.6807 201.139 77.6807 200.39V167.28C77.6807 166.525 78.2942 165.917 79.0436 165.917H142.852C143.606 165.917 144.215 166.53 144.215 167.28V200.39C144.22 201.144 143.606 201.752 142.852 201.752ZM79.0436 166.923C78.8475 166.923 78.6865 167.084 78.6865 167.28V200.39C78.6865 200.586 78.8475 200.747 79.0436 200.747H142.852C143.048 200.747 143.209 200.586 143.209 200.39V167.28C143.209 167.084 143.048 166.923 142.852 166.923H79.0436Z" fill="white"/>
<path opacity="0.66" d="M142.852 201.752H79.0436C78.2892 201.752 77.6807 201.139 77.6807 200.39V167.28C77.6807 166.525 78.2942 165.917 79.0436 165.917H142.852C143.606 165.917 144.215 166.53 144.215 167.28V200.39C144.22 201.144 143.606 201.752 142.852 201.752ZM79.0436 166.923C78.8475 166.923 78.6865 167.084 78.6865 167.28V200.39C78.6865 200.586 78.8475 200.747 79.0436 200.747H142.852C143.048 200.747 143.209 200.586 143.209 200.39V167.28C143.209 167.084 143.048 166.923 142.852 166.923H79.0436Z" fill="white"/>
<path d="M135.056 174.963H85.8233C85.5466 174.963 85.3203 174.736 85.3203 174.46C85.3203 174.183 85.5466 173.957 85.8233 173.957H135.056C135.333 173.957 135.559 174.183 135.559 174.46C135.559 174.741 135.333 174.963 135.056 174.963Z" fill="white"/>
<path d="M135.056 185.386H85.8233C85.5466 185.386 85.3203 185.16 85.3203 184.883C85.3203 184.607 85.5466 184.38 85.8233 184.38H135.056C135.333 184.38 135.559 184.607 135.559 184.883C135.559 185.16 135.333 185.386 135.056 185.386Z" fill="white"/>
<path d="M112.364 180.177H85.8184C85.5418 180.177 85.3154 179.95 85.3154 179.674C85.3154 179.397 85.5418 179.171 85.8184 179.171H112.364C112.64 179.171 112.866 179.397 112.866 179.674C112.866 179.95 112.645 180.177 112.364 180.177Z" fill="white"/>
<path d="M112.364 190.912H85.8184C85.5418 190.912 85.3154 190.686 85.3154 190.409C85.3154 190.133 85.5418 189.906 85.8184 189.906H112.364C112.64 189.906 112.866 190.133 112.866 190.409C112.866 190.686 112.645 190.912 112.364 190.912Z" fill="white"/>
<path d="M103.723 195.885H85.8233C85.5466 195.885 85.3203 195.658 85.3203 195.382C85.3203 195.105 85.5466 194.879 85.8233 194.879H103.723C103.999 194.879 104.226 195.105 104.226 195.382C104.226 195.658 103.999 195.885 103.723 195.885Z" fill="white"/>
</g>
<g opacity="0.81">
<path d="M36.2035 147.982H24.5957C24.3191 147.982 24.0928 147.755 24.0928 147.479C24.0928 147.202 24.3191 146.976 24.5957 146.976H36.2086C36.4852 146.976 36.7115 147.202 36.7115 147.479C36.7065 147.755 36.4852 147.982 36.2035 147.982Z" fill="white"/>
<path d="M36.2035 135.914H24.5957C24.3191 135.914 24.0928 135.688 24.0928 135.412C24.0928 135.135 24.3191 134.909 24.5957 134.909H36.2086C36.4852 134.909 36.7115 135.135 36.7115 135.412C36.7065 135.688 36.4852 135.914 36.2035 135.914Z" fill="white"/>
<path d="M87.6492 162.875H15.7238C14.9694 162.875 14.3608 162.262 14.3608 161.512V124.088C14.3608 123.334 14.9744 122.726 15.7238 122.726H87.6542C88.4086 122.726 89.0172 123.339 89.0172 124.088V161.512C89.0121 162.262 88.4036 162.875 87.6492 162.875ZM15.7238 123.726C15.5277 123.726 15.3667 123.887 15.3667 124.083V161.507C15.3667 161.704 15.5277 161.864 15.7238 161.864H87.6542C87.8503 161.864 88.0113 161.704 88.0113 161.507V124.083C88.0113 123.887 87.8503 123.726 87.6542 123.726H15.7238Z" fill="white"/>
<path opacity="0.66" d="M87.6492 162.875H15.7238C14.9694 162.875 14.3608 162.262 14.3608 161.512V124.088C14.3608 123.334 14.9744 122.726 15.7238 122.726H87.6542C88.4086 122.726 89.0172 123.339 89.0172 124.088V161.512C89.0121 162.262 88.4036 162.875 87.6492 162.875ZM15.7238 123.726C15.5277 123.726 15.3667 123.887 15.3667 124.083V161.507C15.3667 161.704 15.5277 161.864 15.7238 161.864H87.6542C87.8503 161.864 88.0113 161.704 88.0113 161.507V124.083C88.0113 123.887 87.8503 123.726 87.6542 123.726H15.7238Z" fill="white"/>
<path d="M79.9291 153.84H24.5957C24.3191 153.84 24.0928 153.613 24.0928 153.337C24.0928 153.06 24.3191 152.834 24.5957 152.834H79.9291C80.2057 152.834 80.432 153.06 80.432 153.337C80.432 153.613 80.2057 153.84 79.9291 153.84Z" fill="white"/>
<path d="M79.9291 142.124H24.5957C24.3191 142.124 24.0928 141.898 24.0928 141.621C24.0928 141.345 24.3191 141.119 24.5957 141.119H79.9291C80.2057 141.119 80.432 141.345 80.432 141.621C80.432 141.898 80.2057 142.124 79.9291 142.124Z" fill="white"/>
<path d="M79.9291 147.982H50.0947C49.8181 147.982 49.5918 147.755 49.5918 147.479C49.5918 147.202 49.8181 146.976 50.0947 146.976H79.9291C80.2057 146.976 80.432 147.202 80.432 147.479C80.432 147.755 80.2057 147.982 79.9291 147.982Z" fill="white"/>
<path d="M79.9291 135.914H50.0947C49.8181 135.914 49.5918 135.688 49.5918 135.412C49.5918 135.135 49.8181 134.909 50.0947 134.909H79.9291C80.2057 134.909 80.432 135.135 80.432 135.412C80.432 135.688 80.2057 135.914 79.9291 135.914Z" fill="white"/>
<path d="M79.9291 130.323H59.8115C59.5349 130.323 59.3086 130.097 59.3086 129.82C59.3086 129.544 59.5349 129.317 59.8115 129.317H79.9291C80.2057 129.317 80.432 129.544 80.432 129.82C80.432 130.097 80.2057 130.323 79.9291 130.323Z" fill="white"/>
</g>
<path opacity="0.14" d="M171.429 183.194L116.397 150.577C115.955 150.315 115.809 149.742 116.07 149.3L160.495 74.3907C160.756 73.9482 161.33 73.8024 161.772 74.0639L216.804 106.681C217.247 106.943 217.392 107.516 217.131 107.958L172.706 182.867C172.445 183.31 171.871 183.455 171.429 183.194Z" fill="#3E479B"/>
<path d="M170.001 180.192L114.969 147.575C114.526 147.313 114.381 146.74 114.642 146.298L159.067 71.3888C159.328 70.9463 159.902 70.8005 160.344 71.0619L215.376 103.679C215.818 103.941 215.964 104.514 215.703 104.956L171.278 179.865C171.017 180.308 170.443 180.454 170.001 180.192Z" fill="#F7A9B4"/>
<path opacity="0.14" d="M185.808 179.272L122.89 167.677C122.382 167.581 122.05 167.099 122.141 166.591L137.938 80.952C138.034 80.4442 138.517 80.1123 139.025 80.2029L201.942 91.7977C202.45 91.8932 202.782 92.3759 202.692 92.8837L186.899 178.528C186.799 179.035 186.316 179.367 185.808 179.272Z" fill="#3E479B"/>
<path d="M136.76 77.6374L120.633 165.109L185.38 177.046L201.506 89.574L136.76 77.6374Z" fill="white"/>
<path opacity="0.39" d="M184.465 176.863L121.547 165.268C121.039 165.173 120.708 164.69 120.798 164.182L136.59 78.5385C136.686 78.0306 137.169 77.6988 137.677 77.7893L200.594 89.3841C201.102 89.4796 201.434 89.9623 201.344 90.4702L185.551 176.114C185.456 176.622 184.968 176.959 184.465 176.863Z" fill="#F7A9B4"/>
<path d="M191.707 99.8627C191.677 99.8627 191.647 99.8577 191.617 99.8526L175.87 96.9514C175.598 96.9011 175.417 96.6397 175.467 96.3682C175.518 96.0966 175.779 95.9156 176.056 95.9659L191.803 98.8671C192.074 98.9174 192.255 99.1789 192.205 99.4504C192.16 99.6968 191.949 99.8627 191.707 99.8627Z" fill="white"/>
<path d="M190.782 104.896C190.752 104.896 190.722 104.891 190.691 104.886L174.944 101.985C174.673 101.934 174.492 101.673 174.542 101.401C174.592 101.13 174.854 100.949 175.131 100.999L190.878 103.9C191.149 103.951 191.33 104.212 191.28 104.484C191.23 104.725 191.018 104.896 190.782 104.896Z" fill="white"/>
<path d="M189.776 110.362C189.746 110.362 189.716 110.357 189.686 110.352L173.939 107.45C173.667 107.4 173.486 107.139 173.536 106.867C173.587 106.596 173.843 106.415 174.125 106.465L189.872 109.366C190.143 109.416 190.324 109.678 190.274 109.949C190.224 110.191 190.013 110.362 189.776 110.362Z" fill="white"/>
<path opacity="0.14" d="M165.409 115.008L138.426 110.035C137.878 109.934 137.516 109.406 137.616 108.863L142.968 79.8512C143.068 79.3031 143.596 78.9411 144.14 79.0417L171.122 84.0145C171.67 84.115 172.033 84.643 171.932 85.186L166.581 114.198C166.48 114.746 165.957 115.108 165.409 115.008Z" fill="#3E479B"/>
<path d="M164.418 113.323L138.693 108.582C138.145 108.481 137.782 107.953 137.883 107.41L142.948 79.9415C143.048 79.3935 143.576 79.0314 144.119 79.132L169.845 83.8735C170.393 83.9741 170.755 84.502 170.655 85.0451L165.59 112.514C165.489 113.067 164.961 113.424 164.418 113.323Z" fill="#599AF2"/>
<path opacity="0.07" d="M170.177 87.6395L142.47 82.5359L142.953 79.9163C143.048 79.3833 143.561 79.0313 144.094 79.1319L169.91 83.8885C170.423 83.984 170.76 84.4768 170.665 84.9846L170.177 87.6395Z" fill="#ECF1F7"/>
<path d="M150.22 96.1974C150.024 96.1974 149.828 96.1773 149.626 96.1421L149.244 96.0717C147.207 95.6946 145.854 93.7336 146.232 91.6973L147.197 86.4479C147.273 86.0356 147.67 85.7691 148.077 85.8445C148.49 85.92 148.756 86.3121 148.681 86.7245L147.715 91.9738C147.489 93.1906 148.299 94.3672 149.516 94.5935L149.898 94.6638C150.844 94.8398 151.759 94.2113 151.935 93.261L154.384 79.9767C154.565 79.0013 153.916 78.056 152.936 77.875L152.282 77.7543C151.241 77.5632 150.245 78.2521 150.049 79.2879L149.989 79.6147C149.913 80.027 149.516 80.2935 149.108 80.2181C148.701 80.1427 148.429 79.7505 148.505 79.3382L148.565 79.0113C148.907 77.156 150.698 75.9241 152.553 76.266L153.207 76.3867C155.003 76.7185 156.195 78.4482 155.863 80.2432L153.414 93.5275C153.132 95.0963 151.759 96.1974 150.22 96.1974Z" fill="#3E479B"/>
<path d="M152.841 85.0402C152.825 85.0402 152.81 85.0402 152.795 85.0352L142.742 83.1849C142.606 83.1597 142.515 83.029 142.54 82.8932C142.565 82.7575 142.696 82.6619 142.832 82.6921L152.886 84.5425C153.022 84.5676 153.112 84.6983 153.087 84.8341C153.067 84.9548 152.961 85.0402 152.841 85.0402Z" fill="white"/>
<path d="M183.58 137C183.549 137 183.519 137 183.489 136.99L135.368 128.121C135.096 128.071 134.915 127.809 134.965 127.538C135.016 127.266 135.272 127.085 135.554 127.135L183.675 136.005C183.947 136.055 184.128 136.317 184.077 136.593C184.027 136.83 183.816 137 183.58 137Z" fill="white"/>
<path d="M180.14 155.66C180.109 155.66 180.079 155.66 180.049 155.65L131.928 146.78C131.656 146.73 131.475 146.468 131.525 146.192C131.576 145.92 131.837 145.734 132.114 145.79L180.235 154.659C180.507 154.709 180.688 154.971 180.638 155.242C180.587 155.489 180.376 155.66 180.14 155.66Z" fill="white"/>
<path d="M156.487 141.652C156.456 141.652 156.426 141.652 156.396 141.641L133.648 137.448C133.376 137.398 133.195 137.136 133.246 136.86C133.296 136.588 133.558 136.402 133.834 136.458L156.582 140.651C156.854 140.701 157.035 140.963 156.984 141.239C156.934 141.486 156.723 141.652 156.487 141.652Z" fill="white"/>
<path d="M159.62 124.652C159.59 124.652 159.559 124.652 159.529 124.641L136.781 120.448C136.51 120.398 136.329 120.136 136.379 119.865C136.429 119.593 136.691 119.412 136.967 119.462L159.715 123.656C159.987 123.706 160.168 123.968 160.118 124.244C160.067 124.486 159.856 124.652 159.62 124.652Z" fill="white"/>
<path d="M181.875 146.257C181.845 146.257 181.814 146.257 181.784 146.247L160.108 142.255C159.836 142.205 159.655 141.943 159.705 141.666C159.755 141.395 160.012 141.214 160.294 141.264L181.97 145.257C182.242 145.307 182.423 145.568 182.373 145.84C182.322 146.086 182.111 146.257 181.875 146.257Z" fill="white"/>
<path d="M176.78 47.43H150.034C149.108 47.43 148.359 46.6808 148.359 45.7556V36.8106C148.359 35.8854 149.108 35.1362 150.034 35.1362H176.78C177.705 35.1362 178.455 35.8854 178.455 36.8106V45.7556C178.455 46.6757 177.705 47.43 176.78 47.43Z" fill="#599AF2"/>
<path d="M196.928 60.8299H159.514C158.589 60.8299 157.839 60.0807 157.839 59.1555V45.8511C157.839 44.9259 158.589 44.1768 159.514 44.1768H196.928C197.853 44.1768 198.603 44.9259 198.603 45.8511V59.1505C198.603 60.0807 197.853 60.8299 196.928 60.8299Z" fill="#F7A9B4"/>
<path d="M167.798 57.3101H209.23C210.482 57.3101 211.503 58.3358 211.503 59.5828V72.2687C211.503 73.5207 210.477 74.5414 209.23 74.5414H167.798C166.545 74.5414 165.524 73.5157 165.524 72.2687V59.5828C165.524 58.3308 166.55 57.3101 167.798 57.3101Z" fill="white"/>
<path opacity="0.74" d="M167.798 57.3101H209.23C210.482 57.3101 211.503 58.3358 211.503 59.5828V72.2687C211.503 73.5207 210.477 74.5414 209.23 74.5414H167.798C166.545 74.5414 165.524 73.5157 165.524 72.2687V59.5828C165.524 58.3308 166.55 57.3101 167.798 57.3101Z" fill="#6D6CD4"/>
<path d="M196.908 67.9494C195.806 67.9494 194.911 67.0543 194.911 65.9532C194.911 64.852 195.806 63.957 196.908 63.957C198.009 63.957 198.904 64.852 198.904 65.9532C198.904 67.0493 198.009 67.9494 196.908 67.9494ZM196.908 64.4548C196.083 64.4548 195.414 65.1236 195.414 65.9482C195.414 66.7728 196.083 67.4415 196.908 67.4415C197.733 67.4415 198.402 66.7728 198.402 65.9482C198.402 65.1286 197.733 64.4548 196.908 64.4548Z" fill="white"/>
<path d="M188.67 67.9494C187.569 67.9494 186.673 67.0543 186.673 65.9532C186.673 64.852 187.569 63.957 188.67 63.957C189.771 63.957 190.667 64.852 190.667 65.9532C190.667 67.0493 189.771 67.9494 188.67 67.9494ZM188.67 64.4548C187.845 64.4548 187.176 65.1236 187.176 65.9482C187.176 66.7728 187.845 67.4415 188.67 67.4415C189.495 67.4415 190.164 66.7728 190.164 65.9482C190.164 65.1286 189.495 64.4548 188.67 64.4548Z" fill="white"/>
<path d="M180.985 67.9494C179.883 67.9494 178.988 67.0543 178.988 65.9532C178.988 64.852 179.883 63.957 180.985 63.957C182.086 63.957 182.982 64.852 182.982 65.9532C182.982 67.0493 182.086 67.9494 180.985 67.9494ZM180.985 64.4548C180.16 64.4548 179.491 65.1236 179.491 65.9482C179.491 66.7728 180.16 67.4415 180.985 67.4415C181.81 67.4415 182.479 66.7728 182.479 65.9482C182.479 65.1286 181.81 64.4548 180.985 64.4548Z" fill="white"/>
<path d="M67.0134 36.3379H131.209C132.501 36.3379 133.552 37.3837 133.552 38.681V133.209C133.552 137.669 129.936 141.285 125.475 141.285H80.8995C71.394 141.285 63.689 133.582 63.689 124.078V39.6615C63.694 37.8262 65.1777 36.3379 67.0134 36.3379Z" fill="white"/>
<path opacity="0.39" d="M64.5088 36.3379H132.295C132.989 36.3379 133.552 36.901 133.552 37.5949V133.587C133.552 137.84 130.102 141.285 125.852 141.285H79.3706C70.71 141.285 63.689 134.265 63.689 125.607V37.1524C63.694 36.7049 64.0561 36.3379 64.5088 36.3379Z" fill="#6D6CD4"/>
<path opacity="0.39" d="M70.4533 36.3379H132.561C133.109 36.3379 133.552 36.7804 133.552 37.3284V133.848C133.552 137.956 130.223 141.285 126.114 141.285H85.3151C76.8004 141.285 69.895 134.386 69.895 125.868V36.891C69.895 36.5843 70.1465 36.3379 70.4533 36.3379Z" fill="#3E479B"/>
<path d="M79.6475 141.264V141.284H135.76C142.218 141.284 147.454 136.05 147.454 129.594V125.154H90.7071V129.594C90.7071 135.834 85.8085 140.938 79.6475 141.264Z" fill="#6161B5"/>
<g opacity="0.28">
<path d="M87.0859 141.264V141.284H137.043C142.791 141.284 147.454 136.05 147.454 129.594V125.154H96.9335V129.594C96.9335 135.834 92.573 140.938 87.0859 141.264Z" fill="#3E479B"/>
</g>
<path d="M122.95 113.057H82.6045C82.3279 113.057 82.1016 112.831 82.1016 112.554C82.1016 112.278 82.3279 112.051 82.6045 112.051H122.95C123.227 112.051 123.453 112.278 123.453 112.554C123.453 112.831 123.227 113.057 122.95 113.057Z" fill="white"/>
<path d="M123.795 96.072H81.8501C81.5735 96.072 81.3472 95.8458 81.3472 95.5692C81.3472 95.2927 81.5735 95.0664 81.8501 95.0664H123.795C124.072 95.0664 124.298 95.2927 124.298 95.5692C124.298 95.8458 124.072 96.072 123.795 96.072Z" fill="white"/>
<path d="M102.778 104.554H81.3423C81.0657 104.554 80.8394 104.328 80.8394 104.052C80.8394 103.775 81.0657 103.549 81.3423 103.549H102.778C103.054 103.549 103.281 103.775 103.281 104.052C103.281 104.333 103.054 104.554 102.778 104.554Z" fill="white"/>
<path d="M101.153 104.554H82.9668C82.6902 104.554 82.4639 104.328 82.4639 104.052C82.4639 103.775 82.6902 103.549 82.9668 103.549H101.153C101.43 103.549 101.656 103.775 101.656 104.052C101.656 104.333 101.43 104.554 101.153 104.554Z" fill="white"/>
<path d="M109.753 77.9153H82.1416C81.865 77.9153 81.6387 77.689 81.6387 77.4125C81.6387 77.1359 81.865 76.9097 82.1416 76.9097H109.753C110.03 76.9097 110.256 77.1359 110.256 77.4125C110.256 77.689 110.03 77.9153 109.753 77.9153Z" fill="white"/>
<path d="M122.553 77.9153H114.144C113.867 77.9153 113.641 77.689 113.641 77.4125C113.641 77.1359 113.867 76.9097 114.144 76.9097H122.553C122.83 76.9097 123.056 77.1359 123.056 77.4125C123.056 77.689 122.83 77.9153 122.553 77.9153Z" fill="white"/>
<path d="M123.795 86.3977H93.8955C93.6189 86.3977 93.3926 86.1714 93.3926 85.8949C93.3926 85.6184 93.6189 85.3921 93.8955 85.3921H123.795C124.072 85.3921 124.298 85.6184 124.298 85.8949C124.298 86.1714 124.072 86.3977 123.795 86.3977Z" fill="white"/>
<path d="M90.9433 86.3977H81.8501C81.5735 86.3977 81.3472 86.1714 81.3472 85.8949C81.3472 85.6184 81.5735 85.3921 81.8501 85.3921H90.9433C91.2199 85.3921 91.4462 85.6184 91.4462 85.8949C91.4462 86.1714 91.2199 86.3977 90.9433 86.3977Z" fill="white"/>
<path d="M122.95 70.7302H82.6045C82.3279 70.7302 82.1016 70.504 82.1016 70.2274C82.1016 69.9509 82.3279 69.7246 82.6045 69.7246H122.95C123.227 69.7246 123.453 69.9509 123.453 70.2274C123.453 70.504 123.227 70.7302 122.95 70.7302Z" fill="white"/>
<path d="M122.95 53.7454H82.6045C82.3279 53.7454 82.1016 53.5191 82.1016 53.2426C82.1016 52.966 82.3279 52.7397 82.6045 52.7397H122.95C123.227 52.7397 123.453 52.966 123.453 53.2426C123.453 53.5191 123.227 53.7454 122.95 53.7454Z" fill="white"/>
<path d="M97.4108 62.2327H82.1416C81.865 62.2327 81.6387 62.0064 81.6387 61.7299C81.6387 61.4533 81.865 61.2271 82.1416 61.2271H97.4108C97.6875 61.2271 97.9138 61.4533 97.9138 61.7299C97.9138 62.0064 97.6875 62.2327 97.4108 62.2327Z" fill="white"/>
<path d="M122.644 62.2327H104.458C104.181 62.2327 103.955 62.0064 103.955 61.7299C103.955 61.4533 104.181 61.2271 104.458 61.2271H122.644C122.92 61.2271 123.147 61.4533 123.147 61.7299C123.147 62.0064 122.92 62.2327 122.644 62.2327Z" fill="white"/>
<path opacity="0.21" d="M176.883 120.992C189.312 108.563 189.312 88.411 176.883 75.982C164.454 63.5529 144.303 63.5529 131.874 75.982C119.444 88.411 119.444 108.563 131.874 120.992C144.303 133.421 164.454 133.421 176.883 120.992Z" fill="white"/>
<path opacity="0.76" d="M129.444 100.773C128.332 100.773 127.432 99.8734 127.432 98.7622C127.432 82.7074 140.498 69.6494 156.552 69.6494C157.664 69.6494 158.564 70.5494 158.564 71.6607C158.564 72.7719 157.664 73.6719 156.552 73.6719C142.711 73.6719 131.456 84.9298 131.456 98.7622C131.456 99.8684 130.55 100.773 129.444 100.773Z" fill="white"/>
<path opacity="0.58" d="M154.384 131.314C136.278 131.314 121.547 116.587 121.547 98.4858C121.547 80.3846 136.278 65.6572 154.384 65.6572C172.49 65.6572 187.221 80.3846 187.221 98.4858C187.226 116.587 172.495 131.314 154.384 131.314ZM154.384 67.6685C137.385 67.6685 123.559 81.4958 123.559 98.4858C123.559 115.476 137.39 129.303 154.384 129.303C171.379 129.303 185.209 115.476 185.209 98.4858C185.209 81.4958 171.384 67.6685 154.384 67.6685Z" fill="#3E479B"/>
<path d="M183.645 121.288C183.691 121.243 183.746 121.203 183.796 121.163C188.645 114.887 191.531 107.024 191.531 98.4858C191.531 77.9761 174.899 61.3481 154.384 61.3481C133.87 61.3481 117.237 77.9761 117.237 98.4858C117.237 118.995 133.87 135.623 154.384 135.623C162.894 135.623 170.725 132.752 176.986 127.94L181.282 123.646L183.645 121.288ZM154.384 130.309C136.802 130.309 122.553 116.059 122.553 98.4858C122.553 80.9075 136.807 66.6629 154.384 66.6629C171.962 66.6629 186.215 80.9125 186.215 98.4858C186.22 116.059 171.967 130.309 154.384 130.309Z" fill="#3E479B"/>
<path d="M154.384 136.126C133.623 136.126 116.734 119.242 116.734 98.4857C116.734 77.7296 133.623 60.8452 154.384 60.8452C175.146 60.8452 192.034 77.7296 192.034 98.4857C192.034 106.883 189.324 114.832 184.194 121.469L184.098 121.565C184.048 121.6 184.023 121.62 184.002 121.64L177.298 128.338C170.665 133.431 162.743 136.126 154.384 136.126ZM154.384 61.8508C134.181 61.8508 117.74 78.2827 117.74 98.4857C117.74 118.689 134.176 135.12 154.384 135.12C162.507 135.12 170.207 132.506 176.655 127.563L183.288 120.931C183.334 120.886 183.384 120.841 183.439 120.805C188.408 114.354 191.029 106.636 191.029 98.4857C191.029 78.2827 174.593 61.8508 154.384 61.8508ZM154.384 130.811C136.555 130.811 122.05 116.31 122.05 98.4857C122.05 80.661 136.555 66.1599 154.384 66.1599C172.214 66.1599 186.718 80.661 186.718 98.4857C186.718 116.31 172.214 130.811 154.384 130.811ZM154.384 67.1656C137.108 67.1656 123.056 81.2141 123.056 98.4857C123.056 115.757 137.108 129.806 154.384 129.806C171.66 129.806 185.713 115.757 185.713 98.4857C185.718 81.2141 171.66 67.1656 154.384 67.1656Z" fill="#3E479B"/>
<path d="M182.725 127.091L181.287 125.653C180.734 125.1 180.734 124.2 181.287 123.646L176.992 127.94L176.921 128.011C176.368 128.564 176.368 129.464 176.921 130.017L178.672 131.767C179.245 130.801 180.93 128.911 182.725 127.091Z" fill="#4C65BA"/>
<path d="M181.287 123.646C180.733 124.199 180.733 125.099 181.287 125.652L182.725 127.09C184.465 125.336 186.296 123.656 187.327 122.957L185.652 121.283C185.144 120.775 184.349 120.74 183.796 121.157C183.746 121.198 183.691 121.233 183.645 121.283L181.287 123.646Z" fill="#4C65BA"/>
<path opacity="0.43" d="M181.287 123.646C180.733 124.199 180.733 125.099 181.287 125.652L182.725 127.09C184.465 125.336 186.296 123.656 187.327 122.957L185.652 121.283C185.144 120.775 184.349 120.74 183.796 121.157C183.746 121.198 183.691 121.233 183.645 121.283L181.287 123.646Z" fill="#3E479B"/>
<path d="M214.28 149.089L188.122 122.651C188.026 122.555 187.74 122.681 187.332 122.963C186.301 123.661 184.47 125.336 182.73 127.096C180.935 128.911 179.25 130.801 178.672 131.772C178.485 132.089 178.41 132.305 178.496 132.385L204.653 158.823C207.314 161.513 211.624 161.513 214.285 158.823C216.935 156.133 216.935 151.774 214.28 149.089Z" fill="#599AF2"/>
<path opacity="0.14" d="M214.28 149.089L188.122 122.651C187.77 122.294 184.787 124.964 182.227 127.604C180.05 129.846 211.619 161.508 214.28 158.823C216.935 156.133 216.935 151.774 214.28 149.089Z" fill="#3E479B"/>
<path d="M117.68 116.265H31.6973C26.6729 116.265 22.5991 112.192 22.5991 107.169C22.5991 102.146 26.6729 98.0732 31.6973 98.0732H117.685C122.709 98.0732 126.783 102.146 126.783 107.169C126.778 112.192 122.704 116.265 117.68 116.265Z" fill="white"/>
<path d="M117.68 116.265H103.693L103.627 98.0781H117.68C122.704 98.0781 126.778 102.151 126.778 107.174C126.778 112.192 122.704 116.265 117.68 116.265Z" fill="#599AF2"/>
<path d="M114.144 110.357C111.951 110.357 110.166 108.572 110.166 106.38C110.166 104.187 111.951 102.402 114.144 102.402C116.337 102.402 118.123 104.187 118.123 106.38C118.123 107.441 117.71 108.441 116.956 109.19C116.206 109.945 115.205 110.357 114.144 110.357ZM114.144 103.408C112.505 103.408 111.172 104.74 111.172 106.38C111.172 108.019 112.505 109.351 114.144 109.351C114.939 109.351 115.683 109.044 116.247 108.481C116.81 107.918 117.117 107.174 117.117 106.38C117.117 104.74 115.784 103.408 114.144 103.408Z" fill="white"/>
<path d="M119.742 112.509C119.611 112.509 119.485 112.458 119.385 112.363L116.226 109.205C116.03 109.009 116.03 108.692 116.226 108.496C116.422 108.3 116.739 108.3 116.935 108.496L120.094 111.654C120.29 111.85 120.29 112.167 120.094 112.363C119.998 112.463 119.867 112.509 119.742 112.509Z" fill="white"/>
<path d="M118.907 135.05H76.1071C73.1096 135.05 70.6854 132.621 70.6854 129.63V126.075C70.6854 123.068 68.2461 120.634 65.2436 120.634H45.4731C42.4655 120.634 40.0312 123.073 40.0312 126.075V140.123V156.274V182.56C40.0312 185.361 42.2995 187.629 45.1009 187.629H118.907C121.709 187.629 123.977 185.361 123.977 182.56V140.123C123.977 137.323 121.709 135.05 118.907 135.05Z" fill="#F28393"/>
<path d="M114.194 135.05H71.3943C68.3968 135.05 65.9727 132.621 65.9727 129.63V126.075C65.9727 123.068 63.5334 120.634 60.5309 120.634H40.7553C37.7477 120.634 35.3135 123.073 35.3135 126.075V140.123V156.274V182.56C35.3135 185.361 37.5817 187.629 40.3831 187.629H114.194C116.996 187.629 119.264 185.361 119.264 182.56V140.123C119.264 137.323 116.991 135.05 114.194 135.05Z" fill="#F28393"/>
<path opacity="0.12" d="M114.194 135.05H71.3943C68.3968 135.05 65.9727 132.621 65.9727 129.63V126.075C65.9727 123.068 63.5334 120.634 60.5309 120.634H40.7553C37.7477 120.634 35.3135 123.073 35.3135 126.075V140.123V156.274V182.56C35.3135 185.361 37.5817 187.629 40.3831 187.629H114.194C116.996 187.629 119.264 185.361 119.264 182.56V140.123C119.264 137.323 116.991 135.05 114.194 135.05Z" fill="white"/>
<path opacity="0.12" d="M103.336 135.05H66.4253C63.8402 135.05 61.748 132.621 61.748 129.63V126.075C61.748 123.068 59.6457 120.634 57.0555 120.634H40.0059C37.4158 120.634 35.3135 123.073 35.3135 126.075V140.123V156.274V182.56C35.3135 185.361 37.2699 187.629 39.684 187.629H103.336C105.75 187.629 107.707 185.361 107.707 182.56V140.123C107.712 137.323 105.75 135.05 103.336 135.05Z" fill="white"/>
<path d="M39.2666 140.702C38.99 140.702 38.7637 140.475 38.7637 140.199V127.86C38.7637 125.949 40.3178 124.396 42.2289 124.396H56.794C57.0707 124.396 57.297 124.622 57.297 124.898C57.297 125.175 57.0707 125.401 56.794 125.401H42.234C40.876 125.401 39.7746 126.502 39.7746 127.86V140.199C39.7695 140.475 39.5483 140.702 39.2666 140.702Z" fill="white"/>
</svg>
