<svg width="25" height="24" viewBox="0 0 25 24" fill="none" xmlns="http://www.w3.org/2000/svg">
<path d="M9.35473 10C10.5029 10 11.4336 9.10457 11.4336 8C11.4336 6.89543 10.5029 6 9.35473 6C8.20661 6 7.27588 6.89543 7.27588 8C7.27588 9.10457 8.20661 10 9.35473 10Z" stroke="#3A3A3A" stroke-width="1.5" stroke-linecap="round" stroke-linejoin="round"/>
<path d="M13.5123 2H9.3546C4.15747 2 2.07861 4 2.07861 9V15C2.07861 20 4.15747 22 9.3546 22H15.5912C20.7883 22 22.8671 20 22.8671 15V10" stroke="#3A3A3A" stroke-width="1.5" stroke-linecap="round" stroke-linejoin="round"/>
<path d="M18.7095 8V2L20.7883 4" stroke="#3A3A3A" stroke-width="1.5" stroke-linecap="round" stroke-linejoin="round"/>
<path d="M18.7097 2L16.6309 4" stroke="#3A3A3A" stroke-width="1.5" stroke-linecap="round" stroke-linejoin="round"/>
<path d="M2.77539 18.9501L7.89976 15.6401C8.72091 15.1101 9.90586 15.1701 10.6438 15.7801L10.9869 16.0701C11.7976 16.7401 13.1073 16.7401 13.918 16.0701L18.2421 12.5001C19.0528 11.8301 20.3625 11.8301 21.1732 12.5001L22.8675 13.9001" stroke="#3A3A3A" stroke-width="1.5" stroke-linecap="round" stroke-linejoin="round"/>
</svg>
