<svg width="40" height="40" viewBox="0 0 40 40" fill="none" xmlns="http://www.w3.org/2000/svg">
<rect width="40" height="40" rx="20" fill="#3FADFC"/>
<path d="M20.7845 25.5809C20.8894 25.6854 20.9726 25.8096 21.0294 25.9463C21.0862 26.0831 21.1154 26.2297 21.1154 26.3777C21.1154 26.5258 21.0862 26.6724 21.0294 26.8092C20.9726 26.9459 20.8894 27.0701 20.7845 27.1746L20.2276 27.7315C19.1724 28.7867 17.7412 29.3795 16.2489 29.3795C14.7566 29.3795 13.3254 28.7867 12.2701 27.7315C11.2149 26.6762 10.6221 25.2451 10.6221 23.7527C10.6221 22.2604 11.2149 20.8292 12.2701 19.774L14.5314 17.5137C15.5453 16.4973 16.9094 15.907 18.3444 15.8638C19.7794 15.8206 21.1766 16.3276 22.2498 17.2812C22.3606 17.3797 22.4509 17.499 22.5156 17.6324C22.5803 17.7658 22.6181 17.9106 22.6268 18.0586C22.6355 18.2066 22.6149 18.3549 22.5663 18.4949C22.5178 18.635 22.4421 18.7641 22.3436 18.8749C22.2451 18.9857 22.1257 19.076 21.9923 19.1407C21.8589 19.2054 21.7141 19.2432 21.5661 19.2519C21.4181 19.2606 21.2698 19.24 21.1298 19.1915C20.9897 19.1429 20.8606 19.0672 20.7498 18.9687C20.1062 18.3971 19.2686 18.093 18.4082 18.1186C17.5479 18.1443 16.7298 18.4976 16.1214 19.1065L13.862 21.364C13.229 21.997 12.8733 22.8556 12.8733 23.7509C12.8733 24.6461 13.229 25.5047 13.862 26.1377C14.495 26.7708 15.3536 27.1264 16.2489 27.1264C17.1441 27.1264 18.0027 26.7708 18.6357 26.1377L19.1926 25.5809C19.2971 25.4763 19.4212 25.3933 19.5578 25.3367C19.6943 25.28 19.8407 25.2509 19.9886 25.2509C20.1364 25.2509 20.2828 25.28 20.4194 25.3367C20.5559 25.3933 20.68 25.4763 20.7845 25.5809ZM27.7295 12.2684C26.6734 11.2147 25.2425 10.623 23.7507 10.623C22.259 10.623 20.8281 11.2147 19.772 12.2684L19.2151 12.8252C19.0038 13.0366 18.885 13.3232 18.885 13.6221C18.885 13.921 19.0038 14.2076 19.2151 14.419C19.4265 14.6303 19.7131 14.7491 20.012 14.7491C20.3109 14.7491 20.5975 14.6303 20.8089 14.419L21.3657 13.8621C21.9988 13.2291 22.8574 12.8734 23.7526 12.8734C24.6479 12.8734 25.5065 13.2291 26.1395 13.8621C26.7725 14.4951 27.1282 15.3537 27.1282 16.249C27.1282 17.1442 26.7725 18.0028 26.1395 18.6359L23.8792 20.8971C23.2702 21.5057 22.4517 21.8586 21.5911 21.8835C20.7305 21.9084 19.893 21.6035 19.2498 21.0312C19.139 20.9327 19.0099 20.857 18.8698 20.8084C18.7298 20.7598 18.5815 20.7393 18.4335 20.748C18.2855 20.7567 18.1407 20.7944 18.0073 20.8591C17.8739 20.9238 17.7546 21.0141 17.6561 21.1249C17.5576 21.2357 17.4819 21.3648 17.4333 21.5049C17.3847 21.645 17.3642 21.7932 17.3729 21.9412C17.3816 22.0892 17.4193 22.234 17.484 22.3674C17.5487 22.5008 17.639 22.6202 17.7498 22.7187C18.8223 23.672 20.2186 24.1794 21.6529 24.137C23.0872 24.0947 24.4511 23.5058 25.4654 22.4909L27.7267 20.2305C28.7815 19.1747 29.3743 17.7434 29.3748 16.251C29.3753 14.7585 28.7836 13.3268 27.7295 12.2702V12.2684Z" fill="white"/>
</svg>
