<svg width="24" height="24" viewBox="0 0 24 24" fill="none" xmlns="http://www.w3.org/2000/svg">
<rect width="24" height="24" rx="12" fill="#D2D2D2"/>
<g clip-path="url(#clip0_295_2978)">
<path d="M13.3333 9.33366V8.00033C13.3333 7.6467 13.1929 7.30756 12.9428 7.05752C12.6928 6.80747 12.3536 6.66699 12 6.66699H7.33333C6.97971 6.66699 6.64057 6.80747 6.39052 7.05752C6.14048 7.30756 6 7.6467 6 8.00033V16.0003C6 16.3539 6.14048 16.6931 6.39052 16.9431C6.64057 17.1932 6.97971 17.3337 7.33333 17.3337H12C12.3536 17.3337 12.6928 17.1932 12.9428 16.9431C13.1929 16.6931 13.3333 16.3539 13.3333 16.0003V14.667" stroke="white" stroke-width="1.2" stroke-linecap="round" stroke-linejoin="round"/>
<path d="M10 12H18L16 10" stroke="white" stroke-width="1.2" stroke-linecap="round" stroke-linejoin="round"/>
<path d="M16 14L18 12" stroke="white" stroke-width="1.2" stroke-linecap="round" stroke-linejoin="round"/>
</g>
<defs>
<clipPath id="clip0_295_2978">
<rect width="16" height="16" fill="white" transform="translate(4 4)"/>
</clipPath>
</defs>
</svg>
