<svg width="122" height="40" viewBox="0 0 122 40" fill="none" xmlns="http://www.w3.org/2000/svg">
<g clip-path="url(#clip0_2197_7168)">
<path d="M47.7892 24.111C46.9578 24.111 46.2242 23.9221 45.5863 23.5434C44.9484 23.1647 44.4462 22.6399 44.0808 21.969C43.7144 21.2982 43.5312 20.5259 43.5312 19.6531C43.5312 19.0278 43.6419 18.4472 43.8641 17.9122C44.0864 17.3772 44.3951 16.9082 44.7894 16.5044C45.1846 16.1015 45.6449 15.7879 46.1712 15.5655C46.6975 15.3431 47.2694 15.2324 47.8868 15.2324C48.5033 15.2324 49.0984 15.3664 49.6703 15.6335C50.2422 15.9014 50.6922 16.2531 51.0214 16.6895L49.9967 17.8135C49.6759 17.4758 49.3402 17.2208 48.9906 17.0478C48.6409 16.8747 48.2727 16.7882 47.8859 16.7882C47.3754 16.7882 46.9169 16.9101 46.5096 17.1529C46.1024 17.3958 45.7769 17.7335 45.5351 18.1653C45.2924 18.597 45.1716 19.0976 45.1716 19.6661C45.1716 20.2504 45.2906 20.7585 45.5296 21.1912C45.7685 21.6229 46.1014 21.9588 46.5292 22.1979C46.9569 22.4371 47.4507 22.5562 48.0105 22.5562C48.4131 22.5562 48.7981 22.4743 49.1644 22.3096C49.5308 22.1449 49.8451 21.9272 50.1083 21.6555L50.8987 22.9274C50.7015 23.1498 50.4356 23.3517 50.1027 23.5322C49.7698 23.7137 49.4034 23.856 49.0045 23.9584C48.6056 24.0589 48.2011 24.111 47.7892 24.111Z" fill="#00AEEF"/>
<path d="M52.2949 23.9873V14.8491H53.8004V18.3933C54.0226 18.089 54.3211 17.8378 54.6949 17.6396C55.0697 17.4423 55.4584 17.3437 55.861 17.3437C57.3581 17.3437 58.1067 18.2323 58.1067 20.0114V23.9873H56.5891V20.1221C56.5891 19.1265 56.1734 18.6445 55.3431 18.6771C54.9069 18.6771 54.5424 18.8111 54.2514 19.0781C53.9594 19.3461 53.8134 19.6727 53.8134 20.0598V23.9863H52.2949V23.9873Z" fill="#00AEEF"/>
<path d="M62.7827 24.1111C62.1327 24.1111 61.5525 23.965 61.0429 23.6728C60.5324 23.3807 60.1298 22.9796 59.8332 22.4688C59.5375 21.9589 59.3887 21.3783 59.3887 20.7279C59.3887 20.0775 59.5365 19.4969 59.8332 18.987C60.1298 18.4771 60.5324 18.0751 61.0429 17.783C61.5534 17.4908 62.1327 17.3447 62.7827 17.3447C62.9473 17.3447 63.1017 17.3549 63.2458 17.3754C63.3899 17.3959 63.5192 17.4182 63.6345 17.4433C63.7163 17.4601 63.7907 17.474 63.8567 17.4871C63.9228 17.4992 63.9804 17.5057 64.0297 17.5057C64.688 17.5057 65.0172 17.0283 65.0172 16.0728H66.2019C66.2019 16.5668 66.1135 17.0051 65.9369 17.3875C65.7602 17.7699 65.4738 18.0444 65.0786 18.2091C65.4161 18.505 65.6793 18.8697 65.8681 19.3015C66.0577 19.7332 66.1517 20.2096 66.1517 20.7279C66.1517 21.3783 66.0057 21.9589 65.7137 22.4688C65.4217 22.9796 65.02 23.3807 64.5104 23.6728C63.9999 23.965 63.4243 24.1111 62.7827 24.1111ZM62.7827 22.7647C63.1361 22.7647 63.4513 22.6763 63.7265 22.4995C64.0018 22.3227 64.2185 22.0799 64.3747 21.771C64.5309 21.462 64.609 21.115 64.609 20.7279C64.609 20.3324 64.5309 19.9826 64.3747 19.6783C64.2185 19.3741 64.0027 19.1331 63.7265 18.9563C63.4513 18.7795 63.1361 18.6911 62.7827 18.6911C62.4201 18.6911 62.0993 18.7795 61.8203 18.9563C61.5404 19.1331 61.3228 19.3759 61.1666 19.6848C61.0104 19.9938 60.9323 20.3418 60.9323 20.7279C60.9323 21.115 61.0104 21.463 61.1666 21.771C61.3228 22.0799 61.5413 22.3227 61.8203 22.4995C62.0993 22.6763 62.4201 22.7647 62.7827 22.7647ZM62.7706 26.6047C62.4582 26.6047 62.2174 26.5266 62.049 26.3703C61.8807 26.214 61.7961 25.9953 61.7961 25.7162C61.7961 25.4528 61.8826 25.2388 62.0556 25.0741C62.2285 24.9094 62.4666 24.8266 62.7716 24.8266C63.084 24.8266 63.3248 24.9048 63.4931 25.0611C63.6615 25.2174 63.7461 25.4361 63.7461 25.7152C63.7461 25.9785 63.6596 26.1925 63.4866 26.3572C63.3137 26.5229 63.0747 26.6047 62.7706 26.6047Z" fill="#00AEEF"/>
<path d="M71.1133 23.9875V17.4798H72.6067L72.6188 18.4187C72.8326 18.1144 73.1209 17.8632 73.4826 17.665C73.8443 17.4677 74.2191 17.3682 74.6059 17.3682C75.0829 17.3682 75.4865 17.4714 75.8157 17.6771C76.1448 17.8827 76.3913 18.2037 76.5558 18.6401C76.6953 18.401 76.885 18.1851 77.1231 17.9916C77.3621 17.798 77.6252 17.6454 77.9135 17.5347C78.2008 17.424 78.4891 17.3682 78.7773 17.3682C80.2577 17.3682 80.9988 18.2661 80.9988 20.06V23.9866H79.4682V20.1586C79.4682 19.1956 79.073 18.7136 78.2836 18.7136C77.8558 18.7136 77.5015 18.8458 77.2226 19.1091C76.9427 19.3724 76.8032 19.7018 76.8032 20.0972V23.9866H75.2726V20.1465C75.2726 19.6776 75.1722 19.3212 74.9704 19.0784C74.7686 18.8355 74.4832 18.7136 74.1131 18.7136C73.6937 18.7136 73.3441 18.8458 73.0642 19.1091C72.7843 19.3724 72.6448 19.6981 72.6448 20.0842V23.9866H71.1133V23.9875Z" fill="#00AEEF"/>
<path d="M85.1454 24.1112C84.6108 24.1112 84.1235 23.9632 83.6837 23.6664C83.2439 23.3696 82.8933 22.9667 82.6348 22.4559C82.3753 21.946 82.2461 21.3654 82.2461 20.715C82.2461 20.0562 82.3772 19.4737 82.6413 18.9675C82.9044 18.4614 83.2625 18.0641 83.7153 17.7765C84.1672 17.4881 84.6777 17.3448 85.2459 17.3448C85.7145 17.3448 86.1265 17.4416 86.4798 17.6351C86.8332 17.8286 87.1131 18.0817 87.3195 18.3944V17.4806H88.8501V23.9884H87.3074V23.0746C87.0852 23.3705 86.783 23.618 86.4008 23.8153C86.0149 24.0116 85.5974 24.1112 85.1454 24.1112ZM85.5648 22.7648C86.0911 22.7648 86.5235 22.5731 86.8601 22.1907C87.1977 21.8083 87.366 21.316 87.366 20.715C87.366 20.1223 87.1977 19.6365 86.8601 19.2578C86.5226 18.8791 86.0911 18.6903 85.5648 18.6903C85.0385 18.6903 84.6098 18.8801 84.2816 19.2578C83.9524 19.6365 83.7878 20.1223 83.7878 20.715C83.7878 21.316 83.9524 21.8073 84.2816 22.1907C84.6098 22.5731 85.0385 22.7648 85.5648 22.7648ZM84.8739 16.5781L84.3923 15.8495L86.3171 14.2314L87.1568 15.3424L84.8739 16.5781Z" fill="#00AEEF"/>
<path d="M91.4509 26.827L92.6105 24.1231L89.6367 17.4795H91.3886L93.1777 21.7271C93.2437 21.8592 93.3088 22.036 93.3748 22.2584C93.4074 22.1681 93.4381 22.0797 93.4678 21.9932C93.4966 21.9067 93.5273 21.8183 93.5608 21.7271L95.0914 17.4795H96.8563L94.141 23.9872L93.0298 26.827H91.4509Z" fill="#00AEEF"/>
<path d="M101.547 23.9873L101.14 22.975L103.731 20.0728C103.92 19.8756 104.122 19.6411 104.336 19.3694C104.55 19.0977 104.735 18.8223 104.891 18.5422C105.047 18.2621 105.125 18.0072 105.125 17.7764C105.125 17.4387 105.022 17.1716 104.817 16.9734C104.611 16.7762 104.319 16.6776 103.941 16.6776C103.611 16.6776 103.294 16.8171 102.99 17.0972C102.686 17.3773 102.447 17.7597 102.274 18.2454L101.064 17.5289C101.287 16.8125 101.674 16.2449 102.225 15.8252C102.776 15.4056 103.41 15.1953 104.126 15.1953C104.619 15.1953 105.059 15.2986 105.446 15.5042C105.833 15.7099 106.139 15.9937 106.366 16.3565C106.592 16.7194 106.705 17.1428 106.705 17.6285C106.705 18.09 106.569 18.5859 106.298 19.1163C106.026 19.6476 105.578 20.2543 104.952 20.9382L103.521 22.506H107.014V23.9883H101.547V23.9873Z" fill="#FFB441"/>
<path d="M111.394 23.9876V21.8391H108.05L107.383 20.5551L111.678 15.3193H112.937V20.4444H114.405V21.8401H112.937V23.9885H111.394V23.9876ZM109.234 20.4434H111.394V17.8009L109.234 20.4434Z" fill="#FFB441"/>
<path d="M115.787 23.9873V14.8491H117.293V18.3933C117.515 18.089 117.813 17.8378 118.187 17.6396C118.562 17.4423 118.951 17.3437 119.353 17.3437C120.85 17.3437 121.599 18.2323 121.599 20.0114V23.9873H120.081V20.1221C120.081 19.1265 119.666 18.6445 118.835 18.6771C118.399 18.6771 118.035 18.8111 117.744 19.0781C117.452 19.3461 117.306 19.6727 117.306 20.0598V23.9863H115.787V23.9873Z" fill="#FFB441"/>
<path d="M29.0345 35.0936C30.7789 35.0936 32.4527 34.7977 34.0103 34.2525C30.4023 37.8069 25.4517 40 19.9877 40C8.9482 40 0 31.0461 0 20.0005C0 8.95485 8.9482 0 19.9877 0C25.4517 0 30.4023 2.19312 34.0103 5.74752C32.4527 5.20226 30.7789 4.90637 29.0345 4.90637C20.7056 4.90637 13.9519 11.6644 13.9519 20.0005C13.9519 28.3365 20.7046 35.0936 29.0345 35.0936Z" fill="#FFB441"/>
<path d="M28.4778 8.49685L23.1328 13.8452L28.4778 19.1936L33.8227 13.8452L28.4778 8.49685Z" fill="#00AEEF"/>
<path d="M34.6301 14.6516L29.2852 20L34.6301 25.3484L39.9751 20L34.6301 14.6516Z" fill="#FFB441"/>
<path d="M28.4778 20.8079L23.1328 26.1562L28.4778 31.5046L33.8227 26.1562L28.4778 20.8079Z" fill="#00AEEF"/>
<path d="M22.3254 14.6516L16.9805 20L22.3254 25.3484L27.6704 20L22.3254 14.6516Z" fill="#00AEEF"/>
<path d="M45.5807 30.2107L45.9415 30.3019C45.8662 30.5987 45.7295 30.8239 45.5333 30.9802C45.3371 31.1356 45.0962 31.2138 44.8126 31.2138C44.5188 31.2138 44.2798 31.1542 44.0957 31.0342C43.9116 30.9151 43.7712 30.7411 43.6754 30.5141C43.5796 30.287 43.5312 30.0432 43.5312 29.7827C43.5312 29.4989 43.5852 29.2514 43.694 29.0393C43.8028 28.828 43.9571 28.6671 44.1571 28.5573C44.357 28.4475 44.5774 28.3926 44.8182 28.3926C45.0907 28.3926 45.3203 28.4624 45.5063 28.601C45.6923 28.7396 45.8215 28.935 45.895 29.1872L45.5398 29.2709C45.4766 29.0727 45.3845 28.9285 45.2645 28.8373C45.1446 28.7471 44.993 28.7015 44.8108 28.7015C44.6015 28.7015 44.4258 28.7517 44.2854 28.8522C44.145 28.9527 44.0455 29.0876 43.9887 29.257C43.932 29.4263 43.9032 29.6013 43.9032 29.7808C43.9032 30.0125 43.9367 30.2154 44.0046 30.3884C44.0724 30.5615 44.1775 30.6908 44.3198 30.7764C44.4621 30.862 44.6164 30.9048 44.7829 30.9048C44.9846 30.9048 45.1557 30.8462 45.2962 30.7299C45.4366 30.6127 45.5314 30.4396 45.5807 30.2107Z" fill="#4A4A4A"/>
<path d="M46.7246 31.1672V28.4399H47.0594V29.4188C47.2156 29.2374 47.4127 29.1471 47.6508 29.1471C47.7968 29.1471 47.9241 29.1759 48.032 29.2336C48.1399 29.2913 48.2171 29.3713 48.2636 29.4728C48.3101 29.5742 48.3333 29.7221 48.3333 29.9157V31.1681H47.9985V29.9147C47.9985 29.7473 47.9623 29.6254 47.8897 29.5491C47.8172 29.4728 47.7149 29.4346 47.582 29.4346C47.4825 29.4346 47.3895 29.4597 47.3021 29.5118C47.2147 29.564 47.1524 29.6328 47.1152 29.7212C47.078 29.8096 47.0594 29.9306 47.0594 30.0859V31.1672H46.7246Z" fill="#4A4A4A"/>
<path d="M50.9927 29.5315V29.1426H51.3517V29.4496C51.3517 29.6032 51.3284 29.7213 51.281 29.8032C51.2206 29.9102 51.109 30.0079 50.9481 30.0972C50.9481 30.1149 50.9481 30.1326 50.9481 30.1512C50.9481 30.6127 50.7993 30.9254 50.5018 31.091C50.3558 31.1719 50.1958 31.2119 50.0238 31.2119C49.7411 31.2119 49.517 31.1235 49.3524 30.9458C49.1823 30.7625 49.0977 30.5066 49.0977 30.1791C49.0977 29.8134 49.199 29.5427 49.4027 29.3659C49.5728 29.2198 49.7793 29.1463 50.0238 29.1463C50.2953 29.1463 50.5176 29.2347 50.6896 29.4124C50.8198 29.5473 50.9007 29.7223 50.9332 29.9353C51.0179 29.8832 51.0783 29.8293 51.1146 29.7734C51.1508 29.7176 51.1685 29.6376 51.1676 29.5315H50.9927ZM49.4426 30.1791C49.4426 30.4238 49.4975 30.6127 49.6082 30.7467C49.7123 30.8733 49.8509 30.9365 50.0247 30.9365C50.1986 30.9365 50.3363 30.8733 50.4395 30.7467C50.5501 30.6118 50.605 30.4192 50.605 30.168C50.605 29.9307 50.5492 29.7465 50.4376 29.6134C50.3335 29.4869 50.1958 29.4236 50.0247 29.4236C49.8499 29.4236 49.7114 29.4859 49.6082 29.6115C49.4975 29.7455 49.4426 29.9344 49.4426 30.1791ZM49.8202 31.7712V31.3897H50.2014V31.7712H49.8202Z" fill="#4A4A4A"/>
<path d="M53.5391 31.167V29.1916H53.8385V29.4689C53.9008 29.3721 53.9826 29.294 54.0858 29.2354C54.189 29.1767 54.3062 29.147 54.4373 29.147C54.5833 29.147 54.7033 29.1777 54.7972 29.2382C54.8911 29.2986 54.9571 29.3833 54.9952 29.4931C55.1515 29.2624 55.3551 29.147 55.6052 29.147C55.8015 29.147 55.9512 29.2009 56.0572 29.3098C56.1622 29.4187 56.2152 29.5852 56.2152 29.8113V31.168H55.8823V29.923C55.8823 29.789 55.8712 29.6932 55.8498 29.6336C55.8284 29.575 55.7884 29.5275 55.7317 29.4912C55.675 29.455 55.608 29.4373 55.5309 29.4373C55.3923 29.4373 55.277 29.4838 55.1849 29.5759C55.0929 29.668 55.0473 29.816 55.0473 30.0198V31.168H54.7126V29.8839C54.7126 29.735 54.6856 29.6234 54.6307 29.5489C54.5759 29.4745 54.4866 29.4373 54.3629 29.4373C54.269 29.4373 54.1816 29.4624 54.1016 29.5117C54.0217 29.561 53.964 29.6336 53.9278 29.7294C53.8915 29.8253 53.8738 29.963 53.8738 30.1426V31.168H53.5391V31.167Z" fill="#4A4A4A"/>
<path d="M58.3858 31.1672V30.8769C58.2324 31.1002 58.0232 31.2119 57.7591 31.2119C57.6428 31.2119 57.534 31.1896 57.4327 31.1449C57.3313 31.1002 57.2569 31.0444 57.2077 30.9765C57.1584 30.9086 57.124 30.8258 57.1044 30.7281C57.0905 30.662 57.084 30.5578 57.084 30.4154V29.1909H57.4187V30.287C57.4187 30.4619 57.4252 30.5801 57.4392 30.6406C57.4606 30.729 57.5052 30.7978 57.5731 30.8481C57.641 30.8983 57.7256 30.9235 57.826 30.9235C57.9265 30.9235 58.0204 30.8974 58.1087 30.8462C58.197 30.7951 58.2593 30.7243 58.2956 30.6359C58.3319 30.5475 58.3505 30.4191 58.3505 30.2498V29.1909H58.6852V31.1663H58.3858V31.1672Z" fill="#4A4A4A"/>
<path d="M60.8788 30.9237C60.7551 31.0288 60.6352 31.1033 60.5208 31.147C60.4064 31.1907 60.2828 31.2121 60.1517 31.2121C59.935 31.2121 59.7685 31.1591 59.6514 31.053C59.5351 30.9469 59.4766 30.8111 59.4766 30.6464C59.4766 30.5496 59.4989 30.4612 59.5426 30.3812C59.5863 30.3012 59.6439 30.237 59.7155 30.1886C59.7871 30.1402 59.8671 30.1039 59.9564 30.0788C60.0224 30.0611 60.121 30.0444 60.2539 30.0286C60.5245 29.996 60.7235 29.9579 60.8509 29.9132C60.8519 29.8676 60.8528 29.8378 60.8528 29.8257C60.8528 29.689 60.8212 29.5931 60.7579 29.5373C60.6724 29.4619 60.545 29.4238 60.3767 29.4238C60.2195 29.4238 60.1033 29.4517 60.028 29.5066C59.9527 29.5615 59.8978 29.6592 59.8615 29.7997L59.5342 29.755C59.564 29.6145 59.6133 29.5019 59.6811 29.4154C59.749 29.3289 59.8476 29.2628 59.9768 29.2163C60.1061 29.1697 60.2549 29.1465 60.425 29.1465C60.5933 29.1465 60.731 29.166 60.836 29.206C60.9411 29.246 61.0192 29.2954 61.0685 29.3558C61.1178 29.4163 61.1531 29.4917 61.1727 29.5838C61.1838 29.6406 61.1894 29.7438 61.1894 29.8927V30.3393C61.1894 30.6511 61.1968 30.8474 61.2108 30.9302C61.2247 31.013 61.2536 31.0912 61.2954 31.1675H60.9458C60.9114 31.0977 60.889 31.0167 60.8788 30.9237ZM60.8509 30.1756C60.7291 30.2249 60.5469 30.2677 60.3042 30.3021C60.1665 30.3217 60.0689 30.344 60.0122 30.3691C59.9554 30.3942 59.9108 30.4305 59.8801 30.478C59.8494 30.5264 59.8336 30.5785 59.8336 30.6371C59.8336 30.7264 59.8671 30.8009 59.935 30.8604C60.0029 30.92 60.1014 30.9497 60.2316 30.9497C60.3609 30.9497 60.4753 30.9218 60.5757 30.8651C60.6761 30.8083 60.7496 30.7311 60.797 30.6334C60.8333 30.558 60.8509 30.4464 60.8509 30.2984V30.1756Z" fill="#4A4A4A"/>
<path d="M63.8379 31.1672H63.5273V28.4399H63.8621V29.4132C64.0034 29.2355 64.1838 29.1471 64.4033 29.1471C64.5251 29.1471 64.6395 29.1713 64.7483 29.2206C64.8571 29.2699 64.9463 29.3388 65.0161 29.4272C65.0858 29.5156 65.1407 29.6226 65.1807 29.7482C65.2207 29.8738 65.2402 30.0078 65.2402 30.1501C65.2402 30.4888 65.1565 30.7503 64.9891 30.9355C64.8217 31.1206 64.6209 31.2127 64.3865 31.2127C64.1532 31.2127 63.9709 31.115 63.8379 30.9206V31.1672ZM63.8342 30.1641C63.8342 30.4014 63.8668 30.5726 63.9309 30.6777C64.036 30.8499 64.1792 30.9364 64.3587 30.9364C64.5046 30.9364 64.6311 30.8731 64.738 30.7456C64.845 30.6182 64.898 30.4293 64.898 30.1771C64.898 29.9194 64.8468 29.7286 64.7446 29.6058C64.6423 29.483 64.5186 29.4216 64.3735 29.4216C64.2275 29.4216 64.1011 29.4849 63.9941 29.6123C63.8872 29.7398 63.8342 29.9231 63.8342 30.1641Z" fill="#4A4A4A"/>
<path d="M67.3144 30.9236C67.1907 31.0287 67.0717 31.1031 66.9564 31.1469C66.842 31.1906 66.7183 31.212 66.5872 31.212C66.3705 31.212 66.2032 31.159 66.0869 31.0529C65.9707 30.9468 65.9121 30.811 65.9121 30.6463C65.9121 30.5495 65.9344 30.4611 65.9781 30.3811C66.0218 30.3011 66.0795 30.2369 66.1511 30.1885C66.2227 30.1401 66.3027 30.1038 66.3919 30.0787C66.4579 30.061 66.5565 30.0443 66.6895 30.0284C66.9601 29.9959 67.1581 29.9577 67.2865 29.9131C67.2874 29.8675 67.2883 29.8377 67.2883 29.8256C67.2883 29.6888 67.2567 29.593 67.1935 29.5372C67.1079 29.4618 66.9805 29.4236 66.8122 29.4236C66.6551 29.4236 66.5388 29.4516 66.4635 29.5065C66.3882 29.5613 66.3333 29.6591 66.2971 29.7996L65.9698 29.7549C65.9995 29.6144 66.0488 29.5018 66.1167 29.4153C66.1846 29.3287 66.2831 29.2627 66.4124 29.2161C66.5416 29.1696 66.6904 29.1464 66.8606 29.1464C67.0289 29.1464 67.1665 29.1659 67.2716 29.2059C67.3767 29.2459 67.4548 29.2952 67.5041 29.3557C67.5533 29.4162 67.5887 29.4916 67.6082 29.5837C67.6194 29.6404 67.6249 29.7437 67.6249 29.8926V30.3392C67.6249 30.6509 67.6324 30.8473 67.6463 30.9301C67.6603 31.0129 67.6882 31.091 67.7309 31.1673H67.3813C67.3469 31.0976 67.3246 31.0166 67.3144 30.9236ZM67.2865 30.1755C67.1647 30.2248 66.9824 30.2676 66.7397 30.302C66.6021 30.3215 66.5044 30.3439 66.4477 30.369C66.391 30.3941 66.3464 30.4304 66.3157 30.4779C66.285 30.5262 66.2692 30.5784 66.2692 30.637C66.2692 30.7263 66.3027 30.8007 66.3705 30.8603C66.4384 30.9198 66.537 30.9496 66.6672 30.9496C66.7964 30.9496 66.9108 30.9217 67.0112 30.8649C67.1117 30.8082 67.1851 30.731 67.2325 30.6333C67.2688 30.5579 67.2865 30.4462 67.2865 30.2983V30.1755ZM66.6356 28.9454L66.8829 28.4243H67.3218L66.9127 28.9454H66.6356Z" fill="#4A4A4A"/>
<path d="M68.5254 31.167V29.1916H68.8267V29.4726C68.9717 29.2558 69.181 29.147 69.4553 29.147C69.5743 29.147 69.684 29.1684 69.7835 29.2112C69.883 29.254 69.9574 29.3098 70.0076 29.3796C70.0569 29.4494 70.0922 29.5313 70.1118 29.6271C70.1238 29.6894 70.1304 29.7974 70.1304 29.9528V31.168H69.7956V29.9658C69.7956 29.8299 69.7826 29.7276 69.7565 29.6597C69.7305 29.5917 69.684 29.5378 69.618 29.4978C69.552 29.4577 69.4739 29.4373 69.3846 29.4373C69.2423 29.4373 69.1187 29.4829 69.0154 29.5731C68.9122 29.6634 68.8601 29.8355 68.8601 30.0886V31.168H68.5254V31.167Z" fill="#4A4A4A"/>
<path d="M73.7198 28.8986H73.0763V28.653H73.7198V28.439H74.0527V28.653H74.3223V28.8986H74.0527V31.1662H73.7421V30.9168C73.6166 31.1131 73.4324 31.2108 73.1897 31.2108C73.0326 31.2108 72.8875 31.1671 72.7555 31.0806C72.6235 30.994 72.5212 30.8721 72.4486 30.7168C72.3761 30.5614 72.3398 30.3827 72.3398 30.1799C72.3398 29.9826 72.3724 29.804 72.4384 29.643C72.5044 29.482 72.603 29.3592 72.7341 29.2736C72.8652 29.188 73.0121 29.1452 73.1749 29.1452C73.2939 29.1452 73.3999 29.1703 73.4929 29.2206C73.5859 29.2708 73.6612 29.3369 73.7198 29.4169V28.8986ZM72.6848 30.1808C72.6848 30.4339 72.7378 30.6228 72.8448 30.7484C72.9517 30.874 73.0772 30.9363 73.2223 30.9363C73.3683 30.9363 73.4929 30.8768 73.5952 30.7568C73.6975 30.6367 73.7486 30.4544 73.7486 30.2087C73.7486 29.938 73.6965 29.7398 73.5924 29.6132C73.4882 29.4867 73.3599 29.4234 73.2074 29.4234C73.0586 29.4234 72.934 29.4839 72.8345 29.6058C72.7341 29.7277 72.6848 29.9193 72.6848 30.1808Z" fill="#4A4A4A"/>
<path d="M74.9629 28.8242V28.439H75.2976V28.8242H74.9629ZM74.9629 31.1671V29.1917H75.2976V31.1671H74.9629Z" fill="#4A4A4A"/>
<path d="M77.5398 30.5309L77.8857 30.5737C77.8309 30.7756 77.7304 30.9329 77.5826 31.0445C77.4347 31.1562 77.2469 31.212 77.0172 31.212C76.728 31.212 76.4993 31.1227 76.33 30.945C76.1608 30.7672 76.0762 30.5179 76.0762 30.1959C76.0762 29.8638 76.1617 29.606 76.3328 29.4218C76.5039 29.2385 76.7262 29.1464 76.9986 29.1464C77.2627 29.1464 77.4784 29.2366 77.6458 29.4162C77.8132 29.5958 77.8969 29.8489 77.8969 30.1755C77.8969 30.195 77.8959 30.2248 77.895 30.2648H76.4221C76.4342 30.4816 76.4955 30.6481 76.6062 30.7635C76.7169 30.8789 76.8545 30.9366 77.0191 30.9366C77.1418 30.9366 77.2469 30.904 77.3334 30.8398C77.4198 30.7756 77.4887 30.6723 77.5398 30.5309ZM76.9912 28.629L76.781 28.9454H76.3979L76.7996 28.4243H77.1567L77.5751 28.9454H77.1957L76.9912 28.629ZM76.4407 29.9894H77.5435C77.5286 29.8228 77.4868 29.6981 77.4171 29.6153C77.311 29.486 77.1725 29.4218 77.0023 29.4218C76.8489 29.4218 76.7196 29.473 76.6146 29.5762C76.5095 29.6795 76.4518 29.8172 76.4407 29.9894ZM76.8219 31.7712V31.3897H77.2032V31.7712H76.8219Z" fill="#4A4A4A"/>
<path d="M78.6855 31.167V29.1916H78.9868V29.4726C79.1319 29.2558 79.3411 29.147 79.6154 29.147C79.7344 29.147 79.8442 29.1684 79.9437 29.2112C80.0432 29.254 80.1176 29.3098 80.1678 29.3796C80.2171 29.4494 80.2524 29.5313 80.2719 29.6271C80.284 29.6894 80.2905 29.7974 80.2905 29.9528V31.168H79.9558V29.9658C79.9558 29.8299 79.9427 29.7276 79.9167 29.6597C79.8907 29.5917 79.8442 29.5378 79.7782 29.4978C79.7121 29.4577 79.634 29.4373 79.5448 29.4373C79.4025 29.4373 79.2788 29.4829 79.1756 29.5731C79.0724 29.6634 79.0203 29.8355 79.0203 30.0886V31.168H78.6855V31.167Z" fill="#4A4A4A"/>
<path d="M82.623 31.167V29.1916H82.9225V29.4689C82.9848 29.3721 83.0666 29.294 83.1698 29.2354C83.273 29.1767 83.3902 29.147 83.5213 29.147C83.6673 29.147 83.7873 29.1777 83.8812 29.2382C83.9742 29.2986 84.0411 29.3833 84.0792 29.4931C84.2355 29.2624 84.4391 29.147 84.6892 29.147C84.8854 29.147 85.0361 29.2009 85.1412 29.3098C85.2462 29.4187 85.2992 29.5852 85.2992 29.8113V31.168H84.9663V29.923C84.9663 29.789 84.9552 29.6932 84.9338 29.6336C84.9124 29.575 84.8724 29.5275 84.8157 29.4912C84.759 29.455 84.692 29.4373 84.6148 29.4373C84.4763 29.4373 84.361 29.4838 84.2689 29.5759C84.1769 29.668 84.1313 29.816 84.1313 30.0198V31.168H83.7966V29.8839C83.7966 29.735 83.7696 29.6234 83.7147 29.5489C83.6599 29.4745 83.5706 29.4373 83.4469 29.4373C83.353 29.4373 83.2656 29.4624 83.1856 29.5117C83.1057 29.561 83.048 29.6336 83.0117 29.7294C82.9755 29.8253 82.9578 29.963 82.9578 30.1426V31.168H82.623V31.167Z" fill="#4A4A4A"/>
<path d="M87.4648 30.9236C87.3411 31.0287 87.2221 31.1031 87.1067 31.1469C86.9924 31.1906 86.8687 31.212 86.7376 31.212C86.5209 31.212 86.3536 31.159 86.2373 31.0529C86.1211 30.9468 86.0625 30.811 86.0625 30.6463C86.0625 30.5495 86.0848 30.4611 86.1285 30.3811C86.1722 30.3011 86.2299 30.2369 86.3015 30.1885C86.3731 30.1401 86.453 30.1038 86.5423 30.0787C86.6083 30.061 86.7069 30.0443 86.8399 30.0284C87.1105 29.9959 87.3085 29.9577 87.4369 29.9131C87.4378 29.8675 87.4387 29.8377 87.4387 29.8256C87.4387 29.6888 87.4071 29.593 87.3439 29.5372C87.2583 29.4618 87.1309 29.4236 86.9626 29.4236C86.8055 29.4236 86.6892 29.4516 86.6139 29.5065C86.5386 29.5613 86.4837 29.6591 86.4475 29.7996L86.1202 29.7549C86.1499 29.6144 86.1992 29.5018 86.2671 29.4153C86.3349 29.3287 86.4335 29.2627 86.5628 29.2161C86.692 29.1696 86.8408 29.1464 87.011 29.1464C87.1793 29.1464 87.3169 29.1659 87.422 29.2059C87.5271 29.2459 87.6052 29.2952 87.6544 29.3557C87.7037 29.4162 87.7391 29.4916 87.7586 29.5837C87.7698 29.6404 87.7753 29.7437 87.7753 29.8926V30.3392C87.7753 30.6509 87.7828 30.8473 87.7967 30.9301C87.8107 31.0129 87.8386 31.091 87.8813 31.1673H87.5317C87.4973 31.0976 87.475 31.0166 87.4648 30.9236ZM87.4378 30.1755C87.316 30.2248 87.1337 30.2676 86.891 30.302C86.7534 30.3215 86.6558 30.3439 86.599 30.369C86.5423 30.3941 86.4977 30.4304 86.467 30.4779C86.4363 30.5262 86.4205 30.5784 86.4205 30.637C86.4205 30.7263 86.454 30.8007 86.5219 30.8603C86.5897 30.9198 86.6883 30.9496 86.8185 30.9496C86.9477 30.9496 87.0621 30.9217 87.1625 30.8649C87.263 30.8082 87.3364 30.731 87.3839 30.6333C87.4201 30.5579 87.4378 30.4462 87.4378 30.2983V30.1755ZM86.7869 28.9454L87.0342 28.4243H87.4731L87.064 28.9454H86.7869Z" fill="#4A4A4A"/>
<path d="M88.6592 31.9274L88.622 31.6129C88.6955 31.6325 88.7587 31.6427 88.8135 31.6427C88.8879 31.6427 88.9475 31.6306 88.9921 31.6055C89.0367 31.5804 89.073 31.5459 89.1018 31.5013C89.1232 31.4678 89.1567 31.385 89.2041 31.2519C89.2106 31.2333 89.2199 31.2063 89.2339 31.17L88.4844 29.1909H88.8452L89.2562 30.3354C89.3092 30.4805 89.3575 30.6331 89.3994 30.7932C89.4375 30.6397 89.484 30.4889 89.537 30.3428L89.9592 29.1909H90.2939L89.5426 31.1998C89.4617 31.4166 89.3994 31.5664 89.3547 31.6483C89.2952 31.759 89.2273 31.84 89.1502 31.8911C89.073 31.9432 88.9819 31.9684 88.8749 31.9684C88.8098 31.9684 88.7382 31.9553 88.6592 31.9274Z" fill="#4A4A4A"/>
<path d="M93.9564 30.8453C93.8458 30.9681 93.7258 31.0602 93.5956 31.1216C93.4655 31.1831 93.325 31.2138 93.1735 31.2138C92.8945 31.2138 92.6732 31.1198 92.5095 30.9309C92.3766 30.7774 92.3105 30.6052 92.3105 30.4154C92.3105 30.247 92.3645 30.0944 92.4733 29.9586C92.5821 29.8227 92.7439 29.7036 92.9596 29.6003C92.8369 29.4589 92.755 29.3444 92.7141 29.2561C92.6732 29.1677 92.6527 29.083 92.6527 29.0011C92.6527 28.8373 92.7169 28.695 92.8452 28.574C92.9735 28.4531 93.1353 28.3926 93.3297 28.3926C93.5157 28.3926 93.6672 28.4493 93.7863 28.5638C93.9044 28.6782 93.9639 28.815 93.9639 28.9751C93.9639 29.2347 93.7918 29.4561 93.4487 29.6394L93.9378 30.2628C93.9936 30.154 94.0373 30.0274 94.068 29.8832L94.4158 29.9576C94.3563 30.1958 94.2754 30.3922 94.174 30.5457C94.2996 30.7122 94.4409 30.8518 94.5999 30.9644L94.3749 31.2305C94.2391 31.143 94.0996 31.0146 93.9564 30.8453ZM93.7463 30.581L93.1326 29.8199C92.9512 29.9279 92.8294 30.0283 92.7662 30.1205C92.703 30.2126 92.6713 30.3047 92.6713 30.3949C92.6713 30.5057 92.715 30.6201 92.8034 30.7392C92.8917 30.8583 93.0163 30.9179 93.1772 30.9179C93.2776 30.9179 93.3808 30.8862 93.4887 30.8239C93.5956 30.7606 93.6812 30.6797 93.7463 30.581ZM93.2758 29.4235C93.4208 29.3379 93.5147 29.2626 93.5575 29.1984C93.6003 29.1342 93.6217 29.0625 93.6217 28.9844C93.6217 28.8913 93.5919 28.815 93.5333 28.7564C93.4748 28.6978 93.4013 28.668 93.313 28.668C93.2228 28.668 93.1474 28.6968 93.087 28.7555C93.0266 28.8141 92.9968 28.8848 92.9968 28.9695C92.9968 29.0113 93.008 29.056 93.0293 29.1025C93.0507 29.149 93.0833 29.1984 93.127 29.2505L93.2758 29.4235Z" fill="#4A4A4A"/>
<path d="M96.7578 31.167V29.1916H97.0572V29.4689C97.1195 29.3721 97.2014 29.294 97.3046 29.2354C97.4078 29.1767 97.525 29.147 97.6561 29.147C97.8021 29.147 97.922 29.1777 98.0159 29.2382C98.1089 29.2986 98.1759 29.3833 98.214 29.4931C98.3702 29.2624 98.5739 29.147 98.824 29.147C99.0202 29.147 99.1708 29.2009 99.2759 29.3098C99.381 29.4187 99.434 29.5852 99.434 29.8113V31.168H99.1011V29.923C99.1011 29.789 99.0899 29.6932 99.0686 29.6336C99.0472 29.575 99.0072 29.5275 98.9505 29.4912C98.8937 29.455 98.8268 29.4373 98.7496 29.4373C98.611 29.4373 98.4957 29.4838 98.4037 29.5759C98.3116 29.668 98.2661 29.816 98.2661 30.0198V31.168H97.9313V29.8839C97.9313 29.735 97.9043 29.6234 97.8495 29.5489C97.7946 29.4745 97.7054 29.4373 97.5817 29.4373C97.4878 29.4373 97.4004 29.4624 97.3204 29.5117C97.2404 29.561 97.1828 29.6336 97.1465 29.7294C97.1102 29.8253 97.0926 29.963 97.0926 30.1426V31.168H96.7578V31.167Z" fill="#4A4A4A"/>
<path d="M101.6 30.9236C101.476 31.0287 101.357 31.1031 101.242 31.1469C101.127 31.1906 101.003 31.212 100.872 31.212C100.656 31.212 100.488 31.159 100.372 31.0529C100.256 30.9468 100.197 30.811 100.197 30.6463C100.197 30.5495 100.22 30.4611 100.263 30.3811C100.307 30.3011 100.365 30.2369 100.436 30.1885C100.508 30.1401 100.588 30.1038 100.677 30.0787C100.743 30.061 100.842 30.0443 100.975 30.0284C101.245 29.9959 101.443 29.9577 101.572 29.9131C101.573 29.8675 101.573 29.8377 101.573 29.8256C101.573 29.6888 101.542 29.593 101.479 29.5372C101.393 29.4618 101.266 29.4236 101.097 29.4236C100.94 29.4236 100.824 29.4516 100.749 29.5065C100.673 29.5613 100.619 29.6591 100.582 29.7996L100.255 29.7549C100.285 29.6144 100.334 29.5018 100.402 29.4153C100.47 29.3287 100.568 29.2627 100.698 29.2161C100.827 29.1696 100.976 29.1464 101.146 29.1464C101.314 29.1464 101.452 29.1659 101.557 29.2059C101.662 29.2459 101.74 29.2952 101.789 29.3557C101.838 29.4162 101.874 29.4916 101.893 29.5837C101.905 29.6404 101.91 29.7437 101.91 29.8926V30.3392C101.91 30.6509 101.918 30.8473 101.931 30.9301C101.945 31.0129 101.973 31.091 102.016 31.1673H101.666C101.631 31.0976 101.61 31.0166 101.6 30.9236ZM101.572 30.1755C101.45 30.2248 101.268 30.2676 101.025 30.302C100.887 30.3215 100.79 30.3439 100.733 30.369C100.676 30.3941 100.632 30.4304 100.601 30.4779C100.57 30.5262 100.554 30.5784 100.554 30.637C100.554 30.7263 100.588 30.8007 100.656 30.8603C100.724 30.9198 100.822 30.9496 100.952 30.9496C101.082 30.9496 101.196 30.9217 101.296 30.8649C101.397 30.8082 101.47 30.731 101.518 30.6333C101.554 30.5579 101.572 30.4462 101.572 30.2983V30.1755ZM100.921 28.9454L101.168 28.4243H101.607L101.198 28.9454H100.921Z" fill="#4A4A4A"/>
<path d="M102.794 31.9274L102.757 31.6129C102.83 31.6325 102.893 31.6427 102.948 31.6427C103.023 31.6427 103.082 31.6306 103.127 31.6055C103.171 31.5804 103.208 31.5459 103.237 31.5013C103.258 31.4678 103.291 31.385 103.339 31.2519C103.345 31.2333 103.355 31.2063 103.369 31.17L102.619 29.1909H102.98L103.391 30.3354C103.444 30.4805 103.492 30.6331 103.534 30.7932C103.573 30.6397 103.619 30.4889 103.672 30.3428L104.094 29.1909H104.429L103.677 31.1998C103.596 31.4166 103.534 31.5664 103.49 31.6483C103.43 31.759 103.362 31.84 103.285 31.8911C103.208 31.9432 103.117 31.9684 103.01 31.9684C102.946 31.9684 102.873 31.9553 102.794 31.9274Z" fill="#4A4A4A"/>
<path d="M107.821 30.4436L108.15 30.4864C108.114 30.7134 108.022 30.8911 107.874 31.0195C107.726 31.1479 107.544 31.2121 107.328 31.2121C107.057 31.2121 106.841 31.1237 106.676 30.9469C106.512 30.7702 106.43 30.5171 106.43 30.1868C106.43 29.9737 106.465 29.7866 106.536 29.6266C106.606 29.4666 106.714 29.3465 106.858 29.2665C107.002 29.1865 107.16 29.1465 107.33 29.1465C107.545 29.1465 107.719 29.2005 107.856 29.3093C107.993 29.4182 108.08 29.5717 108.118 29.7718L107.793 29.822C107.762 29.6889 107.707 29.5894 107.628 29.5224C107.549 29.4554 107.454 29.4219 107.343 29.4219C107.175 29.4219 107.037 29.4824 106.932 29.6033C106.827 29.7243 106.774 29.916 106.774 30.1774C106.774 30.4426 106.824 30.6352 106.926 30.7562C107.028 30.8762 107.161 30.9367 107.324 30.9367C107.455 30.9367 107.565 30.8967 107.653 30.8157C107.742 30.7348 107.797 30.611 107.821 30.4436Z" fill="#4A4A4A"/>
<path d="M110.105 30.9236C109.982 31.0287 109.863 31.1031 109.747 31.1469C109.633 31.1906 109.509 31.212 109.378 31.212C109.162 31.212 108.994 31.159 108.878 31.0529C108.762 30.9468 108.703 30.811 108.703 30.6463C108.703 30.5495 108.725 30.4611 108.769 30.3811C108.813 30.3011 108.87 30.2369 108.942 30.1885C109.014 30.1401 109.094 30.1038 109.183 30.0787C109.249 30.061 109.348 30.0443 109.481 30.0284C109.751 29.9959 109.949 29.9577 110.077 29.9131C110.078 29.8675 110.079 29.8377 110.079 29.8256C110.079 29.6888 110.048 29.593 109.984 29.5372C109.899 29.4618 109.772 29.4236 109.603 29.4236C109.446 29.4236 109.33 29.4516 109.255 29.5065C109.179 29.5613 109.124 29.6591 109.088 29.7996L108.761 29.7549C108.791 29.6144 108.84 29.5018 108.908 29.4153C108.976 29.3287 109.074 29.2627 109.203 29.2161C109.333 29.1696 109.481 29.1464 109.652 29.1464C109.82 29.1464 109.958 29.1659 110.063 29.2059C110.168 29.2459 110.246 29.2952 110.295 29.3557C110.344 29.4162 110.38 29.4916 110.399 29.5837C110.41 29.6404 110.416 29.7437 110.416 29.8926V30.3392C110.416 30.6509 110.423 30.8473 110.437 30.9301C110.451 31.0129 110.479 31.091 110.522 31.1673H110.172C110.137 31.0976 110.116 31.0166 110.105 30.9236ZM110.077 30.1755C109.956 30.2248 109.773 30.2676 109.531 30.302C109.393 30.3215 109.295 30.3439 109.239 30.369C109.182 30.3941 109.137 30.4304 109.107 30.4779C109.076 30.5262 109.06 30.5784 109.06 30.637C109.06 30.7263 109.094 30.8007 109.162 30.8603C109.229 30.9198 109.328 30.9496 109.458 30.9496C109.587 30.9496 109.702 30.9217 109.802 30.8649C109.903 30.8082 109.976 30.731 110.024 30.6333C110.06 30.5579 110.077 30.4462 110.077 30.2983V30.1755ZM109.427 28.9454L109.674 28.4243H110.113L109.704 28.9454H109.427Z" fill="#4A4A4A"/>
<path d="M112.604 30.4436L112.933 30.4864C112.897 30.7134 112.805 30.8911 112.657 31.0195C112.509 31.1479 112.327 31.2121 112.111 31.2121C111.841 31.2121 111.624 31.1237 111.459 30.9469C111.295 30.7702 111.213 30.5171 111.213 30.1868C111.213 29.9737 111.248 29.7866 111.319 29.6266C111.39 29.4666 111.497 29.3465 111.642 29.2665C111.786 29.1865 111.943 29.1465 112.113 29.1465C112.328 29.1465 112.503 29.2005 112.639 29.3093C112.776 29.4182 112.863 29.5717 112.902 29.7718L112.576 29.822C112.545 29.6889 112.491 29.5894 112.412 29.5224C112.332 29.4554 112.238 29.4219 112.126 29.4219C111.958 29.4219 111.82 29.4824 111.715 29.6033C111.61 29.7243 111.557 29.916 111.557 30.1774C111.557 30.4426 111.607 30.6352 111.709 30.7562C111.811 30.8762 111.944 30.9367 112.107 30.9367C112.239 30.9367 112.348 30.8967 112.437 30.8157C112.525 30.7348 112.58 30.611 112.604 30.4436Z" fill="#4A4A4A"/>
<path d="M115.033 31.1672V28.4399H115.368V31.1672H115.033Z" fill="#4A4A4A"/>
<path d="M116.143 30.1793C116.143 29.8136 116.244 29.5429 116.448 29.3661C116.618 29.22 116.824 29.1465 117.069 29.1465C117.34 29.1465 117.562 29.2358 117.735 29.4135C117.907 29.5912 117.993 29.8369 117.993 30.1514C117.993 30.4054 117.955 30.6055 117.879 30.7515C117.802 30.8976 117.692 31.0102 117.546 31.0912C117.4 31.1721 117.241 31.2121 117.069 31.2121C116.793 31.2121 116.569 31.1237 116.398 30.946C116.227 30.7683 116.143 30.5124 116.143 30.1793ZM116.487 30.1793C116.487 30.4324 116.541 30.6222 116.652 30.7478C116.763 30.8734 116.901 30.9367 117.069 30.9367C117.235 30.9367 117.373 30.8734 117.483 30.7469C117.594 30.6204 117.649 30.4277 117.649 30.1681C117.649 29.9234 117.593 29.7383 117.483 29.6127C117.372 29.487 117.233 29.4238 117.069 29.4238C116.901 29.4238 116.763 29.4861 116.652 29.6117C116.541 29.7373 116.487 29.9262 116.487 30.1793Z" fill="#4A4A4A"/>
<path d="M120.053 30.9237C119.929 31.0288 119.81 31.1033 119.695 31.147C119.58 31.1907 119.457 31.2121 119.325 31.2121C119.109 31.2121 118.941 31.1591 118.825 31.053C118.709 30.9469 118.65 30.8111 118.65 30.6464C118.65 30.5496 118.673 30.4612 118.716 30.3812C118.76 30.3012 118.818 30.237 118.889 30.1886C118.961 30.1402 119.041 30.1039 119.13 30.0788C119.196 30.0611 119.295 30.0444 119.428 30.0286C119.698 29.996 119.896 29.9579 120.025 29.9132C120.026 29.8676 120.027 29.8378 120.027 29.8257C120.027 29.689 119.995 29.5931 119.932 29.5373C119.846 29.4619 119.719 29.4238 119.551 29.4238C119.393 29.4238 119.277 29.4517 119.202 29.5066C119.126 29.5615 119.072 29.6592 119.035 29.7997L118.708 29.755C118.738 29.6145 118.787 29.5019 118.855 29.4154C118.923 29.3289 119.021 29.2628 119.151 29.2163C119.28 29.1697 119.429 29.1465 119.599 29.1465C119.767 29.1465 119.905 29.166 120.01 29.206C120.115 29.246 120.193 29.2954 120.242 29.3558C120.292 29.4163 120.327 29.4917 120.346 29.5838C120.358 29.6406 120.363 29.7438 120.363 29.8927V30.3393C120.363 30.6511 120.371 30.8474 120.385 30.9302C120.399 31.013 120.426 31.0912 120.469 31.1675H120.12C120.085 31.0977 120.063 31.0167 120.053 30.9237ZM120.025 30.1756C119.903 30.2249 119.721 30.2677 119.478 30.3021C119.34 30.3217 119.243 30.344 119.186 30.3691C119.129 30.3942 119.085 30.4305 119.054 30.478C119.023 30.5264 119.007 30.5785 119.007 30.6371C119.007 30.7264 119.041 30.8009 119.109 30.8604C119.177 30.92 119.275 30.9497 119.405 30.9497C119.535 30.9497 119.649 30.9218 119.75 30.8651C119.85 30.8083 119.923 30.7311 119.971 30.6334C120.007 30.558 120.025 30.4464 120.025 30.2984V30.1756ZM119.365 31.7713V31.3899H119.747V31.7713H119.365Z" fill="#4A4A4A"/>
<path d="M121.266 28.8242V28.439H121.6V28.8242H121.266ZM121.266 31.1671V29.1917H121.6V31.1671H121.266Z" fill="#4A4A4A"/>
</g>
<defs>
<clipPath id="clip0_2197_7168">
<rect width="121.6" height="40" fill="white"/>
</clipPath>
</defs>
</svg>
