<svg width="24" height="24" viewBox="0 0 24 24" fill="none" xmlns="http://www.w3.org/2000/svg">
<rect width="24" height="24" rx="12" fill="#FFAA00"/>
<g clip-path="url(#clip0_295_2837)">
<path d="M8.2207 9.33301H15.78C15.9723 9.33298 16.1623 9.37453 16.3369 9.45481C16.5116 9.53508 16.6669 9.65218 16.7921 9.79808C16.9173 9.94397 17.0094 10.1152 17.0622 10.3001C17.115 10.4849 17.1273 10.679 17.098 10.869L16.2614 16.3037C16.1887 16.776 15.9494 17.2067 15.5867 17.5178C15.224 17.8289 14.7619 17.9998 14.284 17.9997H9.71603C9.2383 17.9997 8.77635 17.8286 8.41379 17.5175C8.05122 17.2065 7.81198 16.7759 7.73937 16.3037L6.9027 10.869C6.87348 10.679 6.88569 10.4849 6.9385 10.3001C6.99131 10.1152 7.08347 9.94397 7.20866 9.79808C7.33385 9.65218 7.48911 9.53508 7.66379 9.45481C7.83848 9.37453 8.02845 9.33298 8.2207 9.33301Z" stroke="white" stroke-width="1.2" stroke-linecap="round" stroke-linejoin="round"/>
<path d="M10 11.3333V8C10 7.46957 10.2107 6.96086 10.5858 6.58579C10.9609 6.21071 11.4696 6 12 6C12.5304 6 13.0391 6.21071 13.4142 6.58579C13.7893 6.96086 14 7.46957 14 8V11.3333" stroke="white" stroke-width="1.2" stroke-linecap="round" stroke-linejoin="round"/>
</g>
<defs>
<clipPath id="clip0_295_2837">
<rect width="16" height="16" fill="white" transform="translate(4 4)"/>
</clipPath>
</defs>
</svg>
