<svg width="20" height="20" viewBox="0 0 20 20" fill="none" xmlns="http://www.w3.org/2000/svg">
<path d="M6.04102 5.83317H13.9577V4.1665C13.9577 2.49984 13.3327 1.6665 11.4577 1.6665H8.54102C6.66602 1.6665 6.04102 2.49984 6.04102 4.1665V5.83317Z" stroke="#9C9C9C" stroke-width="1.2" stroke-miterlimit="10" stroke-linecap="round" stroke-linejoin="round"/>
<path d="M13.3327 12.5V15.8333C13.3327 17.5 12.4993 18.3333 10.8327 18.3333H9.16602C7.49935 18.3333 6.66602 17.5 6.66602 15.8333V12.5H13.3327Z" stroke="#9C9C9C" stroke-width="1.2" stroke-miterlimit="10" stroke-linecap="round" stroke-linejoin="round"/>
<path d="M17.5 8.3335V12.5002C17.5 14.1668 16.6667 15.0002 15 15.0002H13.3333V12.5002H6.66667V15.0002H5C3.33333 15.0002 2.5 14.1668 2.5 12.5002V8.3335C2.5 6.66683 3.33333 5.8335 5 5.8335H15C16.6667 5.8335 17.5 6.66683 17.5 8.3335Z" stroke="#9C9C9C" stroke-width="1.2" stroke-miterlimit="10" stroke-linecap="round" stroke-linejoin="round"/>
<path d="M14.1673 12.5H13.159H5.83398" stroke="#9C9C9C" stroke-width="1.2" stroke-miterlimit="10" stroke-linecap="round" stroke-linejoin="round"/>
<path d="M5.83398 9.1665H8.33398" stroke="#9C9C9C" stroke-width="1.2" stroke-miterlimit="10" stroke-linecap="round" stroke-linejoin="round"/>
</svg>
