<svg width="14" height="14" viewBox="0 0 14 14" fill="none" xmlns="http://www.w3.org/2000/svg">
<path d="M6.99892 0.333252L7.07759 0.337919L7.11692 0.343252L7.15759 0.351919L7.23159 0.374585C7.2827 0.393427 7.33129 0.418506 7.37626 0.449252L7.44559 0.503919L7.61559 0.649252C8.96046 1.76629 10.6602 2.36612 12.4083 2.34059L12.6363 2.33392C12.7853 2.32712 12.9324 2.37052 13.0538 2.45718C13.1753 2.54385 13.2642 2.66876 13.3063 2.81192C13.6339 3.9263 13.7341 5.09517 13.601 6.24906C13.468 7.40296 13.1043 8.51833 12.5317 9.5289C11.959 10.5395 11.1891 11.4246 10.2676 12.1318C9.34614 12.8389 8.29192 13.3536 7.16759 13.6453C7.05785 13.6737 6.94266 13.6737 6.83292 13.6453C5.70853 13.3537 4.65424 12.839 3.73268 12.1319C2.81112 11.4248 2.04111 10.5397 1.4684 9.52909C0.8957 8.51851 0.531989 7.40312 0.398885 6.24919C0.265781 5.09526 0.366 3.92635 0.693588 2.81192C0.735662 2.66876 0.824548 2.54385 0.94602 2.45718C1.06749 2.37052 1.21453 2.32712 1.36359 2.33392C3.18856 2.41734 4.97896 1.81658 6.38426 0.649252L6.55959 0.499252L6.62359 0.449252C6.66856 0.418506 6.71714 0.393427 6.76826 0.374585L6.84292 0.351919C6.86905 0.345608 6.89555 0.340932 6.92226 0.337919L6.99892 0.333252ZM9.47226 5.19525C9.41034 5.13327 9.33681 5.0841 9.25588 5.05055C9.17495 5.017 9.0882 4.99973 9.00059 4.99973C8.91298 4.99973 8.82623 5.017 8.74529 5.05055C8.66436 5.0841 8.59084 5.13327 8.52892 5.19525L6.33359 7.38992L5.47159 6.52859L5.40892 6.47325C5.27493 6.36964 5.10652 6.32092 4.9379 6.33699C4.76929 6.35305 4.61311 6.43269 4.50109 6.55973C4.38906 6.68678 4.3296 6.8517 4.33477 7.021C4.33994 7.1903 4.40936 7.35128 4.52892 7.47125L5.86226 8.80459L5.92492 8.85992C6.05319 8.95942 6.21336 9.0087 6.37538 8.99851C6.53739 8.98832 6.69013 8.91937 6.80492 8.80459L9.47159 6.13792L9.52692 6.07525C9.62642 5.94698 9.6757 5.78682 9.66551 5.6248C9.65533 5.46278 9.58637 5.31005 9.47159 5.19525H9.47226Z" fill="#F0FBFF"/>
</svg>
