<svg width="20" height="20" viewBox="0 0 20 20" fill="none" xmlns="http://www.w3.org/2000/svg">
<path d="M11.4411 2.9252L12.9078 5.85853C13.1078 6.26686 13.6411 6.65853 14.0911 6.73353L16.7494 7.1752C18.4494 7.45853 18.8494 8.69186 17.6244 9.90853L15.5578 11.9752C15.2078 12.3252 15.0161 13.0002 15.1244 13.4835L15.7161 16.0419C16.1828 18.0669 15.1078 18.8502 13.3161 17.7919L10.8244 16.3169C10.3744 16.0502 9.63277 16.0502 9.17444 16.3169L6.68277 17.7919C4.89944 18.8502 3.8161 18.0585 4.28277 16.0419L4.87444 13.4835C4.98277 13.0002 4.7911 12.3252 4.4411 11.9752L2.37444 9.90853C1.15777 8.69186 1.54944 7.45853 3.24944 7.1752L5.90777 6.73353C6.34944 6.65853 6.88277 6.26686 7.08277 5.85853L8.54944 2.9252C9.34944 1.33353 10.6494 1.33353 11.4411 2.9252Z" fill="#FFAA00"/>
</svg>
