<svg width="100" height="100" viewBox="0 0 100 100" fill="none" xmlns="http://www.w3.org/2000/svg">
<path d="M34.9199 50.0003L44.9616 60.0837L65.0866 39.917" stroke="#FFAA00" stroke-width="4" stroke-linecap="round" stroke-linejoin="round"/>
<path d="M44.7949 10.2075C47.6699 7.74919 52.3783 7.74919 55.2949 10.2075L61.8783 15.8742C63.1283 16.9575 65.4616 17.8325 67.1283 17.8325H74.2116C78.6282 17.8325 82.2533 21.4575 82.2533 25.8742V32.9575C82.2533 34.5825 83.1283 36.9575 84.2116 38.2075L89.8783 44.7909C92.3366 47.6659 92.3366 52.3742 89.8783 55.2909L84.2116 61.8742C83.1283 63.1242 82.2533 65.4575 82.2533 67.1242V74.2075C82.2533 78.6242 78.6282 82.2492 74.2116 82.2492H67.1283C65.5033 82.2492 63.1283 83.1242 61.8783 84.2075L55.2949 89.8742C52.4199 92.3325 47.7116 92.3325 44.7949 89.8742L38.2116 84.2075C36.9616 83.1242 34.6283 82.2492 32.9616 82.2492H25.7533C21.3366 82.2492 17.7116 78.6242 17.7116 74.2075V67.0825C17.7116 65.4575 16.8366 63.1242 15.7949 61.8742L10.1699 55.2492C7.75326 52.3742 7.75326 47.7075 10.1699 44.8325L15.7949 38.2075C16.8366 36.9575 17.7116 34.6242 17.7116 32.9992V25.8325C17.7116 21.4159 21.3366 17.7909 25.7533 17.7909H32.9616C34.5866 17.7909 36.9616 16.9159 38.2116 15.8325L44.7949 10.2075Z" stroke="#FFAA00" stroke-width="4" stroke-linecap="round" stroke-linejoin="round"/>
</svg>
