<svg width="20" height="20" viewBox="0 0 20 20" fill="none" xmlns="http://www.w3.org/2000/svg">
<g clip-path="url(#clip0_117_2415)">
<path d="M12.5167 16.2664C10.5658 16.8798 8.35 16.7714 6.41667 15.8331L2.5 16.6664L3.58333 13.4164C1.64667 10.5523 2.395 6.85644 5.33333 4.77144C8.27167 2.68727 12.4917 2.8581 15.2042 5.17144C16.5783 6.34393 17.35 7.88227 17.4892 9.46477" stroke="#333333" stroke-width="1.2" stroke-linecap="round" stroke-linejoin="round"/>
<path d="M15.833 18.3335V18.3418" stroke="#333333" stroke-width="1.2" stroke-linecap="round" stroke-linejoin="round"/>
<path d="M15.833 15.8331C16.2066 15.8319 16.569 15.7055 16.8622 15.4739C17.1553 15.2424 17.3624 14.9192 17.4501 14.5561C17.5379 14.193 17.5013 13.8109 17.3462 13.471C17.1911 13.1311 16.9265 12.8531 16.5947 12.6815C16.2632 12.5116 15.8839 12.459 15.5187 12.5321C15.1534 12.6051 14.8237 12.7997 14.583 13.084" stroke="#333333" stroke-width="1.2" stroke-linecap="round" stroke-linejoin="round"/>
</g>
<defs>
<clipPath id="clip0_117_2415">
<rect width="20" height="20" fill="white"/>
</clipPath>
</defs>
</svg>
