<svg width="40" height="40" viewBox="0 0 40 40" fill="none" xmlns="http://www.w3.org/2000/svg">
<rect width="40" height="40" rx="20" fill="#3FADFC"/>
<g clip-path="url(#clip0_1776_6801)">
<path d="M15.0004 26.0002C13.7527 26.0002 12.5561 25.5261 11.6738 24.6822C10.7916 23.8383 10.2959 22.6937 10.2959 21.5002C10.2959 20.3067 10.7916 19.1621 11.6738 18.3182C12.5561 17.4743 13.7527 17.0002 15.0004 17.0002C15.2951 15.6874 16.1572 14.5337 17.397 13.7929C18.0109 13.4261 18.6991 13.1717 19.4222 13.0443C20.1453 12.9169 20.8893 12.9189 21.6116 13.0502C22.3338 13.1815 23.0203 13.4396 23.6317 13.8097C24.2432 14.1798 24.7677 14.6546 25.1752 15.2071C25.5828 15.7596 25.8654 16.379 26.007 17.0298C26.1486 17.6806 26.1464 18.3502 26.0004 19.0002H27.0004C27.9287 19.0002 28.8189 19.3689 29.4753 20.0253C30.1317 20.6817 30.5004 21.5719 30.5004 22.5002C30.5004 23.4285 30.1317 24.3187 29.4753 24.9751C28.8189 25.6314 27.9287 26.0002 27.0004 26.0002H26.0004" stroke="white" stroke-width="2" stroke-linecap="round" stroke-linejoin="round"/>
<path d="M17 23L20 20L23 23" stroke="white" stroke-width="2" stroke-linecap="round" stroke-linejoin="round"/>
<path d="M20 20V29" stroke="white" stroke-width="2" stroke-linecap="round" stroke-linejoin="round"/>
</g>
<defs>
<clipPath id="clip0_1776_6801">
<rect x="8" y="8" width="24" height="24" rx="12" fill="white"/>
</clipPath>
</defs>
</svg>
