<svg width="40" height="40" viewBox="0 0 40 40" fill="none" xmlns="http://www.w3.org/2000/svg">
<rect width="40" height="40" rx="20" fill="#3FA5FF"/>
<path d="M20.49 18.272V17.822H21.837V24.144H21.067C20.9146 24.1443 20.7683 24.0841 20.6601 23.9767C20.552 23.8693 20.4908 23.7235 20.49 23.571C19.9277 23.9826 19.2488 24.205 18.552 24.204C17.6814 24.204 16.8464 23.8583 16.2306 23.2429C15.6148 22.6274 15.2685 21.7927 15.268 20.922C15.2685 20.0514 15.6148 19.2166 16.2306 18.6012C16.8464 17.9858 17.6814 17.64 18.552 17.64C19.2485 17.6393 19.928 17.8607 20.49 18.272ZM14.919 15.79V15.995C14.919 16.377 14.868 16.689 14.619 17.055L14.589 17.089C14.506 17.1821 14.4254 17.2771 14.347 17.374L10.024 22.8H14.919V23.568C14.919 23.6438 14.9041 23.7187 14.8751 23.7887C14.846 23.8586 14.8035 23.9222 14.7499 23.9757C14.6963 24.0292 14.6327 24.0716 14.5627 24.1005C14.4927 24.1294 14.4177 24.1442 14.342 24.144H8V23.782C8 23.339 8.11 23.141 8.25 22.935L12.857 17.23H8.192V15.79H14.919ZM23.47 24.144C23.3427 24.144 23.2206 24.0935 23.1306 24.0034C23.0406 23.9134 22.99 23.7913 22.99 23.664V15.79H24.431V24.144H23.47ZM28.693 17.6C29.1272 17.5999 29.5571 17.6853 29.9582 17.8513C30.3594 18.0173 30.7239 18.2607 31.031 18.5676C31.3381 18.8745 31.5817 19.2389 31.748 19.64C31.9142 20.041 31.9999 20.4709 32 20.905C32.0001 21.3392 31.9147 21.7691 31.7487 22.1703C31.5827 22.5714 31.3393 22.9359 31.0324 23.243C30.7255 23.5501 30.3611 23.7937 29.9601 23.96C29.559 24.1263 29.1292 24.2119 28.695 24.212C27.8182 24.2123 26.9772 23.8642 26.357 23.2444C25.7368 22.6246 25.3883 21.7838 25.388 20.907C25.3877 20.0302 25.7358 19.1892 26.3556 18.5691C26.9754 17.9489 27.8162 17.6003 28.693 17.6ZM18.553 22.853C18.8103 22.8589 19.0663 22.8133 19.3057 22.7188C19.5452 22.6244 19.7634 22.4831 19.9475 22.3031C20.1315 22.1232 20.2778 21.9083 20.3777 21.671C20.4775 21.4338 20.529 21.179 20.529 20.9215C20.529 20.6641 20.4775 20.4093 20.3777 20.1721C20.2778 19.9348 20.1315 19.7199 19.9475 19.54C19.7634 19.36 19.5452 19.2187 19.3057 19.1242C19.0663 19.0298 18.8103 18.9842 18.553 18.99C18.0483 19.0015 17.5682 19.2101 17.2154 19.571C16.8625 19.932 16.665 20.4168 16.665 20.9215C16.665 21.4263 16.8625 21.9111 17.2154 22.272C17.5682 22.633 18.0483 22.8416 18.553 22.853ZM28.693 22.85C29.2088 22.85 29.7036 22.6451 30.0683 22.2804C30.4331 21.9156 30.638 21.4209 30.638 20.905C30.638 20.3892 30.4331 19.8945 30.0683 19.5297C29.7036 19.165 29.2088 18.96 28.693 18.96C28.1772 18.96 27.6824 19.165 27.3177 19.5297C26.9529 19.8945 26.748 20.3892 26.748 20.905C26.748 21.4209 26.9529 21.9156 27.3177 22.2804C27.6824 22.6451 28.1772 22.85 28.693 22.85Z" fill="white"/>
</svg>
